<?xml version="1.0" encoding="utf-8"?>
<!-- Generator: Adobe Illustrator 22.0.0, SVG Export Plug-In . SVG Version: 6.00 Build 0)  -->
<svg version="1.1" id="Layer_1" xmlns="http://www.w3.org/2000/svg" xmlns:xlink="http://www.w3.org/1999/xlink" x="0px" y="0px"
	 viewBox="0 0 24 24" style="enable-background:new 0 0 24 24;" xml:space="preserve">
<style type="text/css">
	.st0{fill:#FF9F9F;}
	.st1{fill:#C2C2C2;}
</style>
<g>
	<path class="st0" d="M12.3,11.7c2.6,0,5.2,0,7.7,0c0.1,0,0.3,0,0.4,0c0.2,0,0.3,0.2,0.3,0.4c0,0.2-0.1,0.4-0.3,0.4
		c-0.1,0-0.3,0-0.4,0c-5.2,0-10.3,0-15.5,0c-0.1,0-0.3,0-0.4,0c-0.2,0-0.4-0.2-0.3-0.4c0-0.2,0.1-0.3,0.3-0.4c0.1,0,0.3,0,0.4,0
		C7.1,11.7,9.7,11.7,12.3,11.7z"/>
	<path d="M14.3,15.2c0,0.5,0,1,0,1.5c0,0.2-0.1,0.3-0.3,0.3c-1.3,0.1-1.3,0.1-1.3-1.3c0-0.7,0-1.4,0-2.1c0-0.2,0.1-0.3,0.3-0.3
		c1.3-0.1,1.3-0.1,1.3,1.3C14.3,14.8,14.3,15,14.3,15.2z"/>
	<path d="M7,9.1c0-0.5,0-1,0-1.5C7,7.4,7,7.3,7.3,7.3c1.3,0,1.3-0.1,1.3,1.3c0,0.7,0,1.4,0,2.1c0,0.2-0.1,0.3-0.3,0.3
		C7,11,7,11,7,9.7C7,9.5,7,9.3,7,9.1z"/>
	<path d="M7,15.1c0-0.5,0-1,0-1.5c0-0.2,0.1-0.3,0.3-0.3c1.3,0,1.3-0.1,1.3,1.3c0,0.7,0,1.4,0,2.1C8.6,17,8.5,17,8.3,17
		C7,17.1,7,17.1,7,15.7C7,15.5,7,15.3,7,15.1z"/>
	<path d="M12.7,9.1c0-0.5,0-1,0-1.5c0-0.2,0.1-0.3,0.3-0.3c1.3,0,1.3-0.1,1.3,1.3c0,0.7,0,1.4,0,2.1c0,0.2-0.1,0.3-0.3,0.3
		c-1.3,0-1.3,0.1-1.3-1.3C12.7,9.5,12.7,9.3,12.7,9.1z"/>
	<path class="st1" d="M19.1,19.4c-0.2,0-0.5,0-0.7,0c-0.4,0-0.5-0.1-0.5-0.5c0-0.3,0.1-0.4,0.4-0.4c0.5,0,1,0,1.5,0c0.7,0,1-0.3,1-1
		c0-0.5,0-1,0-1.6c0-0.4,0.3-0.3,0.4-0.3c0.2,0,0.4-0.1,0.4,0.3c0,0.6,0,1.2,0,1.8c0,0.9-0.7,1.5-1.6,1.5
		C19.7,19.5,19.4,19.4,19.1,19.4z"/>
	<path class="st1" d="M5.3,19.4c-1.8,0.1-2.6-0.5-2.4-2.4c0-0.3,0-0.5,0-0.8c0-0.3,0-0.5,0.4-0.5c0.4,0,0.4,0.1,0.4,0.5
		c0,0.5,0,0.9,0,1.4c0,0.7,0.3,1,1,1c0.5,0,1,0,1.6,0c0.4,0,0.3,0.3,0.3,0.4c0,0.2,0.1,0.4-0.3,0.4C6,19.4,5.7,19.4,5.3,19.4z"/>
	<path class="st1" d="M19.1,4.9c1.8-0.2,2.6,0.6,2.4,2.4c0,0.3,0,0.5,0,0.8c0.1,0.4-0.1,0.5-0.5,0.5c-0.3,0-0.3-0.1-0.3-0.4
		c0-0.5,0-1.1,0-1.6c0-0.6-0.3-0.9-0.9-0.9c-0.6,0-1.1,0-1.7,0c-0.3,0-0.3-0.2-0.3-0.4c0-0.2-0.1-0.5,0.3-0.4
		C18.5,4.9,18.8,4.9,19.1,4.9z"/>
	<path class="st1" d="M2.9,7.3C2.8,5.4,3.5,4.7,5.4,4.9c0.3,0,0.5,0,0.8,0C6.5,4.8,6.6,5,6.6,5.4c0,0.3-0.1,0.3-0.3,0.3
		c-0.5,0-1.1,0-1.6,0C4.1,5.7,3.8,6,3.7,6.6c0,0.5,0,1.1,0,1.6c0,0.3-0.1,0.4-0.4,0.3c-0.2,0-0.5,0.1-0.4-0.3C3,7.9,2.9,7.6,2.9,7.3
		z"/>
	<path d="M15.9,9.1c0,0.5,0,0.9,0,1.4c0,0.3-0.1,0.5-0.4,0.5c-0.4,0-0.4-0.1-0.4-0.4c0-0.9,0-1.9,0-2.8c0-0.3,0.1-0.5,0.4-0.5
		c0.4,0,0.4,0.2,0.4,0.5C15.9,8.2,15.9,8.7,15.9,9.1z"/>
	<path d="M17.5,9.2c0,0.5,0,1,0,1.5c0,0.4-0.2,0.3-0.4,0.3c-0.3,0-0.4,0-0.4-0.3c0-1,0-2,0-3c0-0.4,0.2-0.3,0.4-0.3
		c0.3,0,0.4,0,0.4,0.3C17.5,8.1,17.5,8.6,17.5,9.2z"/>
	<path d="M18.3,9.1c0-0.5,0-1,0-1.5c0-0.4,0.2-0.3,0.4-0.3c0.2,0,0.4-0.1,0.4,0.3c0,1,0,2,0,3c0,0.4-0.2,0.3-0.4,0.3
		c-0.2,0-0.4,0.1-0.4-0.3C18.4,10.1,18.3,9.6,18.3,9.1z"/>
	<path d="M11.8,9.1c0,0.5,0,1,0,1.5c0,0.4-0.2,0.3-0.4,0.3c-0.2,0-0.4,0.1-0.4-0.3c0-1,0-2,0-3c0-0.4,0.2-0.3,0.4-0.3
		c0.2,0,0.4-0.1,0.4,0.3C11.8,8.1,11.8,8.6,11.8,9.1z"/>
	<path d="M5.4,15.1c0-0.5,0-1,0-1.5c0-0.4,0.2-0.3,0.4-0.3c0.2,0,0.4-0.1,0.4,0.3c0,1,0,2,0,3C6.2,17.1,6,17,5.8,17
		c-0.2,0-0.4,0.1-0.4-0.3C5.4,16.2,5.4,15.7,5.4,15.1z"/>
	<path d="M10.2,9.2c0,0.5,0,1,0,1.5c0,0.4-0.2,0.3-0.4,0.3c-0.2,0-0.4,0.1-0.4-0.3c0-1,0-2,0-3c0-0.4,0.2-0.3,0.4-0.3
		c0.2,0,0.4-0.1,0.4,0.3C10.2,8.1,10.2,8.6,10.2,9.2z"/>
	<path d="M10.2,15.2c0,0.5,0,1,0,1.5c0,0.4-0.3,0.3-0.4,0.3c-0.2,0-0.4,0.1-0.4-0.3c0-1,0-2.1,0-3.1c0-0.4,0.3-0.3,0.4-0.3
		c0.2,0,0.4-0.1,0.4,0.3C10.2,14.2,10.2,14.7,10.2,15.2z"/>
	<path d="M11.8,15.2c0,0.5,0,0.9,0,1.4c0,0.3-0.1,0.5-0.4,0.5c-0.4,0-0.4-0.1-0.4-0.4c0-0.9,0-1.9,0-2.8c0-0.3,0.1-0.5,0.4-0.5
		c0.4,0,0.4,0.2,0.4,0.5C11.8,14.3,11.8,14.7,11.8,15.2z"/>
	<path d="M5.4,9.1c0-0.5,0-1,0-1.5c0-0.4,0.2-0.3,0.4-0.3c0.3,0,0.4,0,0.4,0.3c0,1,0,2,0,3c0,0.4-0.2,0.3-0.4,0.3
		c-0.3,0-0.4,0-0.4-0.3C5.4,10.1,5.4,9.6,5.4,9.1z"/>
	<path d="M15.9,15.2c0,0.5,0,1,0,1.5c0,0.4-0.2,0.3-0.4,0.3c-0.2,0-0.4,0.1-0.4-0.3c0-1,0-2,0-3c0-0.4,0.2-0.3,0.4-0.3
		c0.2,0,0.4-0.1,0.4,0.3C15.9,14.2,15.9,14.7,15.9,15.2z"/>
	<path d="M17.5,15.2c0,0.5,0,0.9,0,1.4c0,0.3-0.1,0.5-0.4,0.5c-0.4,0-0.4-0.1-0.4-0.4c0-0.9,0-1.9,0-2.8c0-0.3,0.1-0.5,0.4-0.5
		c0.4,0,0.4,0.2,0.4,0.5C17.5,14.3,17.5,14.7,17.5,15.2z"/>
	<path d="M18.3,15.2c0-0.5,0-1,0-1.5c0-0.4,0.2-0.3,0.4-0.3c0.2,0,0.4-0.1,0.4,0.3c0,1,0,2,0,3c0,0.4-0.2,0.3-0.4,0.3
		c-0.2,0-0.4,0.1-0.4-0.3C18.4,16.2,18.3,15.7,18.3,15.2z"/>
</g>
</svg>
