<?xml version="1.0" encoding="iso-8859-1"?>
<!-- Generator: Adobe Illustrator 22.1.0, SVG Export Plug-In . SVG Version: 6.00 Build 0)  -->
<svg version="1.1" id="Calque_1" xmlns="http://www.w3.org/2000/svg" xmlns:xlink="http://www.w3.org/1999/xlink" x="0px" y="0px"
	 viewBox="0 0 200 200" style="enable-background:new 0 0 200 200;" xml:space="preserve">
<g>
	<path style="fill:#7DB2C3;" d="M191.838,98.155H8.16c-2.406,0-4.356-1.95-4.356-4.356V80.375c0-2.406,1.95-4.356,4.356-4.356
		h183.678c2.406,0,4.356,1.95,4.356,4.356v13.424C196.194,96.205,194.244,98.155,191.838,98.155z"/>
	<path style="fill:#267F9B;" d="M191.838,76.019h-30.023c2.406,0,4.356,1.95,4.356,4.356v13.424c0,2.406-1.95,4.356-4.356,4.356
		h30.023c2.406,0,4.356-1.95,4.356-4.356V80.375C196.194,77.969,194.244,76.019,191.838,76.019z"/>
	<path style="fill:#7DB2C3;" d="M170.076,192.347H29.923c-4.458,0-8.224-3.309-8.796-7.731L9.936,98.155h180.126l-11.191,86.462
		C178.299,189.038,174.534,192.347,170.076,192.347z"/>
	<path style="fill:#7DB2C3;" d="M164.725,98.155l-11.191,86.462c-0.572,4.421-4.338,7.73-8.796,7.73h25.337
		c4.458,0,8.223-3.309,8.796-7.73l11.191-86.462L164.725,98.155L164.725,98.155z"/>
	<path style="fill:#7DB2C3;" d="M43.714,76.019l9.538-44.25c1.528-7.088,7.275-12.037,13.976-12.037h65.545
		c6.7,0,12.447,4.95,13.975,12.037l9.538,44.25h12.277c0-0.422-0.043-0.85-0.135-1.279l-9.814-45.529
		c-2.744-12.728-13.37-21.618-25.841-21.618H67.227c-12.471,0-23.098,8.89-25.842,21.619L31.572,74.74
		c-0.092,0.429-0.135,0.857-0.135,1.279H43.714z"/>
	<g>
		<path style="fill:#267F9B;" d="M47.74,31.769l-9.538,44.25h5.511l9.538-44.25c1.528-7.088,7.275-12.037,13.976-12.037h-5.511
			C55.015,19.732,49.268,24.682,47.74,31.769z"/>
		<path style="fill:#267F9B;" d="M168.426,74.74l-9.813-45.529c-2.744-12.728-13.37-21.618-25.841-21.618h-5.511
			c12.471,0,23.097,8.89,25.841,21.618l9.814,45.529c0.092,0.429,0.135,0.857,0.135,1.279h5.511
			C168.561,75.598,168.519,75.17,168.426,74.74z"/>
	</g>
	<g>
		<rect x="34.303" y="98.213" style="fill:#267F9B;" width="18.838" height="18.838"/>
		<rect x="34.303" y="135.892" style="fill:#267F9B;" width="18.838" height="18.838"/>
		<rect x="34.303" y="173.567" style="fill:#267F9B;" width="18.838" height="18.838"/>
		<polygon style="fill:#267F9B;" points="34.302,135.891 14.813,135.832 12.375,116.994 34.302,117.052 		"/>
		<rect x="53.138" y="117.052" style="fill:#267F9B;" width="18.838" height="18.838"/>
		<rect x="90.817" y="117.052" style="fill:#267F9B;" width="18.838" height="18.838"/>
		<rect x="71.978" y="135.892" style="fill:#267F9B;" width="18.838" height="18.838"/>
		<rect x="71.978" y="98.213" style="fill:#267F9B;" width="18.838" height="18.838"/>
		<rect x="71.978" y="173.567" style="fill:#267F9B;" width="18.838" height="18.838"/>
		<rect x="53.138" y="154.728" style="fill:#267F9B;" width="18.838" height="18.838"/>
		<polygon style="fill:#267F9B;" points="34.302,173.568 19.772,173.509 17.233,154.67 34.302,154.729 		"/>
		<rect x="90.817" y="154.728" style="fill:#267F9B;" width="18.838" height="18.838"/>
		<rect x="109.657" y="98.213" style="fill:#267F9B;" width="18.838" height="18.838"/>
		<rect x="109.657" y="135.892" style="fill:#267F9B;" width="18.838" height="18.838"/>
		<rect x="109.657" y="173.567" style="fill:#267F9B;" width="18.838" height="18.838"/>
		<rect x="128.493" y="117.052" style="fill:#267F9B;" width="18.838" height="18.838"/>
		<rect x="128.493" y="154.728" style="fill:#267F9B;" width="18.838" height="18.838"/>
		<path style="fill:#267F9B;" d="M147.333,192.406h18.838v-18.838h-18.838V192.406z M180.309,173.509l2.438-18.838l-16.576,0.059
			v18.838L180.309,173.509z M187.624,116.994l-21.453,0.059v18.838l19.014-0.059L187.624,116.994z M147.333,98.214v18.838h18.838
			V98.214H147.333z M147.333,135.891v18.838h18.838v-18.838H147.333z"/>
	</g>
	<g>
		<path style="fill:#267F9B;" d="M153.534,184.617c-0.457,3.528-2.949,6.342-6.201,7.337v0.393h18.838v-18.779h-11.207
			L153.534,184.617z"/>
		<polygon style="fill:#267F9B;" points="159.841,135.891 157.403,154.729 166.171,154.729 166.171,135.891 		"/>
		<polygon style="fill:#267F9B;" points="187.624,116.994 166.171,117.052 166.171,135.891 185.186,135.832 		"/>
		<polygon style="fill:#267F9B;" points="166.171,154.729 166.171,173.568 180.309,173.509 182.397,157.375 182.747,154.67 		"/>
		<polygon style="fill:#267F9B;" points="164.717,98.214 162.279,117.052 166.171,117.052 166.171,98.214 		"/>
	</g>
	<polygon style="fill:#267F9B;" points="71.979,135.891 37.597,98.214 106.361,98.214 	"/>
	<polygon style="fill:#7DB2C3;" points="109.656,154.729 58.083,98.214 161.229,98.214 	"/>
	<path d="M191.839,73.201h-20.861l-9.61-44.583c-3.026-14.038-14.785-23.843-28.596-23.843H67.227
		c-13.811,0-25.57,9.805-28.596,23.843l-9.61,44.583H8.16c-3.955,0-7.174,3.218-7.174,7.174v13.424c0,3.718,2.843,6.783,6.469,7.138
		l6.961,53.783c0.002,0.109,0.009,0.218,0.024,0.327l0.465,3.445l3.428,26.486c0.751,5.807,5.734,10.187,11.591,10.187h3.804
		c0.186,0.039,0.378,0.059,0.575,0.059h18.838c0.197,0,0.389-0.021,0.575-0.059h17.688c0.186,0.039,0.378,0.059,0.575,0.059h18.839
		c0.197,0,0.389-0.021,0.575-0.059h17.688c0.186,0.039,0.378,0.059,0.575,0.059h18.838c0.197,0,0.389-0.021,0.575-0.059h17.688
		c0.186,0.039,0.378,0.059,0.575,0.059h18.839c0.197,0,0.389-0.021,0.575-0.059h3.329c5.856,0,10.839-4.38,11.591-10.187
		l10.877-84.041c3.626-0.355,6.469-3.42,6.469-7.138V80.375C199.013,76.419,195.794,73.201,191.839,73.201z M44.141,29.805
		c2.461-11.419,11.955-19.394,23.086-19.394h65.545c11.131,0,20.625,7.975,23.086,19.394l9.354,43.396h-6.651l-9.058-42.026
		c-1.81-8.397-8.69-14.261-16.73-14.261H67.227c-8.04,0-14.92,5.865-16.731,14.262l-9.058,42.025h-6.651L44.141,29.805z
		 M152.794,73.201H47.205l8.802-40.837c1.246-5.778,5.86-9.814,11.221-9.814h65.545c5.361,0,9.974,4.036,11.22,9.813L152.794,73.201
		z M20.493,157.763l-0.034-0.263l11.025,0.038v13.2l-9.246-0.038L20.493,157.763z M18.02,138.66l13.463,0.041v13.2l-11.755-0.041
		L18.02,138.66z M182.708,133.021l-13.718,0.043v-13.201l15.427-0.043L182.708,133.021z M37.12,138.709h13.202v13.202H37.12V138.709
		z M55.959,122.516l9.633,10.557h-9.633V122.516z M55.959,138.709h13.202v13.202H55.959V138.709z M86.078,133.072h-7.712
		l3.856-4.225L86.078,133.072z M74.797,138.709h13.202v13.202H74.797V138.709z M93.636,141.355l9.633,10.556h-9.633L93.636,141.355
		L93.636,141.355z M144.514,120.711v12.362h-11.281L144.514,120.711z M125.676,141.355v10.556h-9.633L125.676,141.355z
		 M131.312,138.709h13.202v13.202h-13.202V138.709z M150.151,138.709h13.202v13.202h-13.202V138.709z M163.353,133.072h-13.202
		V119.87h13.202V133.072z M163.353,114.234h-12.928l12.048-13.202h0.88V114.234z M109.656,150.548L84.325,122.79
		c0,0-0.001-0.001-0.001-0.001L64.47,101.032h41.891h40.971h7.51L109.656,150.548z M78.406,124.666l-6.428,7.044l-27.995-30.678
		h9.157h3.699L78.406,124.666z M48.401,114.234H37.12v-12.362L48.401,114.234z M50.322,119.871v13.202H37.12v-13.202H50.322z
		 M37.12,157.547h13.202v13.202H37.12V157.547z M55.959,157.547h13.202v13.202H55.959V157.547z M74.797,157.547h13.202v13.202
		H74.797V157.547z M93.636,157.547h13.202v13.202H93.635L93.636,157.547L93.636,157.547z M112.474,157.547h13.202v13.202h-13.202
		V157.547z M131.312,157.547h13.202v13.202h-13.202V157.547z M150.151,157.547h13.202v13.202h-13.202V157.547z M31.484,133.065
		l-14.193-0.043l-1.709-13.2l15.902,0.043L31.484,133.065L31.484,133.065z M37.12,189.529v-13.143h13.202v13.143H37.12z
		 M55.959,176.386h13.202v13.143H55.959V176.386z M74.797,189.529v-13.143h13.202v13.143H74.797z M93.636,176.386h13.202v13.143
		H93.635L93.636,176.386L93.636,176.386z M112.474,189.529v-13.143h13.202v13.143H112.474z M131.312,176.386h13.202v13.143h-13.202
		V176.386z M150.151,189.529v-13.143h13.202v13.143H150.151z M168.99,157.538l10.55-0.038l-1.709,13.201l-8.841,0.037V157.538z
		 M168.99,151.901v-13.2l12.989-0.04l-1.708,13.201L168.99,151.901z M185.146,114.182l-16.157,0.044v-13.254h17.866L185.146,114.182
		z M31.484,114.227l-16.632-0.045l-1.71-13.209h18.341V114.227z M23.922,184.254l-1.025-7.915l8.586,0.035v13.154h-1.561
		C26.891,189.529,24.311,187.262,23.922,184.254z M170.076,189.529h-1.086v-13.155l8.112-0.034l-1.024,7.914
		C175.688,187.262,173.108,189.529,170.076,189.529z M193.376,93.799c0,0.848-0.69,1.537-1.537,1.537h-1.776H9.936H8.16
		c-0.848,0-1.537-0.69-1.537-1.537V80.375c0-0.848,0.69-1.537,1.537-1.537h20.456h17.373h108.02h17.373h20.457
		c0.848,0,1.537,0.69,1.537,1.537L193.376,93.799L193.376,93.799z"/>
</g>
<g>
</g>
<g>
</g>
<g>
</g>
<g>
</g>
<g>
</g>
<g>
</g>
<g>
</g>
<g>
</g>
<g>
</g>
<g>
</g>
<g>
</g>
<g>
</g>
<g>
</g>
<g>
</g>
<g>
</g>
</svg>
