<?xml version="1.0" encoding="utf-8"?>
<!-- Generator: Adobe Illustrator 22.1.0, SVG Export Plug-In . SVG Version: 6.00 Build 0)  -->
<svg version="1.1" id="Calque_1" xmlns="http://www.w3.org/2000/svg" xmlns:xlink="http://www.w3.org/1999/xlink" x="0px" y="0px"
	 viewBox="0 0 200 200" style="enable-background:new 0 0 200 200;" xml:space="preserve">
<style type="text/css">
	.st0{fill:#759D59;}
	.st1{fill:#98BD7A;}
	.st2{fill:#A5C986;}
</style>
<g>
	<g>
		<polyline class="st0" points="17.9,123 4.8,123 4.8,50.7 165.7,50.7 165.7,63.9 		"/>
		<polyline class="st1" points="31.1,136.1 17.9,136.1 17.9,63.9 178.8,63.9 178.8,77 		"/>
		<rect x="31.1" y="77" class="st2" width="164.2" height="72.2"/>
		<path class="st1" d="M129.6,90.2h46c0,3.6,2.9,6.6,6.6,6.6v32.8c-3.6,0-6.6,2.9-6.6,6.6H50.7c0-3.6-2.9-6.6-6.6-6.6V96.7
			c3.6,0,6.6-2.9,6.6-6.6H129.6z M129.6,90.2"/>
		<path d="M4.8,126.3h9.9v9.8c0,1.8,1.5,3.3,3.3,3.3h9.8v9.8c0,1.8,1.5,3.3,3.3,3.3h164.2c1.8,0,3.3-1.5,3.3-3.3V77
			c0-1.8-1.5-3.3-3.3-3.3h-13.1v-9.8c0-1.8-1.5-3.3-3.3-3.3h-9.9v-9.8c0-1.8-1.5-3.3-3.3-3.3H4.8c-1.8,0-3.3,1.5-3.3,3.3V123
			C1.5,124.8,3,126.3,4.8,126.3L4.8,126.3z M191.9,80.3V146H34.3V80.3H191.9z M175.5,67.2v6.6H31.1c-1.8,0-3.3,1.5-3.3,3.3v55.8
			h-6.6V67.2H175.5z M8.1,54h154.3v6.6H17.9c-1.8,0-3.3,1.5-3.3,3.3v55.8H8.1V54z M8.1,54"/>
		<path d="M44.2,132.8c1.8,0,3.3,1.5,3.3,3.3c0,1.8,1.5,3.3,3.3,3.3h42.7c1.8,0,3.3-1.5,3.3-3.3c0-1.8-1.5-3.3-3.3-3.3h-40
			c-1-2.8-3.2-5-6-6V99.4c2.8-1,5-3.2,6-6h40c1.8,0,3.3-1.5,3.3-3.3c0-1.8-1.5-3.3-3.3-3.3H50.7c-1.8,0-3.3,1.5-3.3,3.3
			c0,1.8-1.5,3.3-3.3,3.3c-1.8,0-3.3,1.5-3.3,3.3v32.8C40.9,131.4,42.4,132.8,44.2,132.8L44.2,132.8z M44.2,132.8"/>
		<path d="M129.6,93.4h43.2c1,2.8,3.2,5,6,6v27.4c-2.8,1-5,3.2-6,6h-43.2c-1.8,0-3.3,1.5-3.3,3.3c0,1.8,1.5,3.3,3.3,3.3h46
			c1.8,0,3.3-1.5,3.3-3.3c0-1.8,1.5-3.3,3.3-3.3c1.8,0,3.3-1.5,3.3-3.3V96.7c0-1.8-1.5-3.3-3.3-3.3c-1.8,0-3.3-1.5-3.3-3.3
			c0-1.8-1.5-3.3-3.3-3.3h-46c-1.8,0-3.3,1.5-3.3,3.3C126.3,92,127.7,93.4,129.6,93.4L129.6,93.4z M129.6,93.4"/>
	</g>
	<g>
		<path d="M80.7,108.7h2.5c1.1,0,2.1,0.9,2.1,2.1v11.9c0,1.1,0.9,2.1,2.1,2.1h2.5c1.1,0,2.1-0.9,2.1-2.1v-11.9
			c0-1.1,0.9-2.1,2.1-2.1h2.5c1.1,0,2.1-0.9,2.1-2.1v-2c0-1.1-0.9-2.1-2.1-2.1H80.7c-1.1,0-2.1,0.9-2.1,2.1v2
			C78.7,107.8,79.6,108.7,80.7,108.7z"/>
		<path d="M111,110.3l-6.2-7.2c-0.2-0.3-0.6-0.4-1-0.4h-3.2c-0.7,0-1.3,0.6-1.3,1.3v19.6c0,0.7,0.6,1.3,1.3,1.3h4.1
			c0.7,0,1.3-0.6,1.3-1.3v-5.4c0-1.2,1.4-1.7,2.2-0.8l6.2,7c0.2,0.3,0.6,0.4,0.9,0.4h3.2c0.7,0,1.3-0.6,1.3-1.3v-19.6
			c0-0.7-0.6-1.3-1.3-1.3h-4.1c-0.7,0-1.3,0.6-1.3,1.3v5.6C113.2,110.6,111.8,111.2,111,110.3z"/>
		<path d="M139.5,105.7c-2.2-2-5.1-3.1-8.5-3.1h-6.6c-1.3,0-2.4,1.1-2.4,2.4v17.3c0,1.3,1.1,2.4,2.4,2.4h6.6c3.4,0,6.3-1,8.5-3.1
			c2.2-2.1,3.4-4.8,3.4-8C142.8,110.4,141.7,107.7,139.5,105.7z M136.1,113.6c0,1.4-0.5,2.6-1.5,3.6c-1,0.9-2.2,1.4-3.7,1.4l0,0
			c-1.3,0-2.4-1.1-2.4-2.4v-5.1c0-1.3,1.1-2.4,2.4-2.4l0,0c1.5,0,2.7,0.5,3.7,1.4C135.6,111.1,136.1,112.2,136.1,113.6z"/>
	</g>
</g>
</svg>
