<?xml version="1.0" encoding="utf-8"?>
<!-- Generator: Adobe Illustrator 22.1.0, SVG Export Plug-In . SVG Version: 6.00 Build 0)  -->
<svg version="1.1" id="Calque_1" xmlns="http://www.w3.org/2000/svg" xmlns:xlink="http://www.w3.org/1999/xlink" x="0px" y="0px"
	 viewBox="0 0 200 200" style="enable-background:new 0 0 200 200;" xml:space="preserve">
<style type="text/css">
	.st0{fill:#FDDFB1;}
	.st1{fill:#FBB03B;}
</style>
<g>
	<g>
		<rect x="5.5" y="49.4" class="st0" width="188.9" height="101.2"/>
		<path class="st1" d="M103.4,79.8H89.9V66.3h87.7v13.5H103.4z M103.4,79.8"/>
		<path d="M197.8,150.6V49.4c0-1.9-1.5-3.4-3.4-3.4H5.5c-1.9,0-3.4,1.5-3.4,3.4v101.2c0,1.9,1.5,3.4,3.4,3.4h188.9
			C196.3,154,197.8,152.5,197.8,150.6L197.8,150.6z M191.1,147.2H8.9V52.8h182.2V147.2z M191.1,147.2"/>
		<path d="M160.7,128.3v-4.7c0-1.9-1.5-3.4-3.4-3.4c-0.5,0-1,0.1-1.5,0.4l-15.4,7.7v-4.7c0-1.9-1.5-3.4-3.4-3.4
			c-0.5,0-1,0.1-1.5,0.4l-20.2,10.1l3,6l15.4-7.7v4.7c0,1.9,1.5,3.4,3.4,3.4c0.5,0,1.1-0.1,1.5-0.4l15.4-7.7v4.7
			c0,1.9,1.5,3.4,3.4,3.4c0.5,0,1.1-0.1,1.5-0.4l20.2-10.1l-3-6L160.7,128.3z M160.7,128.3"/>
		<rect x="22.4" y="76.4" width="47.2" height="6.7"/>
		<rect x="42.6" y="62.9" width="27" height="6.7"/>
		<rect x="52.8" y="113.5" width="47.2" height="6.7"/>
		<rect x="52.8" y="127" width="47.2" height="6.7"/>
		<rect x="73" y="100" width="27" height="6.7"/>
		<path d="M89.9,83.1h87.7c1.9,0,3.4-1.5,3.4-3.4V66.3c0-1.9-1.5-3.4-3.4-3.4H89.9c-1.9,0-3.4,1.5-3.4,3.4v13.5
			C86.5,81.6,88,83.1,89.9,83.1L89.9,83.1z M93.3,69.6h81v6.7h-81V69.6z M93.3,69.6"/>
		<rect x="29.2" y="62.9" width="6.7" height="6.7"/>
		<rect x="59.5" y="100" width="6.7" height="6.7"/>
		<rect x="120.2" y="100" width="6.7" height="6.7"/>
		<rect x="133.7" y="100" width="6.7" height="6.7"/>
		<rect x="147.2" y="100" width="6.7" height="6.7"/>
		<rect x="160.7" y="100" width="6.7" height="6.7"/>
		<rect x="174.2" y="100" width="6.7" height="6.7"/>
	</g>
	<g>
		<path d="M14.9,120.9h1.3c0.6,0,1.1,0.5,1.1,1.1v6.5c0,0.6,0.5,1.1,1.1,1.1h1.4c0.6,0,1.1-0.5,1.1-1.1V122c0-0.6,0.5-1.1,1.1-1.1
			h1.3c0.6,0,1.1-0.5,1.1-1.1v-1.1c0-0.6-0.5-1.1-1.1-1.1h-8.6c-0.6,0-1.1,0.5-1.1,1.1v1.1C13.7,120.4,14.3,120.9,14.9,120.9z"/>
		<path d="M31.5,121.7l-3.4-4c-0.1-0.2-0.3-0.2-0.5-0.2h-1.7c-0.4,0-0.7,0.3-0.7,0.7V129c0,0.4,0.3,0.7,0.7,0.7h2.3
			c0.4,0,0.7-0.3,0.7-0.7v-3c0-0.6,0.8-0.9,1.2-0.5l3.4,3.9c0.1,0.2,0.3,0.2,0.5,0.2h1.8c0.4,0,0.7-0.3,0.7-0.7v-10.8
			c0-0.4-0.3-0.7-0.7-0.7h-2.3c-0.4,0-0.7,0.3-0.7,0.7v3.1C32.7,121.9,31.9,122.2,31.5,121.7z"/>
		<path d="M47.1,119.2c-1.2-1.1-2.8-1.7-4.7-1.7h-3.7c-0.7,0-1.3,0.6-1.3,1.3v9.5c0,0.7,0.6,1.3,1.3,1.3h3.7c1.9,0,3.4-0.6,4.7-1.7
			c1.2-1.1,1.8-2.6,1.8-4.4C49,121.8,48.4,120.3,47.1,119.2z M45.3,123.6c0,0.8-0.3,1.4-0.8,2c-0.5,0.5-1.2,0.8-2,0.8l0,0
			c-0.7,0-1.3-0.6-1.3-1.3v-2.8c0-0.7,0.6-1.3,1.3-1.3l0,0c0.8,0,1.5,0.3,2,0.8C45,122.2,45.3,122.8,45.3,123.6z"/>
	</g>
</g>
</svg>
