<?xml version="1.0" encoding="utf-8"?>
<!-- Generator: Adobe Illustrator 22.1.0, SVG Export Plug-In . SVG Version: 6.00 Build 0)  -->
<svg version="1.1" id="Calque_1" xmlns="http://www.w3.org/2000/svg" xmlns:xlink="http://www.w3.org/1999/xlink" x="0px" y="0px"
	 viewBox="0 0 200 200" style="enable-background:new 0 0 200 200;" xml:space="preserve">
<style type="text/css">
	.st0{fill:#C79DD1;}
	.st1{fill:#FBB03B;}
	.st2{fill:#0071BC;}
</style>
<g>
	<path class="st0" d="M194.4,57.7v110.7H5.6V31.6h162.8L194.4,57.7z M194.4,57.7"/>
	<rect x="90.2" y="90.2" class="st1" width="87.9" height="19.5"/>
	<path class="st2" d="M168.4,31.6v26h26L168.4,31.6z M168.4,31.6"/>
	<path d="M194.4,171.6c1.8,0,3.3-1.5,3.3-3.3V57.7c0-0.9-0.3-1.7-1-2.3l-26-26c-0.6-0.6-1.4-1-2.3-1H5.6c-1.8,0-3.3,1.5-3.3,3.3
		v136.7c0,1.8,1.5,3.3,3.3,3.3H194.4z M8.8,77.2h37.7l-14,14l4.6,4.6l14-14v83.3H8.8V77.2z M25.1,53.6v-2.5h9
		c9.4,0,17.1,7.6,17.1,17.1v2.5h-9C32.8,70.7,25.1,63.1,25.1,53.6L25.1,53.6z M66.7,70.7h-9v-2.5c0-9.4,7.6-17.1,17.1-17.1h9v2.5
		C83.7,63.1,76.1,70.7,66.7,70.7L66.7,70.7z M57.7,165.1V81.8l14,14l4.6-4.6l-14-14h128.9v87.9H57.7z M171.6,39.5l14.9,14.9h-14.9
		V39.5z M168.4,60.9h22.8v9.8H82.9c4.7-4.4,7.4-10.6,7.4-17.1v-5.7c0-1.8-1.5-3.3-3.3-3.3H74.7c-6.5,0-12.6,2.7-17.1,7.4V34.9h107.4
		v22.8C165.1,59.5,166.6,60.9,168.4,60.9L168.4,60.9z M51.2,34.9V52c-4.4-4.7-10.6-7.4-17.1-7.4H21.9c-1.8,0-3.3,1.5-3.3,3.3v5.7
		c0,6.5,2.7,12.6,7.4,17.1H8.8V34.9H51.2z M51.2,34.9"/>
	<rect x="87" y="122.8" width="6.5" height="6.5"/>
	<rect x="100" y="122.8" width="81.4" height="6.5"/>
	<rect x="74" y="135.8" width="107.4" height="6.5"/>
	<rect x="74" y="148.8" width="94.4" height="6.5"/>
	<path d="M178.1,87H90.2c-1.8,0-3.3,1.5-3.3,3.3v19.5c0,1.8,1.5,3.3,3.3,3.3h87.9c1.8,0,3.3-1.5,3.3-3.3V90.2
		C181.4,88.4,179.9,87,178.1,87L178.1,87z M174.9,106.5H93.5v-13h81.4V106.5z M174.9,106.5"/>
</g>
</svg>
