<?xml version="1.0" encoding="utf-8"?>
<!-- Generator: Adobe Illustrator 22.1.0, SVG Export Plug-In . SVG Version: 6.00 Build 0)  -->
<svg version="1.1" id="Calque_1" xmlns="http://www.w3.org/2000/svg" xmlns:xlink="http://www.w3.org/1999/xlink" x="0px" y="0px"
	 viewBox="0 0 200 200" style="enable-background:new 0 0 200 200;" xml:space="preserve">
<style type="text/css">
	.st0{fill:#1C5F74;}
	.st1{fill:#267F9B;}
</style>
<g>
	<g>
		<path class="st0" d="M82.7,165.5c-0.2-0.6-0.3-1.2-0.2-1.6c0.1-0.4-0.2-0.8-0.8-1.1c-0.7-0.3-1-0.5-1-0.7c0-0.2-0.5-0.3-1.4-0.4
			c-0.9-0.1-1.4-0.1-1.4-0.1H40.3c-5.3,0-9.8-1.9-13.6-5.7c-3.8-3.8-5.7-8.3-5.7-13.6V57.6c0-5.3,1.9-9.8,5.7-13.6
			c3.8-3.8,8.3-5.7,13.6-5.7h38.5c1,0,1.9-0.3,2.5-0.8c0.6-0.5,1-1.3,1.2-2.3c0.2-1,0.3-2,0.4-2.8c0-0.8,0-1.9-0.1-3.2
			c-0.1-1.3-0.1-2.1-0.1-2.4c0-1-0.4-1.9-1.1-2.7c-0.8-0.8-1.7-1.1-2.7-1.1H40.3c-9.5,0-17.7,3.4-24.5,10.2
			C9,39.9,5.6,48.1,5.6,57.6v84.8c0,9.6,3.4,17.7,10.2,24.5c6.8,6.8,15,10.2,24.5,10.2h38.5c1,0,1.9-0.3,2.5-0.8
			c0.6-0.5,1-1.3,1.2-2.3c0.2-1,0.3-2,0.4-2.8c0-0.8,0-1.9-0.1-3.2C82.7,166.6,82.7,165.8,82.7,165.5L82.7,165.5z M82.7,165.5"/>
		<path d="M78.8,181.2H40.3c-10.6,0-19.8-3.8-27.4-11.4C5.3,162.2,1.5,153,1.5,142.4V57.6c0-10.6,3.8-19.8,11.4-27.4
			c7.5-7.5,16.8-11.4,27.4-11.4h38.5c2.1,0,4,0.8,5.6,2.3c1.5,1.5,2.4,3.5,2.4,5.6c0,0.1,0,0.8,0.1,2.2c0.1,1.3,0.1,2.6,0.1,3.6
			c-0.1,1.1-0.2,2.2-0.4,3.4c-0.5,2.4-1.6,3.9-2.5,4.6c-1.4,1.2-3.1,1.8-5.1,1.8H40.3c-4.2,0-7.7,1.5-10.7,4.5
			c-3,3-4.5,6.5-4.5,10.7v84.8c0,4.2,1.5,7.7,4.5,10.7c3,3,6.5,4.5,10.7,4.5H78l0.2,0c0,0,0.5,0,1.4,0.1c1.9,0.2,3.1,0.8,3.9,1.5
			c2.4,1.2,3.2,3.3,3,4.9l0.2,0.7v0.7c0,0.1,0,0.8,0.1,2.2c0.1,1.3,0.1,2.6,0.1,3.6c-0.1,1.1-0.2,2.2-0.4,3.4
			c-0.4,2-1.2,3.5-2.5,4.6C83,180.2,81.3,181.2,78.8,181.2z M40.3,27c-8.5,0-15.6,2.9-21.6,9c-6,6-9,13.1-9,21.6v84.8
			c0,8.5,2.9,15.6,9,21.6c6,6.1,13.1,9,21.6,9h38.2c0.1-0.8,0.2-1.5,0.3-2.1c0-0.7,0-1.7-0.1-2.7c-0.1-0.8-0.1-1.5-0.1-2
			c0-0.1-0.1-0.3-0.1-0.4c-0.4,0-0.7-0.1-0.8-0.1H40.3c-6.4,0-11.9-2.3-16.5-6.9c-4.5-4.5-6.9-10.1-6.9-16.5V57.6
			c0-6.4,2.3-11.9,6.9-16.5c4.6-4.6,10.1-6.9,16.5-6.9h38.2c0.1-0.8,0.2-1.5,0.3-2.1c0-0.7,0-1.7-0.1-2.7c-0.1-1.1-0.1-2-0.1-2.5
			H40.3z M86.4,164L86.4,164L86.4,164z M76.5,162.1C76.5,162.1,76.5,162.1,76.5,162.1C76.5,162.1,76.5,162.1,76.5,162.1z M78.4,34.7
			L78.4,34.7L78.4,34.7z"/>
	</g>
	<g>
		<path class="st1" d="M192.1,94.6l-65.5-65.5c-1.5-1.5-3.3-2.3-5.4-2.3c-2.1,0-3.9,0.8-5.4,2.3c-1.5,1.5-2.3,3.3-2.3,5.4v34.7h-54
			c-2.1,0-3.9,0.8-5.4,2.3c-1.5,1.5-2.3,3.3-2.3,5.4v46.3c0,2.1,0.8,3.9,2.3,5.4c1.5,1.5,3.3,2.3,5.4,2.3h54v34.7
			c0,2.1,0.8,3.9,2.3,5.4c1.5,1.5,3.3,2.3,5.4,2.3c2.1,0,3.9-0.8,5.4-2.3l65.5-65.5c1.5-1.5,2.3-3.3,2.3-5.4S193.7,96.1,192.1,94.6
			L192.1,94.6z M192.1,94.6"/>
		<path d="M121.2,177.3c-3.1,0-6-1.2-8.3-3.5c-2.3-2.3-3.5-5.2-3.5-8.3v-30.6H59.5c-3.1,0-6-1.2-8.3-3.5c-2.3-2.3-3.5-5.1-3.5-8.3
			V76.9c0-3.1,1.2-6,3.5-8.3c2.3-2.3,5.2-3.5,8.3-3.5h49.9V34.5c0-3.2,1.2-6,3.5-8.3c2.3-2.3,5.2-3.5,8.3-3.5c3.2,0,6,1.2,8.3,3.5
			L195,91.7c2.3,2.3,3.5,5.1,3.5,8.3c0,3.2-1.2,6-3.5,8.3l-65.5,65.5C127.2,176.1,124.4,177.3,121.2,177.3z M59.5,73.2
			c-1,0-1.8,0.3-2.5,1.1c-0.8,0.8-1.1,1.5-1.1,2.5v46.3c0,1,0.3,1.8,1.1,2.5c0.8,0.8,1.5,1.1,2.5,1.1h58v38.8c0,1,0.3,1.8,1.1,2.5
			c0.8,0.8,1.5,1.1,2.5,1.1c1,0,1.8-0.3,2.5-1.1l65.5-65.5c0.8-0.8,1.1-1.5,1.1-2.5c0-1-0.3-1.8-1.1-2.5l-65.5-65.5
			c-0.8-0.8-1.5-1.1-2.5-1.1c-1,0-1.8,0.3-2.5,1.1c-0.8,0.8-1.1,1.5-1.1,2.5v38.8H59.5z"/>
	</g>
</g>
</svg>
