<?xml version="1.0" encoding="utf-8"?>
<!-- Generator: Adobe Illustrator 22.0.0, SVG Export Plug-In . SVG Version: 6.00 Build 0)  -->
<svg version="1.1" id="Calque_1" xmlns="http://www.w3.org/2000/svg" xmlns:xlink="http://www.w3.org/1999/xlink" x="0px" y="0px"
	 viewBox="0 0 200 200" style="enable-background:new 0 0 200 200;" xml:space="preserve">
<style type="text/css">
	.st0{fill:#7DB2C3;}
	.st1{fill:#267F9B;}
	.st2{fill:#F2F2F2;}
	.st3{fill:#5199AF;}
</style>
<g>
	<rect x="66.7" y="36.7" class="st0" width="96.7" height="160"/>
	<polyline class="st1" points="66.7,36.7 36.7,3.3 36.7,163.3 66.7,196.7 	"/>
	<path class="st2" d="M83.3,161V50l6.7,3.3l6.7-3.3l6.7,3.3L110,50l6.7,3.3l6.7-3.3l6.7,3.3l6.7-3.3l6.7,3.3L150,50v63.1L83.3,161z
		 M83.3,161"/>
	<path class="st3" d="M80,196.7V160l48-47.9c1.3-1.4,3-2.1,4.9-2.1h30.4v86.7H80z M80,196.7"/>
	<path d="M68.2,33.3l-29-32.2c-1.2-1.4-3.3-1.5-4.7-0.3c-0.7,0.6-1.1,1.5-1.1,2.5v160c0,0.8,0.3,1.6,0.9,2.2l30,33.3c0,0,0,0,0.1,0
		c0.3,0.3,0.6,0.5,0.9,0.7c0.1,0,0.1,0.1,0.2,0.1c0.4,0.2,0.9,0.3,1.3,0.3h96.7c1.8,0,3.3-1.5,3.3-3.3v-160c0-1.8-1.5-3.3-3.3-3.3
		H68.2z M63.3,188L40,162.1V12L63.3,38V188z M160,193.3H83.3v-31.9l47.1-47c0.6-0.7,1.5-1.1,2.4-1.1H160V193.3z M86.7,148.6V55.4
		l1.8,0.9c0.9,0.5,2,0.5,3,0l5.2-2.6l5.2,2.6c0.9,0.5,2,0.5,3,0l5.2-2.6l5.2,2.6c0.9,0.5,2,0.5,3,0l5.2-2.6l5.2,2.6
		c0.9,0.5,2,0.5,3,0l5.2-2.6l5.2,2.6c0.9,0.5,2,0.5,3,0l1.8-0.9v51.3h-13.8c-2.7,0-5.3,1.1-7.2,3.1L86.7,148.6z M160,106.7h-6.7V50
		c0-1.8-1.5-3.3-3.3-3.3c-0.5,0-1,0.1-1.5,0.4l-5.2,2.6l-5.2-2.6c-0.9-0.5-2-0.5-3,0l-5.2,2.6l-5.2-2.6c-0.9-0.5-2-0.5-3,0l-5.2,2.6
		l-5.2-2.6c-0.9-0.5-2-0.5-3,0l-5.2,2.6L98.2,47c-0.9-0.5-2-0.5-3,0L90,49.6L84.8,47c-1.6-0.8-3.6-0.2-4.5,1.5
		C80.1,49,80,49.5,80,50v105.3l-2.4,2.3c-0.6,0.6-1,1.5-1,2.4v33.3H70V40h90V106.7z M160,106.7"/>
	<path d="M127,63.3h-26.9c-3.7,0-6.7,1.5-6.7,3.3s3,3.3,6.7,3.3H127c3.7,0,6.7-1.5,6.7-3.3S130.7,63.3,127,63.3L127,63.3z M127,63.3
		"/>
	<path d="M121.4,76.7H98.9c-3.1,0-5.6,1.5-5.6,3.3c0,1.8,2.5,3.3,5.6,3.3h22.4c3.1,0,5.6-1.5,5.6-3.3
		C127,78.2,124.5,76.7,121.4,76.7L121.4,76.7z M121.4,76.7"/>
	<path d="M121.4,90H98.9c-3.1,0-5.6,1.5-5.6,3.3c0,1.8,2.5,3.3,5.6,3.3h22.4c3.1,0,5.6-1.5,5.6-3.3C127,91.5,124.5,90,121.4,90
		L121.4,90z M121.4,90"/>
	<path d="M110,103.3H96.7c-1.8,0-3.3,1.5-3.3,3.3c0,1.8,1.5,3.3,3.3,3.3H110c1.8,0,3.3-1.5,3.3-3.3
		C113.3,104.8,111.8,103.3,110,103.3L110,103.3z M110,103.3"/>
	<path d="M103.3,116.7h-6.7c-1.8,0-3.3,1.5-3.3,3.3c0,1.8,1.5,3.3,3.3,3.3h6.7c1.8,0,3.3-1.5,3.3-3.3
		C106.7,118.2,105.2,116.7,103.3,116.7L103.3,116.7z M103.3,116.7"/>
</g>
</svg>
