<?xml version="1.0" encoding="utf-8"?>
<!-- Generator: Adobe Illustrator 22.0.0, SVG Export Plug-In . SVG Version: 6.00 Build 0)  -->
<svg version="1.1" id="Calque_1" xmlns="http://www.w3.org/2000/svg" xmlns:xlink="http://www.w3.org/1999/xlink" x="0px" y="0px"
	 viewBox="0 0 200 200" style="enable-background:new 0 0 200 200;" xml:space="preserve">
<style type="text/css">
	.st0{fill:#267F9B;}
	.st1{fill:#7DB2C3;}
	.st2{clip-path:url(#SVGID_2_);fill:#F4E09C;}
	.st3{clip-path:url(#SVGID_2_);}
</style>
<g>
	<path class="st0" d="M3.3,156.7h193.3c0,7.4-6,13.3-13.3,13.3H16.7C9.3,170,3.3,164.1,3.3,156.7L3.3,156.7z M3.3,156.7"/>
	<path class="st1" d="M6.7,156.7l4.2-21.2c5.7-28.6,24.8-52.6,51.2-64.8c24-11,51.7-11,75.7,0c26.5,12.1,45.5,36.2,51.2,64.8
		l4.2,21.2"/>
	<g>
		<defs>
			<rect id="SVGID_1_" y="26.6" width="200" height="146.9"/>
		</defs>
		<clipPath id="SVGID_2_">
			<use xlink:href="#SVGID_1_"  style="overflow:visible;"/>
		</clipPath>
		<path class="st2" d="M176.7,143.4c-1.7,0-3.1-1.3-3.3-3c-3.2-29.1-33-57.3-63.7-60.4c-1.8-0.2-3.2-1.8-3-3.6
			c0.2-1.8,1.8-3.2,3.7-3c34.1,3.4,66,33.8,69.6,66.3c0.2,1.8-1.1,3.5-2.9,3.7C176.9,143.4,176.8,143.4,176.7,143.4L176.7,143.4z
			 M176.7,143.4"/>
		<path class="st3" d="M16.7,173.4h166.7c9.2,0,16.7-7.5,16.7-16.7c0-1.8-1.5-3.3-3.3-3.3h-0.6l-3.7-18.5
			c-8.5-42.8-45.4-74.1-89-75.6v-6.3c7.1-1.8,11.4-9.1,9.6-16.2c-1.8-7.1-9.1-11.4-16.2-9.6c-7.1,1.8-11.4,9.1-9.6,16.2
			c1.2,4.7,4.9,8.4,9.6,9.6v6.3C53,60.7,16.2,92,7.6,134.8l-3.7,18.5H3.3c-1.8,0-3.3,1.5-3.3,3.3C0,165.9,7.5,173.3,16.7,173.4
			L16.7,173.4z M93.3,40c0-3.7,3-6.7,6.7-6.7c3.7,0,6.7,3,6.7,6.7c0,3.7-3,6.7-6.7,6.7C96.3,46.7,93.3,43.7,93.3,40L93.3,40z
			 M14.2,136.1c9.5-47.4,55.6-78.1,103-68.7c34.6,6.9,61.7,34,68.7,68.7l3.4,17.2H10.7L14.2,136.1z M192.8,160
			c-1.4,4-5.2,6.7-9.4,6.7H16.7c-4.2,0-8-2.7-9.4-6.7H192.8z M192.8,160"/>
	</g>
	<path d="M110.3,73.4c-1.8-0.2-3.5,1.2-3.7,3c-0.2,1.8,1.2,3.5,3,3.7c30.7,3.1,60.5,31.3,63.7,60.4c0.2,1.7,1.6,3,3.3,2.9
		c0.1,0,0.2,0,0.4,0c1.8-0.2,3.1-1.8,2.9-3.7C176.4,107.1,144.5,76.8,110.3,73.4L110.3,73.4z M110.3,73.4"/>
</g>
</svg>
