<?xml version="1.0" encoding="utf-8"?>
<!-- Generator: Adobe Illustrator 22.0.0, SVG Export Plug-In . SVG Version: 6.00 Build 0)  -->
<svg version="1.1" id="Calque_1" xmlns="http://www.w3.org/2000/svg" xmlns:xlink="http://www.w3.org/1999/xlink" x="0px" y="0px"
	 viewBox="0 0 200 200" style="enable-background:new 0 0 200 200;" xml:space="preserve">
<style type="text/css">
	.st0{opacity:0.21;}
	.st1{fill:none;}
	.st2{fill:#A4A4A4;}
	.st3{fill:#676767;}
	.st4{opacity:0.21;enable-background:new    ;}
</style>
<g>
	<g class="st0">
		<path class="st1" d="M127.6,40.2H77c-4.1,0-7.7,3.1-8.7,7.6l-6.8,31.5H143l-6.8-31.5C135.3,43.3,131.7,40.2,127.6,40.2z"/>
		<path class="st2" d="M153.1,96.4c0.1-0.4,0.2-0.8,0.2-1.2V84.8c0-0.4-0.1-0.8-0.2-1.2H144H60.6H47.1h-2.7L71,96.4H153.1z"/>
		<path class="st2" d="M30.2,95.2c0,0.7,0.5,1.2,1.2,1.2h1.4h11.6l-14.2-6.8C30.2,89.6,30.2,95.2,30.2,95.2z"/>
		<path class="st3" d="M153.4,95.2c0,0.4-0.1,0.8-0.2,1.2h18.7h1.4c0.7,0,1.2-0.5,1.2-1.2V84.8c0-0.7-0.5-1.2-1.2-1.2h-15.8h-4.2
			c0.1,0.4,0.2,0.8,0.2,1.2V95.2z"/>
		<polygon class="st2" points="88.5,122.3 85.6,125.5 91.5,125.5 		"/>
		<rect x="53.7" y="144.4" class="st2" width="10.2" height="10.2"/>
		<rect x="82.8" y="144.4" class="st2" width="10.2" height="10.2"/>
		<rect x="68.3" y="129.9" class="st2" width="10.2" height="10.2"/>
		<rect x="68.3" y="159" class="st2" width="10.2" height="10.1"/>
		<rect x="53.7" y="115.3" class="st2" width="10.2" height="10.2"/>
		<polygon class="st2" points="97.3,131.9 97.3,140.1 104.8,140.1 		"/>
		<polygon class="st2" points="144.5,144.4 141,144.4 141,154.6 145,154.6 146.2,145.2 		"/>
		<polygon class="st2" points="40.3,140 49.4,140.1 49.4,129.9 39,129.9 		"/>
		<polygon class="st2" points="36.5,110.9 49.4,111 49.4,100.8 35.2,100.8 		"/>
		<path class="st2" d="M43.5,165.1c0.3,2.3,2.3,4.1,4.6,4.1h1.2V159l-6.6,0L43.5,165.1z"/>
		<polygon class="st2" points="141,125.5 148.7,125.5 150.1,115.3 141,115.3 		"/>
		<rect x="111.9" y="144.4" class="st2" width="10.2" height="10.2"/>
		<polygon class="st2" points="126.4,140.1 135.5,140.1 126.4,135.8 		"/>
		<rect x="126.4" y="159" class="st2" width="10.2" height="10.1"/>
		<rect x="97.3" y="159" class="st2" width="10.2" height="10.1"/>
		<polygon class="st2" points="151.2,125.5 151.2,115.3 150.1,115.3 148.7,125.5 		"/>
		<polygon class="st2" points="151.2,147.6 146.2,145.2 145,154.6 151.2,154.6 		"/>
		<polygon class="st2" points="169.3,100.8 155.5,100.8 155.5,111 168,110.9 		"/>
		<path class="st2" d="M161,165.1l0.8-6.1l-6.3,0v10.2h0.8C158.7,169.1,160.7,167.4,161,165.1z"/>
		<polygon class="st2" points="164.2,140 165.6,129.9 155.5,129.9 155.5,136.9 162,140.1 		"/>
		<path class="st2" d="M68.9,38.7c2.2-1.8,5-2.9,8-2.9h50.6c6.2,0,11.5,4.5,12.9,11l7,32.4h3.1l-7.3-34c-1.2-5.4-4.2-9.9-8.2-12.9
			c-2.3-1.1-4.8-1.7-7.5-1.7H77c-8.6,0-15.9,6.2-17.8,15l-7.2,33.5H55l6.9-32C62.8,43.2,65.5,40.1,68.9,38.7z"/>
		<path class="st3" d="M64,46.9c0.7-3.4,2.5-6.2,4.9-8.1c-3.5,1.3-6.1,4.5-7,8.6l-6.9,32h2L64,46.9z"/>
		<path class="st3" d="M143.3,45.3l7.3,34h2l-7.2-33.5c-1.3-6.1-5.2-10.9-10.4-13.3C139.1,35.4,142.1,39.9,143.3,45.3z"/>
		<polygon class="st2" points="53.7,111 62.4,111 53.7,101.4 		"/>
		<rect x="53.7" y="129.9" class="st2" width="10.2" height="10.2"/>
		<rect x="53.7" y="159" class="st2" width="10.2" height="10.1"/>
		<polygon class="st2" points="38.4,125.5 49.4,125.5 49.4,115.3 37.1,115.3 		"/>
		<polygon class="st2" points="75.7,125.5 68.3,117.4 68.3,125.5 		"/>
		<rect x="82.8" y="129.9" class="st2" width="10.2" height="10.2"/>
		<rect x="82.8" y="159" class="st2" width="10.2" height="10.1"/>
		<rect x="68.3" y="144.4" class="st2" width="10.2" height="10.2"/>
		<polygon class="st2" points="42.2,154.6 49.4,154.6 49.4,144.4 40.8,144.4 40.9,144.6 		"/>
		<rect x="97.3" y="144.4" class="st2" width="10.2" height="10.2"/>
		<polygon class="st2" points="122.1,140.1 122.1,133.7 121,133.1 114.6,140.1 		"/>
		<rect x="111.9" y="159" class="st2" width="10.2" height="10.1"/>
		<polygon class="st2" points="136.6,125.5 136.6,116 129.1,124.3 131.8,125.5 		"/>
		<rect x="126.4" y="144.4" class="st2" width="10.2" height="10.2"/>
		<path class="st2" d="M142,168.9c0.2-0.2,0.4-0.5,0.5-0.7c0,0,0-0.1,0.1-0.1c0.1-0.2,0.3-0.5,0.4-0.7c0,0,0-0.1,0.1-0.1
			c0.1-0.3,0.2-0.5,0.3-0.8c0-0.1,0-0.1,0.1-0.2c0.1-0.3,0.1-0.6,0.2-0.9c0,0,0,0,0,0l0.8-6.4H141v10.1h0.8
			C141.8,169.1,141.9,169,142,168.9C142,168.9,142,168.9,142,168.9z"/>
		<polygon class="st3" points="150.5,100.8 141.2,111 150.6,111 151.2,106.8 151.2,100.8 		"/>
		<polygon class="st2" points="148.2,129.9 141,129.9 141,130 147.8,133.2 		"/>
		<path class="st3" d="M142,168.9C142,168.9,142,168.9,142,168.9C142,168.9,142,168.9,142,168.9z"/>
		<polygon class="st3" points="143.6,165.3 143.6,165.3 143.6,165.3 144.4,159 144.4,159 		"/>
		<path class="st3" d="M142.6,168.1C142.6,168.1,142.6,168.1,142.6,168.1C142.6,168.1,142.6,168.1,142.6,168.1z"/>
		<path class="st3" d="M143.4,166.2c0,0.1,0,0.1-0.1,0.2C143.4,166.3,143.4,166.3,143.4,166.2z"/>
		<path class="st3" d="M143.1,167.2c0,0,0,0.1-0.1,0.1C143,167.3,143,167.3,143.1,167.2z"/>
		<polygon class="st3" points="147.8,133.2 147.8,133.2 148.2,129.9 148.2,129.9 		"/>
		<path class="st3" d="M143.6,165.3c0,0.3-0.1,0.6-0.2,0.9C143.5,165.9,143.6,165.6,143.6,165.3z"/>
		<path class="st3" d="M143.4,166.4c-0.1,0.3-0.2,0.6-0.3,0.8C143.2,167,143.3,166.7,143.4,166.4z"/>
		<path class="st3" d="M142.6,168.1c-0.2,0.2-0.3,0.5-0.5,0.7C142.2,168.6,142.4,168.4,142.6,168.1z"/>
		<path class="st3" d="M143,167.3c-0.1,0.2-0.2,0.5-0.4,0.7C142.8,167.8,142.9,167.6,143,167.3z"/>
		<path class="st3" d="M141.8,169.1L141.8,169.1c0.1-0.1,0.1-0.1,0.2-0.2C141.9,169,141.8,169.1,141.8,169.1z"/>
		<path class="st2" d="M143.6,165.3c0,0.3-0.1,0.6-0.2,0.9c0,0.1,0,0.1-0.1,0.2c-0.1,0.3-0.2,0.6-0.3,0.8c0,0,0,0.1-0.1,0.1
			c-0.1,0.2-0.2,0.5-0.4,0.7c0,0,0,0.1-0.1,0.1c-0.2,0.2-0.3,0.5-0.5,0.7c0,0-0.1,0.1-0.1,0.1c-0.1,0.1-0.1,0.1-0.2,0.2h9.4V159
			h-6.8L143.6,165.3C143.6,165.3,143.6,165.3,143.6,165.3z"/>
		<polygon class="st2" points="151.2,134.8 151.2,129.9 148.2,129.9 147.8,133.2 		"/>
		<polygon class="st2" points="167.4,115.3 155.5,115.3 155.5,125.5 166.1,125.5 		"/>
		<polygon class="st2" points="162.4,154.6 162.6,153.1 155.5,149.7 155.5,154.6 		"/>
		<polygon class="st3" points="150.6,111 151.2,106.8 151.2,106.8 		"/>
		<polygon class="st3" points="151.2,111 151.2,106.8 150.6,111 		"/>
		<polygon class="st3" points="80.6,124.5 80.6,124.5 85.6,119 80.9,113.9 80.6,113.8 		"/>
		<polygon class="st3" points="66.1,106.8 66.1,108.5 70.3,113.2 79.3,113.2 		"/>
		<polygon class="st3" points="63.3,105.5 66.1,108.5 66.1,106.8 		"/>
		<polygon class="st3" points="79.3,113.2 70.3,113.2 80.6,124.5 80.6,113.8 		"/>
		<polygon class="st2" points="109.7,115 124.3,121.9 124.3,113.2 133.3,113.2 138.8,107.2 138.8,100.8 138.8,100.8 124.3,100.8 
			124.3,113.2 109.7,113.2 109.7,100.8 107.2,100.8 105.2,100.8 97.6,109.1 106,113.2 109.7,113.2 		"/>
		<polygon class="st2" points="91.4,119 95.2,123.1 95.2,120.8 		"/>
		<polygon class="st2" points="109.7,127.7 99.4,127.7 109.7,139 109.7,139 109.7,127.7 		"/>
		<polygon class="st2" points="95.2,120.8 95.2,123.1 99.4,127.7 109.7,127.7 		"/>
		<polygon class="st2" points="109.7,113.2 106,113.2 109.7,115 		"/>
		<rect x="109.7" y="100.8" class="st2" width="14.5" height="12.4"/>
		<polygon class="st2" points="109.7,139 116.9,131.2 109.7,127.7 		"/>
		<polygon class="st2" points="124.3,113.2 124.3,121.9 125,122.3 133.3,113.2 		"/>
		<polygon class="st2" points="144.6,100.8 138.8,100.8 138.8,107.2 		"/>
		<polygon class="st2" points="95.2,100.8 95.2,108 97.6,109.1 105.2,100.8 		"/>
		<polygon class="st2" points="80.6,100.8 80.2,100.8 80.6,101 		"/>
		<polygon class="st2" points="95.2,108 95.2,100.8 80.6,100.8 80.6,101 		"/>
		<path d="M163.2,165.3c-0.4,3.4-3.3,6-6.8,6h-3v0h-14.5v0h-14.5v0h-14.5v0H95.2v0H80.6v0H66.1v0H51.5v0h-3.4c-3.4,0-6.3-2.6-6.8-6
			l-2.6-20.4l-0.4-2.7h0l-1.9-14.5l0,0l-1.9-14.5l0,0l-1.9-14.5h-1.4c-1.9,0-3.4-1.5-3.4-3.4v-6.7l-2.2-1v7.7c0,2.9,2.2,5.2,5,5.5
			l5.4,41.5c0,0.1,0,0.2,0,0.3l0.4,2.7l2.6,20.5c0.6,4.5,4.4,7.9,8.9,7.9h2.9c0.1,0,0.3,0,0.4,0h14.5c0.2,0,0.3,0,0.4,0h13.7
			c0.1,0,0.3,0,0.4,0h14.5c0.2,0,0.3,0,0.4,0h13.7c0.1,0,0.3,0,0.4,0h14.5c0.2,0,0.3,0,0.4,0h13.7c0.1,0,0.3,0,0.4,0h14.5
			c0.2,0,0.3,0,0.4,0h2.6c4.5,0,8.4-3.4,8.9-7.9l1.4-10.6l-2.1-1L163.2,165.3z"/>
		<path d="M49.3,81.5c0-0.3,0-0.7,0.1-1L57,45.3c2.1-9.8,10.3-16.7,20-16.7h46.4h4.3c9.6,0,17.8,6.9,20,16.7l7.6,35.2
			c0.1,0.3,0.1,0.7,0.1,1h18c1.9,0,3.4,1.5,3.4,3.4v10.4c0,1.9-1.5,3.4-3.4,3.4h-1.4l-5.6,43.5l2.1,1l5.5-42.3c2.8-0.3,5-2.6,5-5.5
			V84.8c0-3.1-2.5-5.5-5.5-5.5h-16.1l-7.4-34.4c-2.3-10.8-11.4-18.4-22.1-18.4H77c-10.7,0-19.7,7.6-22.1,18.4l-7.4,34.4H35.4
			l4.5,2.2H49.3z"/>
		<path d="M127.6,38H77c-5.2,0-9.6,3.8-10.8,9.3l-7.4,34.2h86.9l-7.4-34.2C137.2,41.8,132.7,38,127.6,38z M61.5,79.3l6.8-31.5
			c1-4.5,4.5-7.6,8.7-7.6h50.6c4.1,0,7.7,3.1,8.7,7.6l6.8,31.5L61.5,79.3L61.5,79.3z"/>
		<path d="M75.5,98.6H150c1.4,0,2.7-0.9,3.1-2.2H71L75.5,98.6z"/>
		<path d="M47.1,83.7h13.4H144h9.2c-0.5-1.3-1.7-2.2-3.1-2.2h-4.3H58.8h-4.3h-5.2h-9.4l4.5,2.2H47.1z"/>
		<path d="M44.4,96.4H32.7h-1.4c-0.7,0-1.2-0.5-1.2-1.2v-5.6l-2.2-1v6.7c0,1.9,1.5,3.4,3.4,3.4h1.4h16.2L44.4,96.4z"/>
		<path d="M150.9,81.5h-1c1.4,0,2.7,0.9,3.1,2.2h4.2h15.8c0.7,0,1.2,0.5,1.2,1.2v10.4c0,0.7-0.5,1.2-1.2,1.2h-1.4h-18.7
			c-0.5,1.3-1.7,2.2-3.1,2.2h2.2h19.6l0,0h1.4c1.9,0,3.4-1.5,3.4-3.4V84.8c0-1.9-1.5-3.4-3.4-3.4h-18l0,0H150.9z"/>
		<path d="M164.3,156.8L164.3,156.8l-1.1,8.6c-0.4,3.4-3.3,6-6.8,6h-3l0,0h3c3.4,0,6.4-2.6,6.8-6l1.5-11.3l0,0L164.3,156.8z"/>
		<path d="M136.8,171.3c0.7,0,1.4-0.1,2-0.3v-14.2h5.9l0.3-2.2h-4v-10.2h3.5l-4.5-2.2h-1.2v-0.6l-3.4-1.6h-9v-4.3l-2.2-1v7.5h14.5
			v14.5h-14.5v-14.5h-14.5v0l0,0l0,0v14.5H95.2v-14.5h14.5l-13.3-14.5h-1.3v-1.4l-6.6-7.3l-7.9,8.7l0,0v0H66.1v-14.5h1.3l-1.3-1.4
			v1.4H51.5V99.8l-2.6-1.3H32.7l1.9,14.5l16.9,0v14.5l-15,0l1.9,14.5l13.2,0v14.5l-11.2,0l-1.6-11.9l2.6,20.4c0.4,3.4,3.3,6,6.8,6
			h3.4v-14.5h14.5v14.5h14.5v-14.5h14.5v14.5h14.5v-14.5h14.5v14.5h14.5l0,0L136.8,171.3L136.8,171.3z M97.3,131.9l7.4,8.2h-7.4
			V131.9z M49.4,111l-12.8,0l-1.3-10.2h14.2L49.4,111L49.4,111z M49.4,140.1l-9.1,0L39,129.9l10.4,0V140.1z M49.4,169.1h-1.2
			c-2.3,0-4.3-1.8-4.6-4.1l-0.8-6.1l6.6,0L49.4,169.1L49.4,169.1z M68.3,129.9h10.2v10.2H68.3V129.9z M53.7,115.3h10.2v10.2H53.7
			V115.3z M63.9,154.6H53.7v-10.2h10.2V154.6z M78.4,169.1H68.3V159h10.2L78.4,169.1L78.4,169.1z M80.6,156.8H66.1v-14.5H51.5v-14.5
			h14.5v14.5h14.5V156.8z M88.5,122.3l3,3.3h-6L88.5,122.3z M93,154.6H82.8v-10.2H93V154.6z M95.2,142.3H80.6v-14.5h14.5V142.3z
			 M107.5,169.1H97.3V159h10.2L107.5,169.1L107.5,169.1z M122.1,154.6h-10.2v-10.2h10.2V154.6z M136.6,169.1h-10.2V159h10.2V169.1z"
			/>
		<polygon points="75.6,98.6 80.6,98.6 80.6,98.6 95.2,98.6 95.2,98.6 107.2,98.6 109.7,98.6 109.7,98.6 124.3,98.6 124.3,98.6 
			138.8,98.6 149.5,98.6 152.2,98.6 152.2,98.6 152.2,98.6 150,98.6 75.5,98.6 		"/>
		<polygon points="171.8,98.6 169.9,113.1 169.9,113.1 168,127.7 168,127.7 166.2,142 166.2,142 171.8,98.6 		"/>
		<polygon points="148.5,127.7 148.7,125.5 141,125.5 141,115.3 150.1,115.3 150.3,113.2 150.3,113.2 138.8,113.2 138.8,110.4 
			136.3,113.2 138.8,113.2 138.8,127.7 136.3,127.7 138.8,128.9 138.8,127.7 		"/>
		<polygon points="150.1,115.3 151.2,115.3 151.2,125.5 148.7,125.5 148.5,127.7 148.5,127.7 153.4,127.7 153.4,113.2 153.4,113.2 
			150.3,113.2 		"/>
		<path d="M138.8,171c-0.6,0.2-1.3,0.3-2,0.3h2V171L138.8,171z"/>
		<polygon points="153.4,148.7 151.2,147.6 151.2,154.6 145,154.6 144.7,156.8 153.4,156.8 		"/>
		<path d="M152.2,98.6h1.1v14.5l16.6,0l1.9-14.5L152.2,98.6L152.2,98.6z M155.5,100.8h13.8l-1.3,10.2l-12.5,0L155.5,100.8
			L155.5,100.8z"/>
		<path d="M153.4,171.3h3c3.4,0,6.4-2.6,6.8-6l1.1-8.6l-10.9,0V171.3z M155.5,159l6.3,0l-0.8,6.1c-0.3,2.3-2.3,4.1-4.6,4.1h-0.8
			L155.5,159L155.5,159z"/>
		<polygon points="153.4,127.7 153.4,135.9 155.5,136.9 155.5,129.9 165.6,129.9 164.2,140 162,140.1 166.2,142 168,127.7 
			168,127.7 		"/>
		<path d="M150.8,80.5l-0.3-1.2h-3.1l-7-32.4c-1.4-6.5-6.7-11-12.9-11H77c-3,0-5.8,1.1-8,2.9c1.2-0.5,2.4-0.7,3.8-0.7H77h50.6
			c5.2,0,9.6,3.8,10.8,9.3l7.4,34.2h4.3h1C150.9,81.2,150.9,80.8,150.8,80.5z"/>
		<path d="M155.2,81.5L155.2,81.5c0-0.3,0-0.7-0.1-1l-7.6-35.2l7.6,35.2C155.2,80.8,155.2,81.2,155.2,81.5z"/>
		<path d="M55,79.3h-3.1l7.2-33.5c1.9-8.8,9.2-15,17.8-15h50.6c2.6,0,5.2,0.6,7.5,1.7c-3.3-2.4-7.4-3.8-11.7-3.8H77
			c-9.6,0-17.8,6.9-20,16.7l-7.6,35.2c-0.1,0.3-0.1,0.7-0.1,1h5.2L55,79.3z"/>
		<path d="M77,38h-4.3c-1.3,0-2.6,0.2-3.8,0.7c-2.4,2-4.2,4.8-4.9,8.1l-7,32.4h-2l-0.5,2.2h4.3l7.4-34.2C67.3,41.8,71.8,38,77,38z"
			/>
		<path d="M145.4,45.8l7.2,33.5h-2l0.3,1.2c0.1,0.3,0.1,0.7,0.1,1h4.3c0-0.3,0-0.7-0.1-1l-7.6-35.2c-2.1-9.8-10.3-16.7-20-16.7h-4.3
			c4.3,0,8.4,1.4,11.7,3.8C140.2,34.9,144.1,39.7,145.4,45.8z"/>
		<path d="M51.5,99.8v13.3h14.5v-1.4l-8-8.8L51.5,99.8z M53.7,111v-9.5l8.7,9.5H53.7z"/>
		<path d="M66.1,142.3v-14.5H51.5v14.5L66.1,142.3L66.1,142.3L66.1,142.3z M63.9,140.1H53.7v-10.2h10.2V140.1z"/>
		<rect x="51.5" y="171.3" width="14.5" height="0"/>
		<path d="M51.5,156.8v14.5h14.5v-14.5H51.5z M53.7,169.1V159h10.2v10.1H53.7z"/>
		<polygon points="34.6,113.1 36.5,127.7 36.5,127.7 34.6,113.1 		"/>
		<path d="M51.5,113.2l-16.9,0l1.9,14.5l15,0L51.5,113.2L51.5,113.2z M49.4,125.5l-11,0l-1.3-10.2l12.3,0L49.4,125.5z"/>
		<path d="M66.1,113.2v14.5h14.5v0l-13.3-14.5H66.1z M75.7,125.5h-7.4v-8.2L75.7,125.5z"/>
		<polygon points="95.2,127.7 96.4,127.7 95.2,126.3 		"/>
		<path d="M80.6,142.3h14.5v-14.5H80.6V142.3z M82.8,129.9H93v10.2H82.8V129.9z"/>
		<rect x="80.6" y="98.6" width="14.5" height="0"/>
		<rect x="80.6" y="171.3" width="14.5" height="0"/>
		<path d="M80.6,156.8v14.5h14.5v-14.5H80.6z M82.8,169.1V159H93v10.1H82.8z"/>
		<path d="M66.1,142.3L66.1,142.3l0,14.5h14.5v-14.5L66.1,142.3L66.1,142.3z M78.4,144.4v10.2H68.3v-10.2H78.4z"/>
		<rect x="66.1" y="142.3" width="0" height="0"/>
		<polygon points="38.4,142.2 38.7,144.9 38.4,142.2 		"/>
		<path d="M51.5,156.8v-14.5l-13.2,0l0.3,2.7l1.6,11.9L51.5,156.8z M49.4,144.4v10.2l-7.1,0l-1.3-10l0-0.2L49.4,144.4z"/>
		<path d="M95.2,142.3v14.5h14.5v-14.5l0,0L95.2,142.3L95.2,142.3z M107.5,154.6H97.3v-10.2h10.2L107.5,154.6L107.5,154.6z"/>
		<rect x="109.7" y="98.6" width="14.5" height="0"/>
		<polygon points="122.1,140.1 114.6,140.1 121,133.1 118.9,132.2 109.7,142.3 109.7,142.3 124.3,142.3 124.3,142.3 124.3,142.3 
			124.3,134.7 122.1,133.7 		"/>
		<rect x="109.7" y="171.3" width="14.5" height="0"/>
		<path d="M109.7,156.8v14.5h14.5v-14.5H109.7z M111.9,169.1V159h10.2v10.1H111.9z"/>
		<polygon points="138.8,113.2 136.3,113.2 127,123.3 129.1,124.3 136.6,116 136.6,125.5 131.8,125.5 136.3,127.7 138.8,127.7 		"/>
		<path d="M124.3,142.3v14.5h14.5v-14.5L124.3,142.3L124.3,142.3L124.3,142.3z M126.4,144.4h10.2v10.2h-10.2V144.4z"/>
		<rect x="124.3" y="142.3" width="0" height="0"/>
		<rect x="138.8" y="171.3" width="14.5" height="0"/>
		<polygon points="148.2,129.9 148.5,127.7 138.8,127.7 138.8,128.9 141,130 141,129.9 		"/>
		<path d="M164.3,156.8L164.3,156.8L164.3,156.8z"/>
		<polygon points="138.8,142.3 140,142.3 138.8,141.7 		"/>
		<polygon points="138.8,113.2 150.3,113.2 150.6,111 141.2,111 150.5,100.8 151.2,100.8 151.2,106.8 152.2,98.6 149.5,98.6 
			138.8,110.4 		"/>
		<path d="M140.5,170.2C140.6,170.2,140.6,170.2,140.5,170.2c0.5-0.3,0.9-0.7,1.3-1.1H141V159h3.4l0.3-2.2h-5.9V171c0,0,0,0,0,0
			C139.4,170.8,140,170.5,140.5,170.2z"/>
		<polygon points="148.2,129.9 148.5,127.7 148.5,127.7 148.2,129.9 		"/>
		<polygon points="153.4,156.8 153.4,156.8 164.3,156.8 164.3,156.8 		"/>
		<path d="M153.4,127.7l14.7,0L153.4,127.7z"/>
		<path d="M140.6,170.1C140.6,170.2,140.6,170.2,140.6,170.1C140.6,170.2,140.6,170.2,140.6,170.1z"/>
		<polygon points="138.8,171 138.8,171 138.8,171 		"/>
		<polygon points="144.4,159 144.7,156.8 153.4,156.8 153.4,156.8 144.7,156.8 		"/>
		<polygon points="138.8,171.3 153.4,171.3 153.4,171.3 		"/>
		<path d="M140.6,170.1c0.4-0.3,0.8-0.6,1.2-1h0C141.4,169.5,141,169.9,140.6,170.1z"/>
		<path d="M140.5,170.2c-0.5,0.3-1.1,0.6-1.7,0.8C139.4,170.8,140,170.5,140.5,170.2z"/>
		<path d="M144.7,156.8l-0.3,2.2h6.8v10.1h-9.4c-0.4,0.4-0.8,0.7-1.2,1c0,0,0,0-0.1,0c-0.5,0.3-1.1,0.6-1.7,0.8c0,0,0,0,0,0v0.3
			h14.5v-14.5H144.7z"/>
		<polygon points="148.5,127.7 148.2,129.9 151.2,129.9 151.2,134.8 153.4,135.9 153.4,127.7 153.4,127.7 		"/>
		<polygon points="168,127.7 168,127.7 168,127.7 169.9,113.1 		"/>
		<path d="M169.9,113.1L169.9,113.1L169.9,113.1z"/>
		<polygon points="153.4,113.2 169.9,113.1 169.9,113.1 153.4,113.2 		"/>
		<polygon points="168,127.7 168,127.7 168,127.7 		"/>
		<polygon points="168,127.7 168,127.7 169.9,113.1 169.9,113.1 		"/>
		<path d="M168,127.7L168,127.7l1.9-14.5l-16.6,0v14.5L168,127.7z M155.5,115.3l11.9,0l-1.3,10.2l-10.6,0V115.3z"/>
		<polygon points="164.3,156.8 164.6,154.1 164.6,154.1 		"/>
		<polygon points="164.6,154.1 164.3,156.8 164.3,156.8 164.6,154.1 		"/>
		<polygon points="162.4,154.6 155.5,154.6 155.5,149.7 153.4,148.7 153.4,156.8 164.3,156.8 164.6,154.1 162.6,153.1 		"/>
		<polygon points="150.3,113.2 150.3,113.2 150.6,111 150.6,111 		"/>
		<polygon points="151.2,106.8 151.2,106.8 152.2,98.6 152.2,98.6 		"/>
		<polygon points="151.2,111 150.6,111 150.3,113.2 153.4,113.2 153.4,98.6 152.2,98.6 151.2,106.8 		"/>
		<polygon points="66.1,108.5 66.1,111.8 67.4,113.2 70.3,113.2 		"/>
		<polygon points="80.9,113.9 85.6,119 80.6,124.5 80.6,124.5 80.6,127.7 80.6,127.7 88.5,119 86.2,116.4 		"/>
		<polygon points="63.3,105.5 58,103 66.1,111.8 66.1,108.5 		"/>
		<polygon points="70.3,113.2 67.4,113.2 80.6,127.7 80.6,124.5 		"/>
		<polygon points="138.8,100.8 138.8,100.8 138.8,98.6 124.3,98.6 124.3,100.8 		"/>
		<polygon points="91.4,119 89.5,118 88.5,119 95.2,126.3 95.2,123.1 		"/>
		<polygon points="133.3,113.2 136.3,113.2 138.8,110.4 138.8,107.2 		"/>
		<polygon points="107.2,100.8 109.7,100.8 109.7,98.6 107.2,98.6 105.2,100.8 		"/>
		<polygon points="109.7,139 99.4,127.7 96.4,127.7 109.7,142.3 109.7,142.3 109.7,142.3 109.7,142.3 109.7,142.3 109.7,139 		"/>
		<polygon points="95.2,123.1 95.2,126.3 96.4,127.7 99.4,127.7 		"/>
		<polygon points="109.7,142.3 109.7,142.3 109.7,142.3 		"/>
		<rect x="109.7" y="98.6" width="14.5" height="2.2"/>
		<polygon points="116.9,131.2 109.7,139 109.7,142.3 118.9,132.2 		"/>
		<polygon points="125,122.3 127,123.3 136.3,113.2 133.3,113.2 		"/>
		<polygon points="144.6,100.8 138.8,107.2 138.8,110.4 149.5,98.6 138.8,98.6 138.8,100.8 		"/>
		<polygon points="86.2,116.4 88.5,119 89.5,118 		"/>
		<polygon points="80.6,100.8 80.6,98.6 75.6,98.6 80.2,100.8 		"/>
		<polygon points="105.2,100.8 107.2,98.6 95.2,98.6 95.2,100.8 		"/>
		<rect x="80.6" y="98.6" width="14.5" height="2.2"/>
		<polygon points="166.2,142.2 166.2,142.2 166.2,142.2 		"/>
		<polygon points="166.2,142.2 166.2,142.2 166.1,142.2 		"/>
	</g>
	
		<rect x="97.7" y="3.7" transform="matrix(0.4324 -0.9017 0.9017 0.4324 -45.0005 154.2288)" class="st4" width="4.6" height="218.4"/>
</g>
</svg>
