<?xml version="1.0" encoding="iso-8859-1"?>
<!-- Generator: Adobe Illustrator 22.1.0, SVG Export Plug-In . SVG Version: 6.00 Build 0)  -->
<svg version="1.1" id="Capa_1" xmlns="http://www.w3.org/2000/svg" xmlns:xlink="http://www.w3.org/1999/xlink" x="0px" y="0px"
	 viewBox="-49 141 512 512" style="enable-background:new -49 141 512 512;" xml:space="preserve">
<g>
	<path style="opacity:0.3;fill:#BFBFBF;" d="M338.808,480.074l10.198,3.91l41.506-113.863c-0.15-1.652-0.737-4.95-3.032-4.95
		h-10.044c0.696,1.8,1.044,3.833,1.044,5.876L338.808,480.074z"/>
	<path style="opacity:0.3;fill:#BFBFBF;" d="M313.806,553.555c-0.087,0.324-0.197,0.636-0.315,0.944h9.316
		c1.539-0.003,2.887-1.034,3.292-2.519l13.419-36.805l-10.279-3.931L313.806,553.555z"/>
	<path style="opacity:0.3;fill:#E7E7E7;" d="M305.986,365.171h-42.289h-42.289H179.12h-42.289h-19.749
		c-1.539,0.003-2.887,1.034-3.292,2.519c-0.044,0.171-0.097,0.33-0.156,0.495l-8.171,22.401l233.344,89.487l39.672-109.028
		c0-2.042-0.348-4.076-1.044-5.876h-11.038H305.986z"/>
	<path style="opacity:0.3;fill:#E7E7E7;" d="M329.239,511.244l-233.344-89.23l-29.144,79.902c-0.009,0.024-0.022,0.044-0.031,0.068
		l-17.759,48.71c-0.104,0.889,0.164,1.781,0.74,2.466c0.638,0.852,1.643,1.35,2.708,1.339h261.082
		c0.119-0.307,0.228-0.62,0.315-0.944L329.239,511.244z"/>
	<path style="opacity:0.3;fill:#BFBFBF;" d="M96.3,300.501c0.284-0.286,0.597-0.543,0.933-0.768
		c0.001-0.001,0.002-0.001,0.003-0.002c0.644-0.43,1.376-0.739,2.163-0.896c0.016-0.003,0.033-0.004,0.049-0.008
		c0.176-0.034,0.354-0.062,0.535-0.08c0.199-0.02,0.4-0.03,0.601-0.03h84.919l-21.575-30.206H64.337v63.952L96.3,300.501z"/>
	
		<linearGradient id="SVGID_1_" gradientUnits="userSpaceOnUse" x1="-97.1942" y1="793.5485" x2="-96.819" y2="792.9222" gradientTransform="matrix(426.6667 0 0 -255.6 41749.4688 203063.5781)">
		<stop  offset="0" style="stop-color:#DFDFDF"/>
		<stop  offset="0.1717" style="stop-color:#DFDFDF"/>
		<stop  offset="0.2" style="stop-color:#DFDFDF"/>
		<stop  offset="0.2001" style="stop-color:#E3E3E3"/>
		<stop  offset="0.2007" style="stop-color:#ECECEC"/>
		<stop  offset="0.2014" style="stop-color:#F3F3F3"/>
		<stop  offset="0.2023" style="stop-color:#F7F7F7"/>
		<stop  offset="0.205" style="stop-color:#F8F8F8"/>
		<stop  offset="0.2522" style="stop-color:#F8F8F8"/>
		<stop  offset="0.26" style="stop-color:#F8F8F8"/>
		<stop  offset="0.26" style="stop-color:#DFDFDF"/>
		<stop  offset="0.3974" style="stop-color:#DFDFDF"/>
		<stop  offset="0.42" style="stop-color:#DFDFDF"/>
		<stop  offset="0.4201" style="stop-color:#E3E3E3"/>
		<stop  offset="0.4207" style="stop-color:#ECECEC"/>
		<stop  offset="0.4214" style="stop-color:#F3F3F3"/>
		<stop  offset="0.4223" style="stop-color:#F7F7F7"/>
		<stop  offset="0.425" style="stop-color:#F8F8F8"/>
		<stop  offset="0.4894" style="stop-color:#F8F8F8"/>
		<stop  offset="0.5" style="stop-color:#F8F8F8"/>
		<stop  offset="0.5" style="stop-color:#F4F4F4"/>
		<stop  offset="0.5001" style="stop-color:#EBEBEB"/>
		<stop  offset="0.5003" style="stop-color:#E4E4E4"/>
		<stop  offset="0.5005" style="stop-color:#E0E0E0"/>
		<stop  offset="0.501" style="stop-color:#DFDFDF"/>
		<stop  offset="0.7062" style="stop-color:#DFDFDF"/>
		<stop  offset="0.74" style="stop-color:#DFDFDF"/>
		<stop  offset="0.741" style="stop-color:#F8F8F8"/>
		<stop  offset="0.8346" style="stop-color:#F8F8F8"/>
		<stop  offset="0.85" style="stop-color:#F8F8F8"/>
		<stop  offset="0.851" style="stop-color:#DFDFDF"/>
	</linearGradient>
	<path style="opacity:0.3;fill:url(#SVGID_1_);" d="M360.357,310.8h-0.995c0.642,1.374,0.995,2.879,0.995,4.425V310.8z"/>
	<path style="opacity:0.3;fill:#BFBFBF;" d="M342.233,353.088h18.124v-37.864c0-1.546-0.353-3.051-0.995-4.425h-18.124
		c0.642,1.374,0.995,2.879,0.995,4.425V353.088z"/>
	
		<linearGradient id="SVGID_2_" gradientUnits="userSpaceOnUse" x1="-97.2433" y1="793.5191" x2="-96.8681" y2="792.8928" gradientTransform="matrix(426.6667 0 0 -255.6 41749.4688 203063.5781)">
		<stop  offset="0" style="stop-color:#DFDFDF"/>
		<stop  offset="0.1717" style="stop-color:#DFDFDF"/>
		<stop  offset="0.2" style="stop-color:#DFDFDF"/>
		<stop  offset="0.2001" style="stop-color:#E3E3E3"/>
		<stop  offset="0.2007" style="stop-color:#ECECEC"/>
		<stop  offset="0.2014" style="stop-color:#F3F3F3"/>
		<stop  offset="0.2023" style="stop-color:#F7F7F7"/>
		<stop  offset="0.205" style="stop-color:#F8F8F8"/>
		<stop  offset="0.2522" style="stop-color:#F8F8F8"/>
		<stop  offset="0.26" style="stop-color:#F8F8F8"/>
		<stop  offset="0.26" style="stop-color:#DFDFDF"/>
		<stop  offset="0.3974" style="stop-color:#DFDFDF"/>
		<stop  offset="0.42" style="stop-color:#DFDFDF"/>
		<stop  offset="0.4201" style="stop-color:#E3E3E3"/>
		<stop  offset="0.4207" style="stop-color:#ECECEC"/>
		<stop  offset="0.4214" style="stop-color:#F3F3F3"/>
		<stop  offset="0.4223" style="stop-color:#F7F7F7"/>
		<stop  offset="0.425" style="stop-color:#F8F8F8"/>
		<stop  offset="0.4894" style="stop-color:#F8F8F8"/>
		<stop  offset="0.5" style="stop-color:#F8F8F8"/>
		<stop  offset="0.5" style="stop-color:#F4F4F4"/>
		<stop  offset="0.5001" style="stop-color:#EBEBEB"/>
		<stop  offset="0.5003" style="stop-color:#E4E4E4"/>
		<stop  offset="0.5005" style="stop-color:#E0E0E0"/>
		<stop  offset="0.501" style="stop-color:#DFDFDF"/>
		<stop  offset="0.7062" style="stop-color:#DFDFDF"/>
		<stop  offset="0.74" style="stop-color:#DFDFDF"/>
		<stop  offset="0.741" style="stop-color:#F8F8F8"/>
		<stop  offset="0.8346" style="stop-color:#F8F8F8"/>
		<stop  offset="0.85" style="stop-color:#F8F8F8"/>
		<stop  offset="0.851" style="stop-color:#DFDFDF"/>
	</linearGradient>
	<path style="opacity:0.3;fill:url(#SVGID_2_);" d="M342.233,353.088h18.124v-37.864c0-1.546-0.353-3.051-0.995-4.425h-18.124
		c0.642,1.374,0.995,2.879,0.995,4.425V353.088z"/>
	<polygon style="opacity:0.3;fill:#BFBFBF;" points="94.543,334.965 94.543,319.342 78.921,334.965 	"/>
	
		<linearGradient id="SVGID_3_" gradientUnits="userSpaceOnUse" x1="-97.6905" y1="793.2512" x2="-97.3153" y2="792.6248" gradientTransform="matrix(426.6667 0 0 -255.6 41749.4688 203063.5781)">
		<stop  offset="0" style="stop-color:#DFDFDF"/>
		<stop  offset="0.1717" style="stop-color:#DFDFDF"/>
		<stop  offset="0.2" style="stop-color:#DFDFDF"/>
		<stop  offset="0.2001" style="stop-color:#E3E3E3"/>
		<stop  offset="0.2007" style="stop-color:#ECECEC"/>
		<stop  offset="0.2014" style="stop-color:#F3F3F3"/>
		<stop  offset="0.2023" style="stop-color:#F7F7F7"/>
		<stop  offset="0.205" style="stop-color:#F8F8F8"/>
		<stop  offset="0.2522" style="stop-color:#F8F8F8"/>
		<stop  offset="0.26" style="stop-color:#F8F8F8"/>
		<stop  offset="0.26" style="stop-color:#DFDFDF"/>
		<stop  offset="0.3974" style="stop-color:#DFDFDF"/>
		<stop  offset="0.42" style="stop-color:#DFDFDF"/>
		<stop  offset="0.4201" style="stop-color:#E3E3E3"/>
		<stop  offset="0.4207" style="stop-color:#ECECEC"/>
		<stop  offset="0.4214" style="stop-color:#F3F3F3"/>
		<stop  offset="0.4223" style="stop-color:#F7F7F7"/>
		<stop  offset="0.425" style="stop-color:#F8F8F8"/>
		<stop  offset="0.4894" style="stop-color:#F8F8F8"/>
		<stop  offset="0.5" style="stop-color:#F8F8F8"/>
		<stop  offset="0.5" style="stop-color:#F4F4F4"/>
		<stop  offset="0.5001" style="stop-color:#EBEBEB"/>
		<stop  offset="0.5003" style="stop-color:#E4E4E4"/>
		<stop  offset="0.5005" style="stop-color:#E0E0E0"/>
		<stop  offset="0.501" style="stop-color:#DFDFDF"/>
		<stop  offset="0.7062" style="stop-color:#DFDFDF"/>
		<stop  offset="0.74" style="stop-color:#DFDFDF"/>
		<stop  offset="0.741" style="stop-color:#F8F8F8"/>
		<stop  offset="0.8346" style="stop-color:#F8F8F8"/>
		<stop  offset="0.85" style="stop-color:#F8F8F8"/>
		<stop  offset="0.851" style="stop-color:#DFDFDF"/>
	</linearGradient>
	<polygon style="opacity:0.3;fill:url(#SVGID_3_);" points="94.543,334.965 94.543,319.342 78.921,334.965 	"/>
	<polygon style="opacity:0.3;fill:#BFBFBF;" points="67.117,411.01 67.117,465.651 84.607,417.698 	"/>
	
		<linearGradient id="SVGID_4_" gradientUnits="userSpaceOnUse" x1="-97.8844" y1="793.0843" x2="-97.5092" y2="792.4579" gradientTransform="matrix(426.6667 0 0 -255.6 41749.4688 203063.5781)">
		<stop  offset="0" style="stop-color:#DFDFDF"/>
		<stop  offset="0.1717" style="stop-color:#DFDFDF"/>
		<stop  offset="0.2" style="stop-color:#DFDFDF"/>
		<stop  offset="0.2001" style="stop-color:#E3E3E3"/>
		<stop  offset="0.2007" style="stop-color:#ECECEC"/>
		<stop  offset="0.2014" style="stop-color:#F3F3F3"/>
		<stop  offset="0.2023" style="stop-color:#F7F7F7"/>
		<stop  offset="0.205" style="stop-color:#F8F8F8"/>
		<stop  offset="0.2522" style="stop-color:#F8F8F8"/>
		<stop  offset="0.26" style="stop-color:#F8F8F8"/>
		<stop  offset="0.26" style="stop-color:#DFDFDF"/>
		<stop  offset="0.3974" style="stop-color:#DFDFDF"/>
		<stop  offset="0.42" style="stop-color:#DFDFDF"/>
		<stop  offset="0.4201" style="stop-color:#E3E3E3"/>
		<stop  offset="0.4207" style="stop-color:#ECECEC"/>
		<stop  offset="0.4214" style="stop-color:#F3F3F3"/>
		<stop  offset="0.4223" style="stop-color:#F7F7F7"/>
		<stop  offset="0.425" style="stop-color:#F8F8F8"/>
		<stop  offset="0.4894" style="stop-color:#F8F8F8"/>
		<stop  offset="0.5" style="stop-color:#F8F8F8"/>
		<stop  offset="0.5" style="stop-color:#F4F4F4"/>
		<stop  offset="0.5001" style="stop-color:#EBEBEB"/>
		<stop  offset="0.5003" style="stop-color:#E4E4E4"/>
		<stop  offset="0.5005" style="stop-color:#E0E0E0"/>
		<stop  offset="0.501" style="stop-color:#DFDFDF"/>
		<stop  offset="0.7062" style="stop-color:#DFDFDF"/>
		<stop  offset="0.74" style="stop-color:#DFDFDF"/>
		<stop  offset="0.741" style="stop-color:#F8F8F8"/>
		<stop  offset="0.8346" style="stop-color:#F8F8F8"/>
		<stop  offset="0.85" style="stop-color:#F8F8F8"/>
		<stop  offset="0.851" style="stop-color:#DFDFDF"/>
	</linearGradient>
	<polygon style="opacity:0.3;fill:url(#SVGID_4_);" points="67.117,411.01 67.117,465.651 84.607,417.698 	"/>
	<path style="opacity:0.3;fill:#BFBFBF;" d="M104.857,345.278c-1.133,1.133-2.67,1.769-4.272,1.769H70.378v30.123l23.799,9.101
		l6.043-16.568l1.996-5.475c0.132-0.448,0.286-0.885,0.455-1.313c0.13-0.337,0.275-0.665,0.427-0.99
		c0.008-0.016,0.014-0.033,0.021-0.049c2.517-5.333,7.928-8.827,13.963-8.787h13.708v-18.124c0-3.336,2.705-6.041,6.041-6.041
		c3.336,0,6.041,2.705,6.041,6.041v18.124h30.206v-18.124c0-3.336,2.705-6.041,6.041-6.041c3.336,0,6.041,2.705,6.041,6.041v18.124
		h30.206v-18.124c0-3.336,2.705-6.041,6.041-6.041c3.336,0,6.041,2.705,6.041,6.041v18.124h30.206v-18.124
		c0-3.336,2.705-6.041,6.041-6.041c3.336,0,6.041,2.705,6.041,6.041v18.124h30.206v-18.124c0-3.336,2.705-6.041,6.041-6.041
		s6.041,2.705,6.041,6.041v18.124h30.206v-37.864c0-1.546-0.353-3.051-0.995-4.425H197.244h-90.618v30.206
		C106.626,342.608,105.99,344.145,104.857,345.278z"/>
	
		<linearGradient id="SVGID_5_" gradientUnits="userSpaceOnUse" x1="-97.5142" y1="793.3568" x2="-97.139" y2="792.7305" gradientTransform="matrix(426.6667 0 0 -255.6 41749.4688 203063.5781)">
		<stop  offset="0" style="stop-color:#DFDFDF"/>
		<stop  offset="0.1717" style="stop-color:#DFDFDF"/>
		<stop  offset="0.2" style="stop-color:#DFDFDF"/>
		<stop  offset="0.2001" style="stop-color:#E3E3E3"/>
		<stop  offset="0.2007" style="stop-color:#ECECEC"/>
		<stop  offset="0.2014" style="stop-color:#F3F3F3"/>
		<stop  offset="0.2023" style="stop-color:#F7F7F7"/>
		<stop  offset="0.205" style="stop-color:#F8F8F8"/>
		<stop  offset="0.2522" style="stop-color:#F8F8F8"/>
		<stop  offset="0.26" style="stop-color:#F8F8F8"/>
		<stop  offset="0.26" style="stop-color:#DFDFDF"/>
		<stop  offset="0.3974" style="stop-color:#DFDFDF"/>
		<stop  offset="0.42" style="stop-color:#DFDFDF"/>
		<stop  offset="0.4201" style="stop-color:#E3E3E3"/>
		<stop  offset="0.4207" style="stop-color:#ECECEC"/>
		<stop  offset="0.4214" style="stop-color:#F3F3F3"/>
		<stop  offset="0.4223" style="stop-color:#F7F7F7"/>
		<stop  offset="0.425" style="stop-color:#F8F8F8"/>
		<stop  offset="0.4894" style="stop-color:#F8F8F8"/>
		<stop  offset="0.5" style="stop-color:#F8F8F8"/>
		<stop  offset="0.5" style="stop-color:#F4F4F4"/>
		<stop  offset="0.5001" style="stop-color:#EBEBEB"/>
		<stop  offset="0.5003" style="stop-color:#E4E4E4"/>
		<stop  offset="0.5005" style="stop-color:#E0E0E0"/>
		<stop  offset="0.501" style="stop-color:#DFDFDF"/>
		<stop  offset="0.7062" style="stop-color:#DFDFDF"/>
		<stop  offset="0.74" style="stop-color:#DFDFDF"/>
		<stop  offset="0.741" style="stop-color:#F8F8F8"/>
		<stop  offset="0.8346" style="stop-color:#F8F8F8"/>
		<stop  offset="0.85" style="stop-color:#F8F8F8"/>
		<stop  offset="0.851" style="stop-color:#DFDFDF"/>
	</linearGradient>
	<path style="opacity:0.3;fill:url(#SVGID_5_);" d="M104.857,345.278c-1.133,1.133-2.67,1.769-4.272,1.769H70.378v30.123
		l23.799,9.101l6.043-16.568l1.996-5.475c0.132-0.448,0.286-0.885,0.455-1.313c0.13-0.337,0.275-0.665,0.427-0.99
		c0.008-0.016,0.014-0.033,0.021-0.049c2.517-5.333,7.928-8.827,13.963-8.787h13.708v-18.124c0-3.336,2.705-6.041,6.041-6.041
		c3.336,0,6.041,2.705,6.041,6.041v18.124h30.206v-18.124c0-3.336,2.705-6.041,6.041-6.041c3.336,0,6.041,2.705,6.041,6.041v18.124
		h30.206v-18.124c0-3.336,2.705-6.041,6.041-6.041c3.336,0,6.041,2.705,6.041,6.041v18.124h30.206v-18.124
		c0-3.336,2.705-6.041,6.041-6.041c3.336,0,6.041,2.705,6.041,6.041v18.124h30.206v-18.124c0-3.336,2.705-6.041,6.041-6.041
		s6.041,2.705,6.041,6.041v18.124h30.206v-37.864c0-1.546-0.353-3.051-0.995-4.425H197.244h-90.618v30.206
		C106.626,342.608,105.99,344.145,104.857,345.278z"/>
	<path style="opacity:0.3;fill:#FFFFFF;" d="M58.296,341.006c0-0.202,0.01-0.404,0.031-0.604c0.015-0.148,0.04-0.294,0.065-0.439
		c0.009-0.049,0.013-0.098,0.022-0.146c0.035-0.176,0.08-0.348,0.13-0.519c0.005-0.017,0.008-0.035,0.013-0.052
		c0.054-0.176,0.116-0.348,0.185-0.517c0.005-0.012,0.009-0.025,0.014-0.038c0.07-0.168,0.148-0.331,0.232-0.491
		c0.007-0.014,0.013-0.028,0.02-0.042c0.084-0.157,0.177-0.309,0.274-0.458c0.011-0.016,0.019-0.033,0.03-0.049
		c0.108-0.162,0.224-0.318,0.347-0.468c0.002-0.002,0.003-0.004,0.005-0.006c0.131-0.159,0.269-0.311,0.415-0.456l4.258-4.258
		v-63.952h-7.658c-2.443,0.002-4.423,1.982-4.425,4.425v97.303l6.041,2.31V341.006z"/>
	<polygon style="opacity:0.3;fill:#FFFFFF;" points="48.993,514.618 55.034,498.14 55.034,406.389 48.993,404.079 	"/>
	<path style="opacity:0.3;fill:#838383;" d="M102.671,362.914c0.132-0.336,0.273-0.667,0.427-0.99
		C102.947,362.249,102.801,362.577,102.671,362.914z"/>
	<path style="opacity:0.3;fill:#838383;" d="M102.217,364.227l-1.996,5.475l1.986-5.446
		C102.21,364.246,102.214,364.237,102.217,364.227z"/>
	<path style="opacity:0.3;fill:#838383;" d="M117.083,353.088c-6.035-0.04-11.446,3.455-13.963,8.787
		C105.668,356.578,111.058,353.097,117.083,353.088z"/>
	<path style="opacity:0.3;fill:#838383;" d="M97.236,299.731c0.656-0.437,1.391-0.741,2.163-0.896
		C98.612,298.992,97.88,299.301,97.236,299.731z"/>
	<path style="opacity:0.3;fill:#838383;" d="M99.448,298.828c0.177-0.034,0.355-0.062,0.535-0.08
		C99.802,298.765,99.624,298.794,99.448,298.828z"/>
	<path style="opacity:0.3;fill:#838383;" d="M97.233,299.733c-0.336,0.225-0.649,0.482-0.933,0.768l0.014-0.014
		C96.596,300.204,96.905,299.952,97.233,299.733z"/>
	<path style="opacity:0.3;fill:#838383;" d="M59.313,337.651c0.108-0.161,0.223-0.317,0.347-0.468
		C59.537,337.334,59.422,337.49,59.313,337.651z"/>
	<path style="opacity:0.3;fill:#838383;" d="M59.009,338.158c0.084-0.157,0.177-0.309,0.274-0.458
		C59.186,337.849,59.094,338.001,59.009,338.158z"/>
	<path style="opacity:0.3;fill:#838383;" d="M58.757,338.691c0.069-0.167,0.148-0.331,0.232-0.491
		C58.905,338.36,58.827,338.523,58.757,338.691z"/>
	<path style="opacity:0.3;fill:#838383;" d="M58.326,340.402c0.015-0.148,0.04-0.293,0.065-0.439
		C58.367,340.109,58.341,340.254,58.326,340.402z"/>
	<path style="opacity:0.3;fill:#838383;" d="M58.414,339.817c0.035-0.175,0.08-0.348,0.13-0.519
		C58.494,339.469,58.449,339.641,58.414,339.817z"/>
	<path style="opacity:0.3;fill:#838383;" d="M58.558,339.246c0.053-0.175,0.116-0.347,0.185-0.517
		C58.674,338.898,58.612,339.07,58.558,339.246z"/>
	<path style="opacity:0.3;fill:#838383;" d="M60.079,336.721c-0.146,0.145-0.284,0.297-0.415,0.456
		c0.126-0.153,0.26-0.301,0.401-0.443L60.079,336.721z"/>
	<path style="opacity:0.3;fill:#838383;" d="M105.464,390.586l8.171-22.401c0.059-0.165,0.112-0.324,0.156-0.495l-8.345,22.889
		L105.464,390.586z"/>
	<path style="opacity:0.3;fill:#838383;" d="M95.894,422.014l-0.016-0.006L66.72,501.984c0.009-0.023,0.022-0.044,0.031-0.068
		L95.894,422.014z"/>
	<path style="opacity:0.3;fill:#838383;" d="M102.671,362.914c-0.169,0.428-0.323,0.865-0.455,1.313l0.067-0.183
		C102.398,363.659,102.529,363.284,102.671,362.914z"/>
	<polygon style="opacity:0.3;fill:#838383;" points="100.22,369.702 94.177,386.27 94.179,386.271 	"/>
	<path style="opacity:0.3;fill:#838383;" d="M103.098,361.924c0.008-0.016,0.014-0.033,0.021-0.049
		C103.112,361.891,103.106,361.908,103.098,361.924z"/>
	<polygon style="opacity:0.3;fill:#838383;" points="84.607,417.698 67.117,465.651 67.117,465.684 84.612,417.7 	"/>
	<path style="opacity:0.3;fill:#838383;" d="M372.439,359.129h-3.082c1.128,0,2.143,0.201,3.055,0.556
		C372.429,359.501,372.439,359.316,372.439,359.129z"/>
	<polygon style="opacity:0.3;fill:#838383;" points="93.308,406.283 93.512,405.723 93.512,405.723 	"/>
	<rect x="299.944" y="353.088" style="opacity:0.3;fill:#838383;" width="12.082" height="6.041"/>
	<path style="opacity:0.3;fill:#838383;" d="M312.027,334.965c0-3.336-2.705-6.041-6.041-6.041c-3.336,0-6.041,2.705-6.041,6.041
		v18.124h12.082V334.965z"/>
	<path style="opacity:0.3;fill:#838383;" d="M99.399,298.835c0.016-0.003,0.033-0.004,0.049-0.008
		C99.432,298.831,99.415,298.832,99.399,298.835z"/>
	<path style="opacity:0.3;fill:#838383;" d="M100.584,298.717c-0.202,0-0.402,0.01-0.601,0.03
		C100.181,298.728,100.381,298.717,100.584,298.717z"/>
	<path style="opacity:0.3;fill:#838383;" d="M97.233,299.733c0.001-0.001,0.002-0.001,0.003-0.002
		C97.235,299.732,97.234,299.732,97.233,299.733z"/>
	<path style="opacity:0.3;fill:#838383;" d="M58.989,338.2c0.007-0.014,0.013-0.028,0.02-0.042
		C59.002,338.172,58.997,338.186,58.989,338.2z"/>
	<path style="opacity:0.3;fill:#838383;" d="M58.743,338.729c0.005-0.012,0.009-0.025,0.014-0.038
		C58.752,338.704,58.748,338.717,58.743,338.729z"/>
	<path style="opacity:0.3;fill:#838383;" d="M58.296,341.006c0-0.204,0.011-0.405,0.031-0.604
		C58.306,340.602,58.296,340.803,58.296,341.006z"/>
	<path style="opacity:0.3;fill:#838383;" d="M58.545,339.298c0.005-0.017,0.008-0.035,0.013-0.052
		C58.553,339.263,58.55,339.281,58.545,339.298z"/>
	<path style="opacity:0.3;fill:#838383;" d="M58.392,339.963c0.008-0.049,0.013-0.098,0.022-0.146
		C58.404,339.865,58.4,339.915,58.392,339.963z"/>
	<path style="opacity:0.3;fill:#838383;" d="M59.284,337.7c0.011-0.016,0.019-0.033,0.03-0.049
		C59.303,337.667,59.294,337.684,59.284,337.7z"/>
	<path style="opacity:0.3;fill:#838383;" d="M59.66,337.184c0.002-0.002,0.003-0.004,0.005-0.006
		C59.663,337.179,59.662,337.182,59.66,337.184z"/>
	<path style="opacity:0.3;fill:#838383;" d="M345.144,517.326l-5.626-2.151l-13.419,36.805c-0.405,1.485-1.753,2.516-3.292,2.519
		h-9.316H52.409c-1.064,0.01-2.07-0.487-2.708-1.339c-0.576-0.685-0.844-1.577-0.74-2.466l17.759-48.71l29.158-79.976l-5.628-2.152
		l-0.067-0.026l-5.571-2.13l-17.495,47.984v-0.033V411.01l-6.041-2.31l-6.041-2.31v91.751l-6.041,16.478V404.079l-0.495-0.189
		l-5.546-2.121l-6.041-2.31v145.737c0,0.802,0.157,1.567,0.442,2.269c-1.091,4.533-0.09,9.326,2.753,13.041
		c2.932,3.83,7.48,6.076,12.303,6.076h270.398c6.82,0.045,12.851-4.419,14.799-10.956l13.182-36.142L345.144,517.326z"/>
	<path style="opacity:0.3;fill:#838383;" d="M70.378,377.17v-30.123h30.206c1.602,0,3.139-0.636,4.272-1.769
		c1.133-1.133,1.769-2.67,1.769-4.272V310.8h90.618h143.995h18.124h0.995v4.425v37.864h-18.124h-30.206v6.041h-12.082v-6.041
		h-30.206v-18.124c0-3.336-2.705-6.041-6.041-6.041c-3.336,0-6.041,2.705-6.041,6.041v18.124H227.45v-18.124
		c0-3.336-2.705-6.041-6.041-6.041c-3.336,0-6.041,2.705-6.041,6.041v18.124h-30.206v-18.124c0-3.336-2.705-6.041-6.041-6.041
		c-3.336,0-6.041,2.705-6.041,6.041v18.124h-30.206v-18.124c0-3.336-2.705-6.041-6.041-6.041c-3.336,0-6.041,2.705-6.041,6.041
		v18.124h-13.708c-6.025,0.009-11.415,3.49-13.963,8.787c-0.008,0.016-0.014,0.033-0.021,0.049c-0.154,0.323-0.295,0.654-0.427,0.99
		c-0.142,0.37-0.273,0.745-0.388,1.13l-0.067,0.183c-0.003,0.01-0.007,0.019-0.01,0.029l-1.986,5.446l-6.074,16.65l11.266,4.308
		l8.379-22.97c0.405-1.485,1.753-2.516,3.292-2.519h19.749h42.289h42.289h42.289h42.289h60.412h11.038h10.044
		c2.295,0,2.882,3.298,3.032,4.95l-41.506,113.863l5.651,2.166l5.7,2.172l41.922-115.204c0.242-0.664,0.366-1.364,0.366-2.071
		c0-10.407-6.378-17.958-15.165-17.958h-15.041v-48.33c0-1.602-0.636-3.139-1.769-4.272c-1.133-1.133-2.67-1.769-4.272-1.769
		H200.354l-28.398-39.758c-1.135-1.587-2.966-2.53-4.918-2.531H56.679c-9.113,0.01-16.498,7.394-16.507,16.507v92.661
		l-84.884-32.539L-49,344.245L456.05,537.85l4.289-11.187L70.378,377.17z M117.081,359.129
		C117.082,359.129,117.082,359.129,117.081,359.129L117.081,359.129L117.081,359.129
		C117.082,359.129,117.082,359.129,117.081,359.129z M372.412,359.685c-0.912-0.355-1.927-0.556-3.055-0.556h3.082
		C372.439,359.316,372.429,359.501,372.412,359.685z M94.543,334.965H78.921l15.622-15.622V334.965z M52.255,272.936
		c0.002-2.443,1.982-4.423,4.425-4.425h7.658h99.592l21.575,30.206h-84.919c-0.203,0-0.404,0.011-0.601,0.03
		c-0.18,0.018-0.358,0.046-0.535,0.08c-0.016,0.003-0.033,0.004-0.049,0.008c-0.772,0.155-1.507,0.459-2.163,0.896
		c-0.001,0.001-0.002,0.001-0.003,0.002c-0.328,0.219-0.637,0.471-0.92,0.754l-0.014,0.014l-31.963,31.963l-4.258,4.258
		l-0.014,0.014c-0.142,0.141-0.275,0.289-0.401,0.443c-0.002,0.002-0.003,0.004-0.005,0.006c-0.123,0.151-0.239,0.307-0.346,0.468
		c-0.011,0.016-0.019,0.033-0.03,0.049c-0.098,0.149-0.19,0.301-0.274,0.458c-0.007,0.014-0.013,0.028-0.02,0.042
		c-0.084,0.161-0.163,0.324-0.232,0.491c-0.005,0.012-0.009,0.025-0.014,0.038c-0.069,0.169-0.132,0.341-0.185,0.517
		c-0.005,0.017-0.008,0.035-0.013,0.052c-0.05,0.171-0.095,0.343-0.13,0.519c-0.01,0.048-0.014,0.098-0.022,0.146
		c-0.025,0.145-0.051,0.291-0.065,0.439c-0.02,0.199-0.031,0.4-0.031,0.604v31.539l-6.041-2.316V272.936z"/>
</g>
</svg>
