<?xml version="1.0" encoding="utf-8"?>
<!-- Generator: Adobe Illustrator 22.1.0, SVG Export Plug-In . SVG Version: 6.00 Build 0)  -->
<svg version="1.1" id="Calque_1" xmlns="http://www.w3.org/2000/svg" xmlns:xlink="http://www.w3.org/1999/xlink" x="0px" y="0px"
	 viewBox="0 0 200 200" style="enable-background:new 0 0 200 200;" xml:space="preserve">
<style type="text/css">
	.st0{opacity:0.2;}
	.st1{opacity:0.2;fill:#686868;}
	.st2{opacity:0.2;fill:#A5A5A5;}
</style>
<rect x="-10.2" y="95.7" transform="matrix(0.9011 0.4336 -0.4336 0.9011 52.1824 -33.6752)" class="st0" width="220.2" height="3.8"/>
<path class="st1" d="M53.3,110c0,1.1-0.2,2.3-0.6,3.3h13.9V92.1l-13.3-6.4V110z"/>
<path class="st1" d="M66.7,56.7c0-3.7-3-6.7-6.7-6.7c-3.7,0-6.7,3-6.7,6.7v20.6l13.3,6.4V56.7z"/>
<path class="st2" d="M40,110c0,1.8,1.5,3.3,3.3,3.3c1.8,0,3.3-1.5,3.3-3.3V82.4L40,79.2V110z"/>
<path class="st2" d="M46.7,56.7c0-7.4,6-13.3,13.3-13.3h66.7V8.7l-1.8,0.9c-0.9,0.5-2,0.5-3,0l-5.2-2.6l-5.2,2.6c-0.9,0.5-2,0.5-3,0
	l-5.2-2.6l-5.2,2.6c-0.9,0.5-2,0.5-3,0L90,7.1l-5.2,2.6c-0.9,0.5-2,0.5-3,0l-5.2-2.6l-5.2,2.6c-0.9,0.5-2,0.5-3,0l-5.2-2.6l-5.2,2.6
	c-0.9,0.5-2,0.5-3,0L50,7.1l-5.2,2.6c-0.9,0.5-2,0.5-3,0L40,8.7v62.1l6.7,3.2V56.7z M50,16.7h66.7c1.8,0,3.3,1.5,3.3,3.3
	c0,1.8-1.5,3.3-3.3,3.3H50c-1.8,0-3.3-1.5-3.3-3.3C46.7,18.2,48.2,16.7,50,16.7z M50,30h66.7c1.8,0,3.3,1.5,3.3,3.3
	s-1.5,3.3-3.3,3.3H50c-1.8,0-3.3-1.5-3.3-3.3S48.2,30,50,30z"/>
<path class="st2" d="M116.7,96.7c1.8,0,3.3,1.5,3.3,3.3c0,1.8-1.5,3.3-3.3,3.3h-9.1l13.9,6.7H150c1.8,0,3.3,1.5,3.3,3.3
	c0,1.8-1.5,3.3-3.3,3.3h-14.8l24.8,11.9V60c0-5.5-4.5-10-10-10H71.5c1.2,2,1.8,4.3,1.8,6.7v30.2l20.3,9.8H116.7z M83.3,56.7h33.3
	c1.8,0,3.3,1.5,3.3,3.3c0,1.8-1.5,3.3-3.3,3.3H83.3c-1.8,0-3.3-1.5-3.3-3.3C80,58.2,81.5,56.7,83.3,56.7z M83.3,70H150
	c1.8,0,3.3,1.5,3.3,3.3c0,1.8-1.5,3.3-3.3,3.3H83.3c-1.8,0-3.3-1.5-3.3-3.3C80,71.5,81.5,70,83.3,70z M80,86.7
	c0-1.8,1.5-3.3,3.3-3.3h50c1.8,0,3.3,1.5,3.3,3.3c0,1.8-1.5,3.3-3.3,3.3h-50C81.5,90,80,88.5,80,86.7z"/>
<path class="st2" d="M83.3,116.7c-1.8,0-3.3-1.5-3.3-3.3c0-1.8,1.5-3.3,3.3-3.3h20.6l-13.9-6.7h-6.7c-1.8,0-3.3-1.5-3.3-3.3
	c0-0.5,0.1-0.9,0.3-1.4l-7-3.4v96l1.8-0.9c0.9-0.5,2-0.5,3,0l5.2,2.6l5.2-2.6c0.9-0.5,2-0.5,3,0l5.2,2.6l5.2-2.6c0.9-0.5,2-0.5,3,0
	l5.2,2.6l5.2-2.6c0.9-0.5,2-0.5,3,0l5.2,2.6l5.2-2.6c0.9-0.5,2-0.5,3,0l5.2,2.6l5.2-2.6c0.9-0.5,2-0.5,3,0l5.2,2.6l5.2-2.6
	c0.9-0.5,2-0.5,3,0l1.8,0.9V137l-42.2-20.3H83.3z M116.7,183.3H83.3c-1.8,0-3.3-1.5-3.3-3.3c0-1.8,1.5-3.3,3.3-3.3h33.3
	c1.8,0,3.3,1.5,3.3,3.3C120,181.8,118.5,183.3,116.7,183.3z M116.7,156.7H83.3c-1.8,0-3.3-1.5-3.3-3.3c0-1.8,1.5-3.3,3.3-3.3h33.3
	c1.8,0,3.3,1.5,3.3,3.3C120,155.2,118.5,156.7,116.7,156.7z M116.7,143.3H83.3c-1.8,0-3.3-1.5-3.3-3.3c0-1.8,1.5-3.3,3.3-3.3h33.3
	c1.8,0,3.3,1.5,3.3,3.3C120,141.8,118.5,143.3,116.7,143.3z M136.7,146.7c0-1.8,1.5-3.3,3.3-3.3c1.8,0,3.3,1.5,3.3,3.3h3.3
	c1.8,0,3.3,1.5,3.3,3.3s-1.5,3.3-3.3,3.3H140c-1.8,0-3.3,1.5-3.3,3.3c0,1.8,1.5,3.3,3.3,3.3c4.2,0,8,2.7,9.4,6.7
	c1.8,5.2-0.9,10.9-6.1,12.7v0.6c0,1.8-1.5,3.3-3.3,3.3c-1.8,0-3.3-1.5-3.3-3.3h-3.3c-1.8,0-3.3-1.5-3.3-3.3c0-1.8,1.5-3.3,3.3-3.3
	h6.7c1.8,0,3.3-1.5,3.3-3.3c0-1.8-1.5-3.3-3.3-3.3c-4.2,0-8-2.7-9.4-6.7c-1.8-5.2,0.9-10.9,6.1-12.7V146.7z M133.3,126.7
	c0,1.8-1.5,3.3-3.3,3.3H83.3c-1.8,0-3.3-1.5-3.3-3.3s1.5-3.3,3.3-3.3H130C131.8,123.3,133.3,124.8,133.3,126.7z"/>
<g>
	<path class="st0" d="M150,43.3h-16.7v-40c0-1.8-1.5-3.3-3.3-3.3c-0.5,0-1,0.1-1.5,0.4l-5.2,2.6l-5.2-2.6c-0.9-0.5-2-0.5-3,0
		L110,2.9l-5.2-2.6c-0.9-0.5-2-0.5-3,0l-5.2,2.6l-5.2-2.6c-0.9-0.5-2-0.5-3,0l-5.2,2.6l-5.2-2.6c-0.9-0.5-2-0.5-3,0L70,2.9l-5.2-2.6
		c-0.9-0.5-2-0.5-3,0l-5.2,2.6l-5.2-2.6c-0.9-0.5-2-0.5-3,0l-5.2,2.6l-5.2-2.6c-1.6-0.8-3.6-0.2-4.5,1.5c-0.2,0.5-0.4,1-0.4,1.5
		v64.3l3.3,1.6l3.3,1.6V8.7l1.8,0.9c0.9,0.5,2,0.5,3,0L50,7.1l5.2,2.6c0.9,0.5,2,0.5,3,0l5.2-2.6l5.2,2.6c0.9,0.5,2,0.5,3,0l5.2-2.6
		l5.2,2.6c0.9,0.5,2,0.5,3,0L90,7.1l5.2,2.6c0.9,0.5,2,0.5,3,0l5.2-2.6l5.2,2.6c0.9,0.5,2,0.5,3,0l5.2-2.6l5.2,2.6
		c0.9,0.5,2,0.5,3,0l1.8-0.9v34.6H60c-7.4,0-13.3,6-13.3,13.3V74l3.3,1.6l3.3,1.6V56.7c0-3.7,3-6.7,6.7-6.7c3.7,0,6.7,3,6.7,6.7v27
		l3.3,1.6l3.3,1.6V56.7c0-2.3-0.6-4.6-1.8-6.7H150c5.5,0,10,4.5,10,10v68.6l3.3,1.6l3.3,1.6V60C166.6,50.8,159.2,43.3,150,43.3z"/>
	<path class="st0" d="M160,137v54.3l-1.8-0.9c-0.9-0.5-2-0.5-3,0l-5.2,2.6l-5.2-2.6c-0.9-0.5-2-0.5-3,0l-5.2,2.6l-5.2-2.6
		c-0.9-0.5-2-0.5-3,0l-5.2,2.6l-5.2-2.6c-0.9-0.5-2-0.5-3,0l-5.2,2.6l-5.2-2.6c-0.9-0.5-2-0.5-3,0l-5.2,2.6l-5.2-2.6
		c-0.9-0.5-2-0.5-3,0l-5.2,2.6l-5.2-2.6c-0.9-0.5-2-0.5-3,0l-1.8,0.9v-96L70,93.7l-3.3-1.6v21.3H52.7c0.4-1.1,0.6-2.2,0.6-3.3V85.7
		L50,84.1l-3.3-1.6V110c0,1.8-1.5,3.3-3.3,3.3c-1.8,0-3.3-1.5-3.3-3.3V79.2l-3.3-1.6L33.3,76v34c0,5.5,4.5,10,10,10h23.3v76.7
		c0,1.8,1.5,3.3,3.3,3.4c0.5,0,1-0.1,1.5-0.4l5.2-2.6l5.2,2.6c0.9,0.5,2,0.5,3,0L90,197l5.2,2.6c0.9,0.5,2,0.5,3,0l5.2-2.6l5.2,2.6
		c0.9,0.5,2,0.5,3,0l5.2-2.6l5.2,2.6c0.9,0.5,2,0.5,3,0l5.2-2.6l5.2,2.6c0.9,0.5,2,0.5,3,0l5.2-2.6l5.2,2.6c0.9,0.5,2,0.5,3,0
		l5.2-2.6l5.2,2.6c1.6,0.8,3.6,0.2,4.5-1.5c0.2-0.5,0.4-1,0.4-1.5v-56.5l-3.3-1.6L160,137z"/>
</g>
<path class="st0" d="M130.6,160c1.4,4,5.2,6.7,9.4,6.7c1.8,0,3.3,1.5,3.3,3.3c0,1.8-1.5,3.3-3.3,3.3h-6.7c-1.8,0-3.3,1.5-3.3,3.3
	c0,1.8,1.5,3.3,3.3,3.3h3.3c0,1.8,1.5,3.3,3.3,3.3c1.8,0,3.3-1.5,3.3-3.3v-0.6c5.2-1.8,7.9-7.5,6.1-12.7c-1.4-4-5.2-6.7-9.4-6.7
	c-1.8,0-3.3-1.5-3.3-3.3c0-1.8,1.5-3.3,3.3-3.3h6.7c1.8,0,3.3-1.5,3.3-3.3s-1.5-3.3-3.3-3.3h-3.3c0-1.8-1.5-3.3-3.3-3.3
	c-1.8,0-3.3,1.5-3.3,3.3v0.6C131.5,149.1,128.7,154.8,130.6,160z"/>
<path class="st0" d="M83.3,63.3h33.3c1.8,0,3.3-1.5,3.3-3.3c0-1.8-1.5-3.3-3.3-3.3H83.3c-1.8,0-3.3,1.5-3.3,3.3
	C80,61.8,81.5,63.3,83.3,63.3z"/>
<path class="st0" d="M83.3,76.7H150c1.8,0,3.3-1.5,3.3-3.3c0-1.8-1.5-3.3-3.3-3.3H83.3c-1.8,0-3.3,1.5-3.3,3.3
	C80,75.2,81.5,76.7,83.3,76.7z"/>
<path class="st0" d="M133.3,90c1.8,0,3.3-1.5,3.3-3.3c0-1.8-1.5-3.3-3.3-3.3h-50c-1.8,0-3.3,1.5-3.3,3.3c0,1.8,1.5,3.3,3.3,3.3
	H133.3z"/>
<path class="st0" d="M83.3,103.3h6.7l-9.8-4.7C80.1,99,80,99.5,80,100C80,101.8,81.5,103.3,83.3,103.3z"/>
<path class="st0" d="M116.7,103.3c1.8,0,3.3-1.5,3.3-3.3c0-1.8-1.5-3.3-3.3-3.3h-23l13.9,6.7H116.7z"/>
<path class="st0" d="M150,116.7c1.8,0,3.3-1.5,3.3-3.3c0-1.8-1.5-3.3-3.3-3.3h-28.6l13.9,6.7H150z"/>
<path class="st0" d="M83.3,110c-1.8,0-3.3,1.5-3.3,3.3c0,1.8,1.5,3.3,3.3,3.3h34.4l-13.9-6.7H83.3z"/>
<path class="st0" d="M83.3,123.3c-1.8,0-3.3,1.5-3.3,3.3s1.5,3.3,3.3,3.3H130c1.8,0,3.3-1.5,3.3-3.3s-1.5-3.3-3.3-3.3H83.3z"/>
<path class="st0" d="M116.7,136.7H83.3c-1.8,0-3.3,1.5-3.3,3.3c0,1.8,1.5,3.3,3.3,3.3h33.3c1.8,0,3.3-1.5,3.3-3.3
	C120,138.1,118.5,136.7,116.7,136.7z"/>
<path class="st0" d="M116.7,150H83.3c-1.8,0-3.3,1.5-3.3,3.3c0,1.8,1.5,3.3,3.3,3.3h33.3c1.8,0,3.3-1.5,3.3-3.3
	C120,151.5,118.5,150,116.7,150z"/>
<path class="st0" d="M116.7,176.7H83.3c-1.8,0-3.3,1.5-3.3,3.3c0,1.8,1.5,3.3,3.3,3.3h33.3c1.8,0,3.3-1.5,3.3-3.3
	C120,178.1,118.5,176.7,116.7,176.7z"/>
<path class="st0" d="M50,23.3h66.7c1.8,0,3.3-1.5,3.3-3.3c0-1.8-1.5-3.3-3.3-3.3H50c-1.8,0-3.3,1.5-3.3,3.3
	C46.7,21.8,48.2,23.3,50,23.3z"/>
<path class="st0" d="M50,36.7h66.7c1.8,0,3.3-1.5,3.3-3.3s-1.5-3.3-3.3-3.3H50c-1.8,0-3.3,1.5-3.3,3.3S48.2,36.7,50,36.7z"/>
</svg>
