<?xml version="1.0" encoding="utf-8"?>
<!-- Generator: Adobe Illustrator 22.1.0, SVG Export Plug-In . SVG Version: 6.00 Build 0)  -->
<svg version="1.1" id="Calque_1" xmlns="http://www.w3.org/2000/svg" xmlns:xlink="http://www.w3.org/1999/xlink" x="0px" y="0px"
	 viewBox="0 0 200 200" style="enable-background:new 0 0 200 200;" xml:space="preserve">
<style type="text/css">
	.st0{opacity:0.2;fill:none;}
	.st1{opacity:0.2;fill:#676767;}
	.st2{opacity:0.2;fill:#A4A4A4;}
	.st3{opacity:0.2;fill:#DFDFDF;}
	.st4{opacity:0.2;}
	.st5{opacity:5.000000e-02;}
</style>
<path class="st0" d="M15.2,160.7c-8.4,0-15.2-6.8-15.2-15.2v15.3h167.3l-0.1-0.1H15.2z"/>
<path class="st0" d="M97.5,38.9c0-3.4-2.7-6.1-6.1-6.1s-6.1,2.7-6.1,6.1c0,3.4,2.7,6.1,6.1,6.1S97.5,42.2,97.5,38.9z"/>
<path class="st0" d="M176.7,157.6l6.1,2.9v-15C182.7,150.4,180.4,154.8,176.7,157.6z"/>
<polygon class="st0" points="182.7,160.8 182.7,160.5 182.6,160.8 "/>
<path class="st1" d="M6.6,148.5c1.3,3.6,4.7,6.1,8.6,6.1h139.3l-12.7-6.1H6.6z"/>
<path class="st1" d="M176.1,148.5h-18.3l12,5.8C172.7,153.5,175.1,151.4,176.1,148.5z"/>
<path class="st2" d="M9.8,142.4h119.4L27.9,93.7c-7.2,9.4-12.5,20.6-15,33L9.8,142.4z"/>
<path class="st2" d="M172.9,142.4l-3.1-15.7C163.5,95,138.7,70.3,107.1,64c-28.4-5.7-56.3,4.4-74.5,24.3l112.7,54.2H172.9z
	 M97.5,72.1c0.2-1.7,1.7-2.9,3.3-2.7c31.2,3.1,60.3,30.9,63.6,60.6c0.1,0.8-0.2,1.6-0.7,2.2c-0.5,0.6-1.2,1-2,1.1
	c-0.1,0-0.2,0-0.3,0c-1.5,0-2.8-1.2-3-2.7c-3-26.6-30.1-52.4-58.2-55.2C98.5,75.3,97.3,73.8,97.5,72.1z"/>
<path class="st3" d="M161.8,133.3c-0.1,0-0.2,0-0.3,0C161.5,133.3,161.7,133.3,161.8,133.3c0.8-0.1,1.5-0.5,2-1.1
	C163.3,132.8,162.6,133.2,161.8,133.3z"/>
<path class="st4" d="M160.9,157.7l-6.3-3H15.2c-3.9,0-7.3-2.4-8.6-6.1h135.3l-6.3-3l-6.3-3H9.8l3.1-15.7c2.5-12.4,7.7-23.6,15-33
	l-2.8-1.3L22.3,91C14.9,101,9.5,112.7,7,125.5l-3.4,16.9H3c-1.7,0-3,1.4-3,3c0,8.4,6.8,15.2,15.2,15.2h152L160.9,157.7z"/>
<path class="st4" d="M97.5,72.1c0.2-1.7,1.7-2.9,3.3-2.7c31.2,3.1,60.3,30.9,63.6,60.6c0.1,0.8-0.2,1.6-0.7,2.2
	c0.5-0.6,0.7-1.4,0.7-2.2c-3.3-29.7-32.4-57.5-63.6-60.6C99.1,69.2,97.6,70.4,97.5,72.1c-0.2,1.7,1,3.2,2.7,3.3
	C98.5,75.3,97.3,73.8,97.5,72.1z"/>
<path class="st4" d="M158.4,130.6c0.2,1.5,1.5,2.7,3,2.7C159.9,133.3,158.6,132.1,158.4,130.6c-3-26.6-30.1-52.4-58.2-55.2
	C128.3,78.2,155.4,104,158.4,130.6z"/>
<path class="st4" d="M164.5,129.9c-3.3-29.7-32.4-57.4-63.6-60.6c-1.7-0.2-3.2,1.1-3.3,2.7c-0.2,1.7,1.1,3.2,2.7,3.3
	c28,2.8,55.2,28.6,58.2,55.2c0.2,1.5,1.5,2.7,3,2.7c0.1,0,0.2,0,0.3,0c0.8-0.1,1.5-0.5,2-1.1C164.3,131.6,164.5,130.8,164.5,129.9z"
	/>
<path class="st4" d="M180.1,154c1.7-2.4,2.7-5.4,2.7-8.6c0-1.7-1.4-3-3-3h-0.5l-3.4-16.9c-7.8-39.1-41.5-67.7-81.3-69.1v-5.8
	c6.5-1.7,10.4-8.3,8.8-14.8c-1.7-6.5-8.3-10.4-14.8-8.8c-6.5,1.7-10.4,8.3-8.8,14.8c1.1,4.3,4.5,7.6,8.8,8.8v5.8
	c-22.6,0.8-43.1,10.3-58.2,25.5L2.1,68.4L0,72.7l196.8,94.7l2.1-4.3L180.1,154z M176.1,148.5c-0.4,1.1-0.9,2-1.6,2.8l-5.9-2.8H176.1
	z M85.3,38.9c0-3.4,2.7-6.1,6.1-6.1c3.4,0,6.1,2.7,6.1,6.1c0,3.4-2.7,6.1-6.1,6.1C88,45,85.3,42.2,85.3,38.9z M107.1,64
	c31.7,6.3,56.4,31.1,62.7,62.7l3.1,15.7h-17L36,84.7C54.2,67.2,80.4,58.6,107.1,64z"/>
<polyline class="st5" points="36,84.7 198.9,163.1 196.8,167.4 0,72.7 2.1,68.4 36,84.7 "/>
</svg>
