<?xml version="1.0" encoding="utf-8"?>
<!-- Generator: Adobe Illustrator 22.1.0, SVG Export Plug-In . SVG Version: 6.00 Build 0)  -->
<svg version="1.1" id="Calque_1" xmlns="http://www.w3.org/2000/svg" xmlns:xlink="http://www.w3.org/1999/xlink" x="0px" y="0px"
	 viewBox="0 0 200 200" style="enable-background:new 0 0 200 200;" xml:space="preserve">
<style type="text/css">
	.st0{opacity:0.2;fill:#A4A4A4;}
	.st1{opacity:0.2;fill:#676767;}
	.st2{opacity:0.2;fill:#F2F2F2;}
	.st3{opacity:0.2;fill:#868686;}
	.st4{opacity:0.2;}
</style>
<path class="st0" d="M70,193.3h6.7V160c0-0.9,0.3-1.7,1-2.4l2.4-2.3v-48l-10-4.8V193.3z"/>
<path class="st0" d="M80,50c0-0.5,0.1-1,0.4-1.5c0.8-1.6,2.8-2.3,4.5-1.5l5.2,2.6l5.2-2.6c0.9-0.5,2-0.5,3,0l5.2,2.6l5.2-2.6
	c0.9-0.5,2-0.5,3,0l5.2,2.6l5.2-2.6c0.9-0.5,2-0.5,3,0l5.2,2.6l5.2-2.6c0.9-0.5,2-0.5,3,0l5.2,2.6l5.2-2.6c0.5-0.2,1-0.4,1.5-0.4
	c1.8,0,3.3,1.5,3.3,3.3v56.7h6.7V40H70v48.6l10,4.8V50z"/>
<polygon class="st1" points="40,162.1 63.3,188 63.3,99.2 40,88 "/>
<polygon class="st1" points="63.3,38 40,12 40,74.1 63.3,85.4 "/>
<path class="st2" d="M110,103.3c1.8,0,3.3,1.5,3.3,3.3c0,0.9-0.4,1.8-1,2.4l9.5,4.6l3.9-3.9c1.9-2,4.5-3.1,7.2-3.1h13.8V55.4
	l-1.8,0.9c-0.9,0.5-2,0.5-3,0l-5.2-2.6l-5.2,2.6c-0.9,0.5-2,0.5-3,0l-5.2-2.6l-5.2,2.6c-0.9,0.5-2,0.5-3,0l-5.2-2.6l-5.2,2.6
	c-0.9,0.5-2,0.5-3,0l-5.2-2.6l-5.2,2.6c-0.9,0.5-2,0.5-3,0l-1.8-0.9v41.3l13.9,6.7H110z M100.1,63.3H127c3.7,0,6.7,1.5,6.7,3.3
	c0,1.8-3,3.3-6.7,3.3h-26.9c-3.7,0-6.7-1.5-6.7-3.3C93.3,64.8,96.3,63.3,100.1,63.3z M98.9,76.7h22.4c3.1,0,5.6,1.5,5.6,3.3
	c0,1.8-2.5,3.3-5.6,3.3H98.9c-3.1,0-5.6-1.5-5.6-3.3C93.3,78.2,95.8,76.7,98.9,76.7z M93.3,93.3c0-1.8,2.5-3.3,5.6-3.3h22.4
	c3.1,0,5.6,1.5,5.6,3.3c0,1.8-2.5,3.3-5.6,3.3H98.9C95.8,96.7,93.3,95.2,93.3,93.3z"/>
<path class="st2" d="M112.5,122.9l-5.8-2.8c-0.1,1.8-1.5,3.2-3.3,3.2h-6.7c-1.8,0-3.3-1.5-3.3-3.3c0-1.8,1.5-3.3,3.3-3.3h2.8
	l-12.8-6.2v38.2L112.5,122.9z"/>
<path class="st3" d="M149.7,113.3h-16.8c-0.9,0-1.8,0.4-2.4,1.1l-2.3,2.3l10.1,4.9L160,132v-18.7H149.7z"/>
<polygon class="st3" points="126.8,129.8 118.8,126 84.6,160.2 83.3,161.4 83.3,193.3 160,193.3 160,145.9 "/>
<path class="st4" d="M100.1,70H127c3.7,0,6.7-1.5,6.7-3.3c0-1.8-3-3.3-6.7-3.3h-26.9c-3.7,0-6.7,1.5-6.7,3.3
	C93.3,68.5,96.3,70,100.1,70z"/>
<path class="st4" d="M98.9,83.3h22.4c3.1,0,5.6-1.5,5.6-3.3c0-1.8-2.5-3.3-5.6-3.3H98.9c-3.1,0-5.6,1.5-5.6,3.3
	C93.3,81.8,95.8,83.3,98.9,83.3z"/>
<path class="st4" d="M121.4,96.7c3.1,0,5.6-1.5,5.6-3.3c0-1.8-2.5-3.3-5.6-3.3H98.9c-3.1,0-5.6,1.5-5.6,3.3c0,1.8,2.5,3.3,5.6,3.3
	H121.4z"/>
<path class="st4" d="M113.3,106.7c0-1.8-1.5-3.3-3.3-3.3h-9.5l11.8,5.7C112.9,108.4,113.3,107.6,113.3,106.7z"/>
<path class="st4" d="M96.7,116.7c-1.8,0-3.3,1.5-3.3,3.3c0,1.8,1.5,3.3,3.3,3.3h6.7c1.8,0,3.3-1.4,3.3-3.2l-7.2-3.5H96.7z"/>
<g>
	<path class="st4" d="M160,193.3H83.3v-31.9l1.2-1.2l34.3-34.2l-3.2-1.5l-3.2-1.5l-25.8,25.7v-38.2l-3.3-1.6l-3.3-1.6v48l-2.4,2.3
		c-0.6,0.6-1,1.5-1,2.4v33.3H70v-90.9l-3.3-1.6l-3.3-1.6V188L40,162.1V88l-3.3-1.6l-3.3-1.6v78.6c0,0.8,0.3,1.6,0.9,2.2l30,33.3
		c0,0,0,0,0.1,0c0.3,0.3,0.6,0.5,0.9,0.7c0.1,0,0.1,0.1,0.2,0.1c0.4,0.2,0.9,0.3,1.3,0.3h96.7c1.8,0,3.3-1.5,3.3-3.3v-47.6l-6.7-3.2
		V193.3z"/>
	<path class="st4" d="M166.7,135V36.7c0-1.8-1.5-3.3-3.3-3.3H68.2l-29-32.2c-1.2-1.4-3.3-1.5-4.7-0.3c-0.7,0.6-1.1,1.5-1.1,2.5v67.6
		l3.3,1.6l3.3,1.6V12L63.3,38v47.4L2.3,56l-2.2,4.5l197.9,95.2l2.2-4.5L166.7,135z M121.9,113.5L86.7,96.6V55.4l1.8,0.9
		c0.9,0.5,2,0.5,3,0l5.2-2.6l5.2,2.6c0.9,0.5,2,0.5,3,0l5.2-2.6l5.2,2.6c0.9,0.5,2,0.5,3,0l5.2-2.6l5.2,2.6c0.9,0.5,2,0.5,3,0
		l5.2-2.6l5.2,2.6c0.9,0.5,2,0.5,3,0l1.8-0.9v51.3h-13.8c-2.7,0-5.3,1.1-7.2,3.1L121.9,113.5z M130.5,114.4c0.6-0.7,1.5-1.1,2.4-1.1
		h16.8H160v18.5l-31.7-15.3L130.5,114.4z M70,40h90v66.7h-6.7V50c0-1.8-1.5-3.3-3.3-3.3c-0.5,0-1,0.1-1.5,0.4l-5.2,2.6l-5.2-2.6
		c-0.9-0.5-2-0.5-3,0l-5.2,2.6l-5.2-2.6c-0.9-0.5-2-0.5-3,0l-5.2,2.6l-5.2-2.6c-0.9-0.5-2-0.5-3,0l-5.2,2.6L98.2,47
		c-0.9-0.5-2-0.5-3,0L90,49.6L84.8,47c-1.6-0.8-3.6-0.2-4.5,1.5C80.1,49,80,49.5,80,50v43.4l-10-4.8V40z"/>
</g>
</svg>
