<?xml version="1.0" encoding="utf-8"?>
<!-- Generator: Adobe Illustrator 22.1.0, SVG Export Plug-In . SVG Version: 6.00 Build 0)  -->
<svg version="1.1" id="Calque_1" xmlns="http://www.w3.org/2000/svg" xmlns:xlink="http://www.w3.org/1999/xlink" x="0px" y="0px"
	 viewBox="0 0 200 200" style="enable-background:new 0 0 200 200;" xml:space="preserve">
<style type="text/css">
	.st0{opacity:0.2;fill:none;}
	.st1{opacity:0.2;fill:#676767;}
	.st2{opacity:0.2;fill:#A4A4A4;}
	.st3{opacity:0.2;}
</style>
<g>
	<path class="st0" d="M175.9,113.1c0-8.8-7.1-15.9-15.9-15.9h-4.4V129h4.4C168.8,129,175.9,121.9,175.9,113.1z"/>
	<path class="st1" d="M160,143.5c16.8,0,30.4-13.6,30.4-30.4S176.8,82.6,160,82.6h-4.4v8.7h4.4c12,0,21.7,9.7,21.7,21.7
		c0,12-9.7,21.7-21.7,21.7h-4.6c-0.3,2.3-0.7,4.6-1.3,6.8l4,1.9H160z"/>
	<path class="st2" d="M149.6,134.2l0.2-2l0.1-2.5V120v-46H30.9v8.4l117.8,56.7c0.1-0.3,0.2-0.7,0.2-1
		C149,138.1,149.6,134.8,149.6,134.2z"/>
	<path class="st2" d="M30.9,130.3c0,20.1,16.3,36.5,36.5,36.5h45.9c14.4,0,26.9-8.4,32.8-20.5L30.9,90.8V130.3z"/>
	<rect x="65.7" y="172.5" class="st1" width="49.3" height="2.9"/>
	<path class="st3" d="M150.2,148.4l-4.1-2.2c-5.9,12.1-18.4,20.5-32.8,20.5H67.4c-20.1,0-36.5-16.3-36.5-36.5V90.8L28,89.4L25.1,88
		v42.2c0,20.4,14.7,37.9,34.8,41.6v6.5c0,1.6,1.3,2.9,2.9,2.9h55.1c1.6,0,2.9-1.3,2.9-2.9v-6.5c13-2.4,24.5-10.9,30.5-22.7
		L150.2,148.4z M115,175.4H65.7v-2.9H115V175.4z"/>
	<path class="st3" d="M58.9,49.6l-1.3,2.9c-0.7,1.4-0.1,3.2,1.4,3.9c1.4,0.7,3.2,0.1,3.9-1.4c0-0.1,0.1-0.1,0.1-0.2l1.3-2.9
		c2-5,1.9-10.5-0.3-15.4c-1.5-3.4-1.5-7.2-0.2-10.6l1.3-2.9c0.7-1.4,0.1-3.2-1.4-3.9c-1.4-0.7-3.2-0.1-3.9,1.4
		c0,0.1-0.1,0.1-0.1,0.2l-1.3,2.9c-2,5-1.9,10.5,0.3,15.4C60.2,42.3,60.3,46.2,58.9,49.6z"/>
	<path class="st3" d="M85,49.6l-1.3,2.9c-0.7,1.4-0.1,3.2,1.4,3.9c1.4,0.7,3.2,0.1,3.9-1.4c0-0.1,0.1-0.1,0.1-0.2l1.3-2.9
		c2-5,1.9-10.5-0.3-15.4c-1.5-3.4-1.5-7.2-0.2-10.6l1.3-2.9c0.7-1.4,0.1-3.2-1.4-3.9c-1.4-0.7-3.2-0.1-3.9,1.4
		c0,0.1-0.1,0.1-0.1,0.2l-1.3,2.9c-2,5-1.9,10.5,0.3,15.4C86.3,42.3,86.4,46.2,85,49.6z"/>
	<path class="st3" d="M111.1,49.6l-1.3,2.9c-0.7,1.4-0.1,3.2,1.4,3.9c1.5,0.7,3.2,0.1,3.9-1.4c0-0.1,0.1-0.1,0.1-0.2l1.3-2.9
		c2-5,1.9-10.5-0.3-15.4c-1.5-3.4-1.5-7.2-0.2-10.6l1.3-2.9c0.7-1.4,0.1-3.2-1.4-3.9c-1.4-0.7-3.2-0.1-3.9,1.4
		c0,0.1-0.1,0.1-0.1,0.2l-1.3,2.9c-2,5-1.9,10.5,0.3,15.4C112.4,42.3,112.5,46.2,111.1,49.6z"/>
	<path class="st3" d="M199.1,159.1l-25.7-12.4c13.4-5.3,22.8-18.4,22.8-33.6c0-20-16.2-36.2-36.2-36.2h-4.4V71
		c0-1.6-1.3-2.9-2.9-2.9H28c-1.6,0-2.9,1.3-2.9,2.9v4.3L2.5,64.5l-1.6,3.4l24.3,11.7v0L28,81l2.9,1.4v0l117.9,56.7l0,0l2.6,1.2
		l2.6,1.3c0,0,0,0,0,0l4,1.9h0l5.6,2.7l4.5,2.2c0,0,0,0,0,0l29.4,14.1L199.1,159.1z M155.6,97.1h4.4c8.8,0,15.9,7.1,15.9,15.9
		c0,8.8-7.1,15.9-15.9,15.9h-4.4V97.1z M30.9,73.9h118.9v56.3c0,0.6,0,1.1,0,1.7c-0.1,1.1-0.2,2.2-0.3,3.3l-118.5-57V73.9z
		 M155.4,134.8h4.6c12,0,21.7-9.7,21.7-21.7c0-12-9.7-21.7-21.7-21.7h-4.4v-8.7h4.4c16.8,0,30.4,13.6,30.4,30.4
		c0,14.9-10.7,27.2-24.8,29.9l-10.7-5.2C155.1,136.8,155.2,135.8,155.4,134.8z"/>
</g>
</svg>
