<?xml version="1.0" encoding="utf-8"?>
<!-- Generator: Adobe Illustrator 22.0.0, SVG Export Plug-In . SVG Version: 6.00 Build 0)  -->
<svg version="1.1" id="Layer_1" xmlns="http://www.w3.org/2000/svg" xmlns:xlink="http://www.w3.org/1999/xlink" x="0px" y="0px"
	 viewBox="0 0 496 496" style="enable-background:new 0 0 496 496;" xml:space="preserve">
<style type="text/css">
	.st0{opacity:0.3;}
	.st1{opacity:0.35;}
</style>
<g>
	<g class="st0">
		<path d="M145.8,155.3h82.9c1.9,0,3.6-1.1,4.4-2.8c0.8-1.7,0.5-3.7-0.7-5.2l-21.8-26.1l21.8-26.1c1.2-1.5,1.5-3.5,0.7-5.2
			c-0.8-1.7-2.5-2.8-4.4-2.8h-87.8c-2.7,0-4.9,2.2-4.9,4.9v65.5l9.8,7.1V155.3z M145.8,96.8h72.5l-17.7,21.3c-1.5,1.8-1.5,4.4,0,6.2
			l17.7,21.3h-72.5V96.8z"/>
		<path d="M145.8,204.1v-7.6l-9.8-7.1v14.8h-14.6c-2.7,0-4.9,2.2-4.9,4.9v14.6h-14.6c-2.7,0-4.9,2.2-4.9,4.9V248
			c0,2.7,2.2,4.9,4.9,4.9h78c2.7,0,4.9-2.2,4.9-4.9v-19.5c0-2.7-2.2-4.9-4.9-4.9h-14.6v-12.9l-9.1-6.6H145.8z M126.3,213.9h29.3v9.8
			h-29.3V213.9z M175.1,233.4v9.8h-68.3v-9.8H175.1z"/>
		<path d="M350.6,376l-30.3-43.8c-2.7-4-4.8-8.3-6.3-12.8l-11.8-8.6c1,9.6,4.5,18.9,10.1,26.9l34.4,49.6c0.9,1.3,2.4,2.1,4,2.1
			c1.6,0,3.1-0.8,4-2.1l17.6-25.4l-7.9-5.8L350.6,376z"/>
		<path d="M348,262.7c0.9-0.1,1.8-0.1,2.6-0.1c10,0,19.3,3.7,26.7,10.5c8,7.5,12.3,17.6,12.3,28.5v2.8c0,10-3,19.6-8.7,27.8l-2,2.9
			l7.9,5.8l2.1-3.1c6.8-9.8,10.4-21.3,10.4-33.3v-2.8c0-13.4-5.6-26.4-15.4-35.6c-9.9-9.3-22.9-14-36.6-13.1
			c-18.3,1.2-33.7,12.8-41,29l8.1,5.9C320,273.9,332.7,263.7,348,262.7z"/>
		<path d="M350.6,282.1c10.8,0,19.5,8.7,19.5,19.5c0,8.1-5,15.1-12.1,18l8.7,6.4c7.9-5.2,13.2-14.2,13.2-24.4
			c0-16.1-13.1-29.3-29.3-29.3c-13.4,0-24.7,9-28.1,21.3l8.7,6.4C332,290.1,340.4,282.1,350.6,282.1z"/>
		<path d="M306.7,243.1c2.7,0,4.9-2.2,4.9-4.9v-34.1H375c2.7,0,4.9-2.2,4.9-4.9v-15.1c11.1-2.3,19.5-12.1,19.5-23.9
			c0-13.4-10.9-24.4-24.4-24.4c-13.4,0-24.4,10.9-24.4,24.4c0,11.8,8.4,21.6,19.5,23.9v10.2h-58.5v-10.4c8.4-2.2,14.6-9.8,14.6-18.8
			c0-10.8-8.7-19.5-19.5-19.5s-19.5,8.7-19.5,19.5c0,9.1,6.2,16.6,14.6,18.8v10.4h-34.1v-59c11.1-2.3,19.5-12.1,19.5-23.9
			c0-13.4-10.9-24.4-24.4-24.4c-13.4,0-24.4,10.9-24.4,24.4c0,11.8,8.4,21.6,19.5,23.9v63.9c0,2.7,2.2,4.9,4.9,4.9h39v29.3h-62
			l13.3,9.8H306.7z M360.4,160.2c0-8.1,6.6-14.6,14.6-14.6s14.6,6.6,14.6,14.6c0,8.1-6.6,14.6-14.6,14.6S360.4,168.3,360.4,160.2z
			 M297,165.1c0-5.4,4.4-9.8,9.8-9.8c5.4,0,9.8,4.4,9.8,9.8c0,5.4-4.4,9.8-9.8,9.8C301.3,174.9,297,170.5,297,165.1z M248.2,111.5
			c0-8.1,6.6-14.6,14.6-14.6s14.6,6.6,14.6,14.6s-6.6,14.6-14.6,14.6S248.2,119.5,248.2,111.5z"/>
		<path d="M243.3,311.4h-68.3c-2.7,0-4.9,2.2-4.9,4.9v43.9h-24.9c-1.9-9.5-9.5-17.1-19-19v-44.4c0-2.7,2.2-4.9,4.9-4.9
			c8.1,0,14.6-6.6,14.6-14.6v-14.6H136v14.6c0,2.7-2.2,4.9-4.9,4.9c-8.1,0-14.6,6.6-14.6,14.6v44.4C105.4,343.4,97,353.3,97,365
			c0,13.4,10.9,24.4,24.4,24.4c11.8,0,21.6-8.4,23.9-19.5h24.9v19.5h9.8v-19.5h44.4c2.3,11.1,12.1,19.5,23.9,19.5
			c11.8,0,21.6-8.4,23.9-19.5h15.1c2.7,0,4.9,2.2,4.9,4.9c0,8.1,6.6,14.6,14.6,14.6h24.4v-9.8h-24.4c-2.7,0-4.9-2.2-4.9-4.9
			c0-8.1-6.6-14.6-14.6-14.6h-15.1c-2.3-11.1-12.1-19.5-23.9-19.5c-11.8,0-21.6,8.4-23.9,19.5h-44.4v-39h68.3c2.7,0,4.9-2.2,4.9-4.9
			v-41.4l-9.8-7.1V311.4z M121.4,379.7c-8.1,0-14.6-6.6-14.6-14.6s6.6-14.6,14.6-14.6c8.1,0,14.6,6.6,14.6,14.6
			S129.5,379.7,121.4,379.7z M248.2,350.4c8.1,0,14.6,6.6,14.6,14.6s-6.6,14.6-14.6,14.6c-8.1,0-14.6-6.6-14.6-14.6
			S240.1,350.4,248.2,350.4z"/>
		<path d="M223.8,203.4c8.4-2.2,14.6-9.8,14.6-18.8c0-10.8-8.7-19.5-19.5-19.5c-10.8,0-19.5,8.7-19.5,19.5c0,9.1,6.2,16.6,14.6,18.8
			v11.1l9.8,7.1V203.4z M209.2,184.6c0-5.4,4.4-9.8,9.8-9.8c5.4,0,9.8,4.4,9.8,9.8c0,5.4-4.4,9.8-9.8,9.8
			C213.6,194.4,209.2,190,209.2,184.6z"/>
	</g>
	
		<rect x="-50.1" y="241" transform="matrix(0.8074 0.5901 -0.5901 0.8074 194.1076 -98.5597)" class="st1" width="596.3" height="14"/>
</g>
</svg>
