<?xml version="1.0" encoding="utf-8"?>
<!-- Generator: Adobe Illustrator 22.1.0, SVG Export Plug-In . SVG Version: 6.00 Build 0)  -->
<svg version="1.1" id="Calque_1" xmlns="http://www.w3.org/2000/svg" xmlns:xlink="http://www.w3.org/1999/xlink" x="0px" y="0px"
	 viewBox="0 0 200 200" style="enable-background:new 0 0 200 200;" xml:space="preserve">
<style type="text/css">
	.st0{opacity:0.2;fill:none;}
	.st1{opacity:0.2;fill:#414141;}
	.st2{opacity:0.2;fill:#676767;}
	.st3{opacity:0.2;}
	.st4{opacity:0.2;enable-background:new    ;}
</style>
<polygon class="st0" points="150,154.1 170.3,154.1 150,144.3 "/>
<rect x="22.3" y="129.1" class="st0" width="27.8" height="25"/>
<polygon class="st0" points="150,129.1 150,135.9 177.7,149.3 177.7,129.1 "/>
<rect x="22.3" y="120.8" class="st1" width="30.5" height="2.8"/>
<path class="st2" d="M66.1,150c2-0.5,4.1-0.4,6,0.4c1,0.4,2,0.4,3,0c2.3-1,5-1,7.3,0c1,0.4,2,0.4,3,0c2.3-1,5-1,7.3,0
	c1,0.4,2,0.4,3,0c2.3-1,5-1,7.3,0c1,0.4,2,0.4,3,0c2.3-1,5-1,7.3,0c1,0.4,2,0.4,3,0c2.3-1,5-1,7.3,0c1,0.4,2,0.4,3,0
	c1.9-0.8,4.7-0.8,6.7-0.2l0-13.9L66,104.2L66.1,150L66.1,150z"/>
<polygon class="st2" points="133.3,95.8 66.7,95.8 66.7,95.9 133.3,127.9 "/>
<path class="st1" d="M150,123.6h27.8v-2.8h-30.5C148.7,120.8,150,122.1,150,123.6z"/>
<path class="st1" d="M147.2,120.8v2.8h2.8C150,122.1,148.7,120.8,147.2,120.8z"/>
<path class="st3" d="M136.1,137.6l-2.8-1.3V150h-0.7c-2-0.5-4.1-0.4-6,0.4c-1,0.4-2,0.4-3,0c-2.3-1-5-1-7.3,0c-1,0.4-2,0.4-3,0
	c-2.3-1-5-1-7.3,0c-1,0.4-2,0.4-3,0c-2.3-1-5-1-7.3,0c-1,0.4-2,0.4-3,0c-2.3-1-5-1-7.3,0c-1,0.4-2,0.4-3,0c-2.3-1-5-1-7.3,0
	c-1,0.4-2,0.4-3,0c-1.9-0.8-4-1-6-0.4v-45.8l-2.8-1.3l0,0l-2.8-1.3v52.5c0,1.5,1.2,2.8,2.8,2.8c0.4,0,0.7-0.1,1.1-0.2l1.7-0.7v9.3
	c0,1.5,1.2,2.8,2.8,2.8c1.5,0,2.8-1.2,2.8-2.8v-9.1c1.9,0.4,3.9,0.2,5.6-0.5c1-0.4,2-0.4,3,0c2.3,1,5,1,7.3,0c1-0.4,2-0.4,3,0
	c2.3,1,5,1,7.3,0c1-0.4,2-0.4,3,0c2.3,1,5,1,7.3,0c1-0.4,2-0.4,3,0c2.3,1,5,1,7.3,0c1-0.4,2-0.4,3,0c1.8,0.7,3.8,0.9,5.6,0.5v9.1
	c0,1.5,1.2,2.8,2.8,2.8c1.5,0,2.8-1.2,2.8-2.8V156l1.7,0.7c1.4,0.6,3-0.1,3.6-1.5c0.1-0.3,0.2-0.7,0.2-1.1v-15.4L136.1,137.6z
	 M81.5,153 M91.9,153 M102.3,153 M110.1,152.5 M112.7,153 M118.1,152.9 M123.1,153C123,153,123,153,123.1,153
	C123.9,153.3,123.9,153.4,123.1,153z M130.9,152.5 M133.5,153"/>
<path class="st3" d="M22.3,70.9c0-1.5-1.2-2.8-2.8-2.8c-1.5,0-2.8,1.2-2.8,2.8v1l5.6,2.7C22.3,74.6,22.3,70.9,22.3,70.9z"/>
<path class="st3" d="M52.8,115.4H22.3V83.9l-5.6-2.6v83c0,1.5,1.2,2.7,2.8,2.7c1.5,0,2.8-1.2,2.8-2.7v-5.5H50v5.5
	c0,1.5,1.2,2.7,2.8,2.7c1.6,0,2.8-1.2,2.8-2.7v-36c1.7-1,2.8-2.7,2.8-4.7v-2.7C58.4,117.8,55.9,115.4,52.8,115.4z M52.8,120.8v2.8
	H22.3v-2.8H52.8z M50,153.4H22.3V129H50V153.4z"/>
<path class="st3" d="M150,154.1v-9.8l-5.6-2.7v23.6c0,1.5,1.2,2.8,2.8,2.8s2.8-1.2,2.8-2.8v-5.6h27.8v5.6c0,1.5,1.2,2.8,2.8,2.8
	c1.5,0,2.8-1.2,2.8-2.8v-4.9l-12.9-6.2L150,154.1L150,154.1z"/>
<path class="st3" d="M180.6,68.1c-1.5,0-2.8,1.2-2.8,2.8v44.4h-30.5c-3.1,0-5.6,2.5-5.6,5.6v2.8c0,2,1.1,3.8,2.8,4.8v4.9l5.6,2.7v-7
	h27.7v20.1l5.6,2.7v-81C183.4,69.4,182.2,68.1,180.6,68.1z M147.2,120.8h30.5v2.8H150h-2.8V120.8z"/>
<g>
	<path class="st3" d="M136.1,90.3h-8.3c0-1.5-1.2-2.8-2.8-2.8v-3.2c3.2-1.2,5.4-4.3,5.5-7.8v-5.6c0-1.5-1.2-2.8-2.8-2.8h-11.1
		c-1.5,0-2.8,1.2-2.8,2.8v5.6c0,3.5,2.2,6.6,5.6,7.8v3.3c-1.5,0-2.7,1.2-2.8,2.7h-11c0-1.5-1.2-2.8-2.8-2.8v-25h11.1
		c1.5,0,2.8-1.2,2.8-2.8V45.9c0-1.5-1.2-2.8-2.8-2.8c-1.6,0-2.8,1.2-2.8,2.8V57h-8.3V45.9c0-1.5-1.2-2.8-2.8-2.8
		c-1.6,0-2.8,1.2-2.8,2.8V57h-8.3V45.9c0-1.5-1.2-2.8-2.8-2.8c-1.6,0-2.8,1.2-2.8,2.8v13.9c0,1.5,1.2,2.8,2.8,2.8h11.1v25
		c-1.5,0-2.8,1.2-2.8,2.8h-11c0,0,0-0.1,0-0.1c0-1.5-1.2-2.8-2.8-2.8v-3.2c3.2-1.2,5.4-4.3,5.5-7.8v-5.6c0-1.5-1.2-2.8-2.8-2.8H72.2
		c-1.5,0-2.8,1.2-2.8,2.8v5.6c0,3.5,2.2,6.6,5.6,7.8v3.3c-1.5,0-2.8,1.2-2.8,2.8c0,0,0,0,0,0h-8.3c-1.5,0-2.8,1.2-2.8,2.8v0.1
		l2.8,1.3l2.8,1.4v-0.1h66.6v32.1l2.8,1.3v0.1l2.8,1.3V93.1C138.9,91.6,137.7,90.3,136.1,90.3z M72.4,91.4 M75.1,81.3
		c0,0.1,0,0.2-0.1,0.3C75.1,81.5,75.1,81.4,75.1,81.3C73.4,80.4,73.4,80.3,75.1,81.3c0-0.2,0.1-0.3,0.1-0.4
		C75.2,81,75.1,81.1,75.1,81.3z M116.7,70.8v5.6C116.7,78.5,116.7,70.8,116.7,70.8z M122.2,79.2"/>
	<path class="st3" d="M86.1,40.3c1.5,0,2.8-1.2,2.8-2.8v-2.8c0-1.5-1.2-2.8-2.8-2.8c-1.6,0-2.8,1.2-2.8,2.8v2.8
		C83.3,39.1,84.6,40.3,86.1,40.3z"/>
	<path class="st3" d="M100,40.3c1.5,0,2.8-1.2,2.8-2.8v-2.8c0-1.5-1.2-2.8-2.8-2.8c-1.6,0-2.8,1.2-2.8,2.8v2.8
		C97.2,39.1,98.5,40.3,100,40.3z"/>
	<path class="st3" d="M113.9,40.3c1.5,0,2.8-1.2,2.8-2.8v-2.8c0-1.5-1.2-2.8-2.8-2.8c-1.6,0-2.8,1.2-2.8,2.8v2.8
		C111.1,39.1,112.3,40.3,113.9,40.3z"/>
</g>
<rect x="98.2" y="-0.4" transform="matrix(0.4336 -0.9011 0.9011 0.4336 -42.5013 152.2661)" class="st4" width="3.3" height="220.7"/>
</svg>
