<?xml version="1.0" encoding="iso-8859-1"?>
<!-- Generator: Adobe Illustrator 22.1.0, SVG Export Plug-In . SVG Version: 6.00 Build 0)  -->
<svg version="1.1" id="Calque_1" xmlns="http://www.w3.org/2000/svg" xmlns:xlink="http://www.w3.org/1999/xlink" x="0px" y="0px"
	 viewBox="0 0 200 200" style="enable-background:new 0 0 200 200;" xml:space="preserve">
<g style="opacity:0.3;">
	<g>
		<path style="fill:#868686;" d="M41.812,38.844c0-1.639,1.329-2.969,2.969-2.969h110.438c1.64,0,2.969,1.329,2.969,2.969
			s-1.329,2.969-2.969,2.969h-10.688v5.938h16.625c4.911,0,8.906-3.995,8.906-8.906c0-4.911-3.995-8.906-8.906-8.906H38.844
			c-4.911,0-8.906,3.995-8.906,8.906c0,4.911,3.995,8.906,8.906,8.906h16.625v-5.938H44.781
			C43.142,41.812,41.812,40.483,41.812,38.844z"/>
		<path style="fill:#A4A4A4;" d="M107.706,104.241c-1.14,1.178-3.019,1.209-4.198,0.069c-1.049-1.015-2.159-1.552-3.211-1.552
			c-1.637,0-2.969,1.332-2.969,2.969s1.332,2.969,2.969,2.969c4.911,0,8.906,3.995,8.906,8.906c0,3.87-2.482,7.17-5.938,8.396v3.479
			c0,1.639-1.329,2.969-2.969,2.969s-2.969-1.329-2.969-2.969v-3.465c-1.978-0.663-3.844-1.979-5.431-3.867
			c-1.055-1.255-0.893-3.128,0.362-4.183c1.255-1.055,3.128-0.893,4.183,0.362c1.218,1.448,2.587,2.246,3.855,2.246
			c1.637,0,2.969-1.332,2.969-2.969s-1.332-2.969-2.969-2.969c-4.911,0-8.906-3.995-8.906-8.906c0-3.87,2.482-7.17,5.938-8.396
			V95.61L61.406,79.106v73.144h56.406c1.64,0,2.969,1.329,2.969,2.969v5.938c0,4.911,3.995,8.906,8.906,8.906
			s8.906-3.995,8.906-8.906c0-2.234,0-22.984,0-46.587l-30.553-14.037C108.799,101.669,108.695,103.218,107.706,104.241z"/>
		<path style="fill:#A4A4A4;" d="M61.406,66.229l12.967,5.958c0.513-0.422,1.161-0.686,1.877-0.686h47.5
			c1.64,0,2.969,1.329,2.969,2.969s-1.329,2.969-2.969,2.969H85.803l52.791,24.254c0-19.886,0-39.794,0-50.973H61.406V66.229z
			 M123.75,53.688c1.639,0,2.969,1.33,2.969,2.969c0,1.639-1.33,2.969-2.969,2.969s-2.969-1.33-2.969-2.969
			C120.781,55.017,122.111,53.688,123.75,53.688z M76.25,53.688h35.625c1.64,0,2.969,1.329,2.969,2.969s-1.329,2.969-2.969,2.969
			H76.25c-1.64,0-2.969-1.329-2.969-2.969S74.61,53.688,76.25,53.688z"/>
		<path style="fill:#A4A4A4;" d="M61.406,41.812v8.906h77.188c0-4.843,0-8.057,0-8.906H61.406z"/>
		<path style="fill:#4D4D4D;" d="M114.844,158.188h-71.25v2.969c0,4.911,3.995,8.906,8.906,8.906h65.319
			c-1.867-2.482-2.976-5.568-2.976-8.906V158.188z"/>
		<circle cx="123.75" cy="56.656" r="2.969"/>
		<path d="M141.637,161.156c0,6.558-5.317,11.875-11.875,11.875H52.574c-6.558,0-11.875-5.317-11.875-11.875v-5.938h17.812
			c0-3.408,0-44.918,0-77.443l-3.043-1.398v75.872H40.625c-1.64,0-2.969,1.329-2.969,2.969v5.938
			c0,8.185,6.659,14.844,14.844,14.844h77.188c8.185,0,14.844-6.659,14.844-14.844c0-0.755,0-21.076,0-43.859l-2.895-1.33
			C141.637,139.29,141.637,159.292,141.637,161.156z"/>
		<path d="M58.512,50.719H38.918c-6.558,0-11.875-5.317-11.875-11.875c0-6.558,5.317-11.875,11.875-11.875H161.23
			c6.558,0,11.875,5.317,11.875,11.875c0,6.558-5.317,11.875-11.875,11.875h-19.594c0,12.405,0,32.602,0,52.371l2.895,1.33
			c0-24.634,0-48.45,0-50.732h16.625c8.185,0,14.844-6.659,14.844-14.844C176,30.659,169.341,24,161.156,24H38.844
			C30.659,24,24,30.659,24,38.844c0,8.185,6.659,14.844,14.844,14.844h16.625v9.813l3.043,1.398
			C58.512,59.551,58.512,54.729,58.512,50.719z"/>
		<path d="M141.637,38.844c0,1.071,0,5.422,0,11.875h19.594c6.558,0,11.875-5.317,11.875-11.875c0-6.558-5.317-11.875-11.875-11.875
			H38.918c-6.558,0-11.875,5.317-11.875,11.875c0,6.558,5.317,11.875,11.875,11.875h19.594c0-6.563,0-10.951,0-11.875H141.637z
			 M55.469,47.75H38.844c-4.911,0-8.906-3.995-8.906-8.906c0-4.911,3.995-8.906,8.906-8.906h122.312
			c4.911,0,8.906,3.995,8.906,8.906c0,4.911-3.995,8.906-8.906,8.906h-16.625v-5.938h10.688c1.64,0,2.969-1.329,2.969-2.969
			s-1.329-2.969-2.969-2.969H44.781c-1.64,0-2.969,1.329-2.969,2.969s1.329,2.969,2.969,2.969h10.688V47.75z"/>
		<path d="M61.406,50.719h-2.895c0,4.011,0,8.832,0,14.18l2.895,1.33V50.719z"/>
		<path d="M138.594,50.719c0,11.179,0,31.087,0,50.973l3.043,1.398c0-19.77,0-39.966,0-52.371H138.594z"/>
		<path d="M138.594,161.156c0,4.911-3.995,8.906-8.906,8.906s-8.906-3.995-8.906-8.906v-5.938c0-1.639-1.329-2.969-2.969-2.969
			H61.406V79.106l-2.895-1.33c0,32.524,0,74.035,0,77.443h59.375v5.938c0,6.558,5.317,11.875,11.875,11.875
			s11.875-5.317,11.875-11.875c0-1.864,0-21.867,0-45.189l-3.043-1.398C138.594,138.173,138.594,158.922,138.594,161.156z"/>
		<path d="M61.406,41.812h77.188c0,0.849,0,4.063,0,8.906h3.043c0-6.453,0-10.804,0-11.875H58.512c0,0.924,0,5.312,0,11.875h2.895
			V41.812z"/>
		<path d="M117.887,161.156v-5.938H58.512H40.699v5.938c0,6.558,5.317,11.875,11.875,11.875h77.188
			C123.204,173.031,117.887,167.714,117.887,161.156z M52.5,170.062c-4.911,0-8.906-3.995-8.906-8.906v-2.969h71.25v2.969
			c0,3.339,1.108,6.424,2.976,8.906H52.5z"/>
		<path d="M76.25,59.625h35.625c1.64,0,2.969-1.329,2.969-2.969s-1.329-2.969-2.969-2.969H76.25c-1.64,0-2.969,1.329-2.969,2.969
			S74.61,59.625,76.25,59.625z"/>
		<path d="M123.75,77.438c1.64,0,2.969-1.329,2.969-2.969S125.39,71.5,123.75,71.5h-47.5c-0.716,0-1.364,0.264-1.877,0.686
			l11.43,5.251H123.75z"/>
		<path d="M91.39,105.727c0,4.911,3.995,8.906,8.906,8.906c1.637,0,2.969,1.332,2.969,2.969s-1.332,2.969-2.969,2.969
			c-1.269,0-2.638-0.798-3.855-2.246c-1.055-1.255-2.928-1.417-4.183-0.362c-1.255,1.055-1.417,2.928-0.362,4.183
			c1.587,1.888,3.453,3.204,5.431,3.867v3.465c0,1.639,1.329,2.969,2.969,2.969s2.969-1.329,2.969-2.969v-3.479
			c3.455-1.225,5.938-4.525,5.938-8.396c0-4.911-3.995-8.906-8.906-8.906c-1.637,0-2.969-1.332-2.969-2.969s1.332-2.969,2.969-2.969
			c1.052,0,2.162,0.537,3.211,1.552c1.179,1.14,3.058,1.109,4.198-0.069c0.989-1.023,1.094-2.572,0.335-3.709L97.328,95.61v1.721
			C93.872,98.557,91.39,101.856,91.39,105.727z"/>
	</g>
	<rect x="-8.257" y="84.357" transform="matrix(0.9087 0.4175 -0.4175 0.9087 45.9967 -33.6853)" width="216.513" height="7.89"/>
</g>
<g>
</g>
<g>
</g>
<g>
</g>
<g>
</g>
<g>
</g>
<g>
</g>
<g>
</g>
<g>
</g>
<g>
</g>
<g>
</g>
<g>
</g>
<g>
</g>
<g>
</g>
<g>
</g>
<g>
</g>
</svg>
