<?xml version="1.0" encoding="utf-8"?>
<!-- Generator: Adobe Illustrator 22.0.0, SVG Export Plug-In . SVG Version: 6.00 Build 0)  -->
<svg version="1.1" id="Layer_1" xmlns="http://www.w3.org/2000/svg" xmlns:xlink="http://www.w3.org/1999/xlink" x="0px" y="0px"
	 viewBox="0 0 189 189" style="enable-background:new 0 0 189 189;" xml:space="preserve">
<style type="text/css">
	.st0{opacity:0.3;}
	.st1{fill:none;}
	.st2{opacity:0.4;}
</style>
<g class="st0">
	<path class="st1" d="M127,55.8c0.1,1.9,0.4,3.9,0.5,6.1c2.9,1.1,5.1,3.9,4.5,10.7c-0.6,7-4.2,10-8,10.7
		c-2.6,6.4-6.4,12.3-11.2,16.6l11.6,2.9c15.7,3.9,26.6,17.9,26.6,34.1v8.7l0.1,0.1V26.7h-48.6C117,26.9,125.9,36.5,127,55.8z"/>
	<path class="st1" d="M144.9,136.8c0-9.8-4.9-18.7-12.7-24v13.3l12.7,13.1V136.8z"/>
	<path class="st1" d="M106.3,122.5l-6.6-1.9c-1,0.9-2.3,1.5-3.8,1.5c-1.5,0-2.8-0.6-3.8-1.5l-6.6,1.9c-1.9,0.6-3.7-0.9-3.7-2.8v-7.1
		c0-1.9,1.8-3.4,3.7-2.8l6.3,1.8c0.1,0,0.2,0,0.3,0.1c1-0.9,2.3-1.5,3.8-1.5s2.8,0.6,3.8,1.5c0.1,0,0.2,0,0.3-0.1l0.3-0.1l-4.5-4.6
		c-3.5,0-6.8-0.8-9.9-2.3l-13.1,3.3l21.1,52.3h4.4l14.5-35.8l-3.1-3.2C109,122.2,107.7,122.9,106.3,122.5z M95.9,146.9
		c-1.9,0-3.5-1.6-3.5-3.5c0-1.9,1.6-3.5,3.5-3.5c1.9,0,3.5,1.6,3.5,3.5C99.4,145.3,97.9,146.9,95.9,146.9z M95.9,134.4
		c-1.9,0-3.5-1.6-3.5-3.5c0-1.9,1.6-3.5,3.5-3.5c1.9,0,3.5,1.6,3.5,3.5C99.4,132.8,97.9,134.4,95.9,134.4z"/>
	<polygon class="st1" points="119.3,107.8 112.9,106.2 117.9,111.3 	"/>
	<path class="st1" d="M132.2,160.1h8.8c1.7,0,3.2-1.2,3.7-2.8l-12.5-12.9V160.1z"/>
	<path class="st1" d="M121.5,65.4c0-4.1-0.2-7.7-0.7-10.8c-0.4-2.7-1.6-5.3-3.5-7.3c-2-2.1-5.3-2.3-7.5-0.4
		c-8.4,7.2-19.5,10-25.8,11c-0.6,0.1-1.3-0.2-1.6-0.8c-0.3-0.6-0.2-1.3,0.3-1.8c0.1-0.1,0.3-0.3,0.4-0.4c0.8-0.8,0.9-2.1,0.3-3
		c-0.6-0.9-1.8-1.3-2.8-1c-0.1,0-0.2,0.1-0.3,0.1c-3,1-5.6,3.1-7.1,5.9c-0.9,1.5-1.8,3.5-2.5,5.7L104.9,98
		C114.6,92.1,121.5,77.7,121.5,65.4z"/>
	<path class="st1" d="M87.9,98.7L75.9,86.3C79,91.7,83.2,96.2,87.9,98.7z"/>
	<path class="st1" d="M51,160.1h9v-47.4c-7.9,5.3-12.9,14.2-12.9,24.1v19.3C47.1,158.2,48.9,160.1,51,160.1z"/>
	<path class="st1" d="M141,166.2H51c-5.5,0-10-4.6-10-10v12H151v-4.3l-1.9-1.9C147.3,164.5,144.4,166.2,141,166.2z"/>
	<path d="M51,166.2h90c3.4,0,6.3-1.7,8.2-4.3l-4.5-4.6c-0.5,1.6-2,2.8-3.7,2.8h-8.8v-15.7l-19.5-20.1l-14.5,35.8h-4.4l-21.1-52.3
		l13.1-3.3c3.1,1.5,6.4,2.3,9.9,2.3l-7.8-8.1c-4.8-2.5-9-7-12.1-12.4L60,69.8c0,0.8,0,1.7,0.1,2.7c0.6,6.8,3.9,9.8,7.6,10.7
		c2.6,6.5,6.6,12.4,11.4,16.7l-11.5,2.9c-15.7,3.9-26.7,17.9-26.7,34.1v19.3C40.9,161.6,45.5,166.2,51,166.2z M47.1,136.8
		c0-9.9,5.1-18.8,12.9-24.1v47.4h-9c-2.1,0-3.9-1.8-3.9-3.9V136.8z"/>
	<path d="M90.9,26.9c-9.1-1.5-18.5,5.5-23.1,12.7c-3.3,5.1-4.1,11.2-4.1,15.7l6.9,7.2c0.7-2.2,1.6-4.1,2.5-5.7
		c1.6-2.8,4.1-4.8,7.1-5.9c0.1,0,0.2-0.1,0.3-0.1c1.1-0.4,2.2,0,2.8,1c0.6,0.9,0.5,2.2-0.3,3c-0.1,0.1-0.3,0.3-0.4,0.4
		c-0.5,0.5-0.6,1.2-0.3,1.8c0.3,0.6,1,0.9,1.6,0.8c6.3-1,17.5-3.8,25.8-11c2.2-1.9,5.5-1.7,7.5,0.4c1.9,2,3.1,4.6,3.5,7.3
		c0.5,3.1,0.7,6.6,0.7,10.8c0,12.4-6.8,26.7-16.5,32.6l8,8.2l6.4,1.6l-1.4,3.5l14.3,14.7v-13.3c7.8,5.3,12.7,14.2,12.7,24v2.4
		l6.1,6.3v-8.7c0-16.1-11-30.2-26.6-34.1l-11.6-2.9c4.8-4.3,8.7-10.1,11.2-16.6c3.8-0.7,7.4-3.7,8-10.7c0.6-6.8-1.7-9.6-4.5-10.7
		c-0.1-2.2-0.3-4.2-0.5-6.1c-1.2-19.3-10.1-28.9-24.6-29.1h-0.3c-1.4,0-2.9,0.1-4.4,0.2C95.4,27.2,93.2,27.3,90.9,26.9z"/>
	<path d="M95.9,127.4c-1.9,0-3.5,1.6-3.5,3.5c0,1.9,1.6,3.5,3.5,3.5c1.9,0,3.5-1.6,3.5-3.5C99.4,129,97.9,127.4,95.9,127.4z"/>
	<path d="M95.9,139.9c-1.9,0-3.5,1.6-3.5,3.5c0,1.9,1.6,3.5,3.5,3.5c1.9,0,3.5-1.6,3.5-3.5C99.4,141.4,97.9,139.9,95.9,139.9z"/>
	<path d="M99.7,111.6c-1-0.9-2.3-1.5-3.8-1.5s-2.8,0.6-3.8,1.5c-0.1,0-0.2,0-0.3-0.1l-6.3-1.8c-1.9-0.5-3.7,0.9-3.7,2.8v7.1
		c0,2,1.8,3.4,3.7,2.8l6.6-1.9c1,0.9,2.3,1.5,3.8,1.5c1.5,0,2.8-0.6,3.8-1.5l6.6,1.9c1.4,0.4,2.7-0.2,3.3-1.4l-9.4-9.7l-0.3,0.1
		C99.9,111.5,99.8,111.5,99.7,111.6z"/>
</g>
<rect x="-30.1" y="90.3" transform="matrix(0.6959 0.7182 -0.7182 0.6959 96.7398 -40.2208)" class="st2" width="251.9" height="7.7"/>
</svg>
