<?xml version="1.0" encoding="utf-8"?>
<!-- Generator: Adobe Illustrator 22.0.0, SVG Export Plug-In . SVG Version: 6.00 Build 0)  -->
<svg version="1.1" id="Calque_1" xmlns="http://www.w3.org/2000/svg" xmlns:xlink="http://www.w3.org/1999/xlink" x="0px" y="0px"
	 viewBox="0 0 200 200" style="enable-background:new 0 0 200 200;" xml:space="preserve">
<style type="text/css">
	.st0{fill:#27809B;}
	.st1{fill:#8CADC1;}
</style>
<g>
	<path class="st0" d="M60,46.7c-5.5,0-10,4.5-10,10V110c0,3.7-3,6.7-6.7,6.7H70v-60C70,51.1,65.5,46.7,60,46.7L60,46.7z M60,46.7"/>
	<path class="st1" d="M50,110V56.7c0-5.5,4.5-10,10-10h70V3.3l-6.7,3.3l-6.7-3.3L110,6.7l-6.7-3.3l-6.7,3.3L90,3.3l-6.7,3.3
		l-6.7-3.3L70,6.7l-6.7-3.3l-6.7,3.3L50,3.3l-6.7,3.3l-6.7-3.3V110c0,3.7,3,6.7,6.7,6.7C47,116.7,50,113.7,50,110L50,110z M50,110"
		/>
	<path class="st1" d="M150,46.7H60c5.5,0,10,4.5,10,10v140l6.7-3.3l6.7,3.3l6.7-3.3l6.7,3.3l6.7-3.3l6.7,3.3l6.7-3.3l6.7,3.3
		l6.7-3.3l6.7,3.3l6.7-3.3l6.7,3.3l6.7-3.3l6.7,3.3V60C163.3,52.6,157.4,46.7,150,46.7L150,46.7z M150,46.7"/>
	<path d="M38.2,0.4c-1.6-0.8-3.6-0.2-4.5,1.5c-0.2,0.5-0.4,1-0.4,1.5V110c0,5.5,4.5,10,10,10h23.3v76.7c0,1.8,1.5,3.3,3.3,3.4
		c0.5,0,1-0.1,1.5-0.4l5.2-2.6l5.2,2.6c0.9,0.5,2,0.5,3,0L90,197l5.2,2.6c0.9,0.5,2,0.5,3,0l5.2-2.6l5.2,2.6c0.9,0.5,2,0.5,3,0
		l5.2-2.6l5.2,2.6c0.9,0.5,2,0.5,3,0l5.2-2.6l5.2,2.6c0.9,0.5,2,0.5,3,0l5.2-2.6l5.2,2.6c0.9,0.5,2,0.5,3,0l5.2-2.6l5.2,2.6
		c1.6,0.8,3.6,0.2,4.5-1.5c0.2-0.5,0.4-1,0.4-1.5V60c0-9.2-7.5-16.7-16.7-16.7h-16.7v-40c0-1.8-1.5-3.3-3.3-3.3
		c-0.5,0-1,0.1-1.5,0.4l-5.2,2.6l-5.2-2.6c-0.9-0.5-2-0.5-3,0L110,2.9l-5.2-2.6c-0.9-0.5-2-0.5-3,0l-5.2,2.6l-5.2-2.6
		c-0.9-0.5-2-0.5-3,0l-5.2,2.6l-5.2-2.6c-0.9-0.5-2-0.5-3,0L70,2.9l-5.2-2.6c-0.9-0.5-2-0.5-3,0l-5.2,2.6l-5.2-2.6
		c-0.9-0.5-2-0.5-3,0l-5.2,2.6L38.2,0.4z M66.7,113.3H52.7c0.4-1.1,0.6-2.2,0.6-3.3V56.7c0-3.7,3-6.7,6.7-6.7c3.7,0,6.7,3,6.7,6.7
		V113.3z M150,50c5.5,0,10,4.5,10,10v131.3l-1.8-0.9c-0.9-0.5-2-0.5-3,0l-5.2,2.6l-5.2-2.6c-0.9-0.5-2-0.5-3,0l-5.2,2.6l-5.2-2.6
		c-0.9-0.5-2-0.5-3,0l-5.2,2.6l-5.2-2.6c-0.9-0.5-2-0.5-3,0l-5.2,2.6l-5.2-2.6c-0.9-0.5-2-0.5-3,0l-5.2,2.6l-5.2-2.6
		c-0.9-0.5-2-0.5-3,0l-5.2,2.6l-5.2-2.6c-0.9-0.5-2-0.5-3,0l-1.8,0.9V56.7c0-2.3-0.6-4.6-1.8-6.7H150z M50,7.1l5.2,2.6
		c0.9,0.5,2,0.5,3,0l5.2-2.6l5.2,2.6c0.9,0.5,2,0.5,3,0l5.2-2.6l5.2,2.6c0.9,0.5,2,0.5,3,0L90,7.1l5.2,2.6c0.9,0.5,2,0.5,3,0
		l5.2-2.6l5.2,2.6c0.9,0.5,2,0.5,3,0l5.2-2.6l5.2,2.6c0.9,0.5,2,0.5,3,0l1.8-0.9v34.6H60c-7.4,0-13.3,6-13.3,13.3V110
		c0,1.8-1.5,3.3-3.3,3.3c-1.8,0-3.3-1.5-3.3-3.3V8.7l1.8,0.9c0.9,0.5,2,0.5,3,0L50,7.1z M50,7.1"/>
	<path d="M140,153.3h6.7c1.8,0,3.3-1.5,3.3-3.3c0-1.8-1.5-3.3-3.3-3.3h-3.3c0-1.8-1.5-3.3-3.3-3.3c-1.8,0-3.3,1.5-3.3,3.3v0.6
		c-5.2,1.8-7.9,7.5-6.1,12.7c1.4,4,5.2,6.7,9.4,6.7c1.8,0,3.3,1.5,3.3,3.3c0,1.8-1.5,3.3-3.3,3.3h-6.7c-1.8,0-3.3,1.5-3.3,3.3
		c0,1.8,1.5,3.3,3.3,3.3h3.3c0,1.8,1.5,3.3,3.3,3.3c1.8,0,3.3-1.5,3.3-3.3v-0.6c5.2-1.8,7.9-7.5,6.1-12.7c-1.4-4-5.2-6.7-9.4-6.7
		c-1.8,0-3.3-1.5-3.3-3.3C136.7,154.8,138.2,153.3,140,153.3L140,153.3z M140,153.3"/>
	<path d="M83.3,63.3h33.3c1.8,0,3.3-1.5,3.3-3.3c0-1.8-1.5-3.3-3.3-3.3H83.3c-1.8,0-3.3,1.5-3.3,3.3C80,61.8,81.5,63.3,83.3,63.3
		L83.3,63.3z M83.3,63.3"/>
	<path d="M83.3,76.7H150c1.8,0,3.3-1.5,3.3-3.3c0-1.8-1.5-3.3-3.3-3.3H83.3c-1.8,0-3.3,1.5-3.3,3.3C80,75.2,81.5,76.7,83.3,76.7
		L83.3,76.7z M83.3,76.7"/>
	<path d="M83.3,90h50c1.8,0,3.3-1.5,3.3-3.3c0-1.8-1.5-3.3-3.3-3.3h-50c-1.8,0-3.3,1.5-3.3,3.3C80,88.5,81.5,90,83.3,90L83.3,90z
		 M83.3,90"/>
	<path d="M83.3,103.3h33.3c1.8,0,3.3-1.5,3.3-3.3s-1.5-3.3-3.3-3.3H83.3c-1.8,0-3.3,1.5-3.3,3.3S81.5,103.3,83.3,103.3L83.3,103.3z
		 M83.3,103.3"/>
	<path d="M83.3,116.7H150c1.8,0,3.3-1.5,3.3-3.3c0-1.8-1.5-3.3-3.3-3.3H83.3c-1.8,0-3.3,1.5-3.3,3.3C80,115.2,81.5,116.7,83.3,116.7
		L83.3,116.7z M83.3,116.7"/>
	<path d="M83.3,130H130c1.8,0,3.3-1.5,3.3-3.3s-1.5-3.3-3.3-3.3H83.3c-1.8,0-3.3,1.5-3.3,3.3S81.5,130,83.3,130L83.3,130z M83.3,130
		"/>
	<path d="M83.3,143.3h33.3c1.8,0,3.3-1.5,3.3-3.3c0-1.8-1.5-3.3-3.3-3.3H83.3c-1.8,0-3.3,1.5-3.3,3.3
		C80,141.8,81.5,143.3,83.3,143.3L83.3,143.3z M83.3,143.3"/>
	<path d="M83.3,156.7h33.3c1.8,0,3.3-1.5,3.3-3.3c0-1.8-1.5-3.3-3.3-3.3H83.3c-1.8,0-3.3,1.5-3.3,3.3
		C80,155.2,81.5,156.7,83.3,156.7L83.3,156.7z M83.3,156.7"/>
	<path d="M83.3,183.3h33.3c1.8,0,3.3-1.5,3.3-3.3c0-1.8-1.5-3.3-3.3-3.3H83.3c-1.8,0-3.3,1.5-3.3,3.3
		C80,181.8,81.5,183.3,83.3,183.3L83.3,183.3z M83.3,183.3"/>
	<path d="M50,23.3h66.7c1.8,0,3.3-1.5,3.3-3.3c0-1.8-1.5-3.3-3.3-3.3H50c-1.8,0-3.3,1.5-3.3,3.3C46.7,21.8,48.2,23.3,50,23.3
		L50,23.3z M50,23.3"/>
	<path d="M50,36.7h66.7c1.8,0,3.3-1.5,3.3-3.3c0-1.8-1.5-3.3-3.3-3.3H50c-1.8,0-3.3,1.5-3.3,3.3C46.7,35.2,48.2,36.7,50,36.7
		L50,36.7z M50,36.7"/>
</g>
</svg>
