<?xml version="1.0" encoding="utf-8"?>
<!-- Generator: Adobe Illustrator 22.1.0, SVG Export Plug-In . SVG Version: 6.00 Build 0)  -->
<svg version="1.1" id="Calque_1" xmlns="http://www.w3.org/2000/svg" xmlns:xlink="http://www.w3.org/1999/xlink" x="0px" y="0px"
	 viewBox="0 0 200 200" style="enable-background:new 0 0 200 200;" xml:space="preserve">
<style type="text/css">
	.st0{fill:#CF648C;}
	.st1{fill:#FF7BAC;}
	.st2{clip-path:url(#SVGID_2_);fill:#FF7BAC;}
	.st3{clip-path:url(#SVGID_2_);fill:#EEB83B;}
	.st4{clip-path:url(#SVGID_4_);fill:#FED856;}
	.st5{clip-path:url(#SVGID_4_);}
</style>
<g>
	<rect x="52.1" y="159" class="st0" width="16" height="22.4"/>
	<rect x="109.6" y="159" class="st0" width="16" height="22.4"/>
	<path class="st1" d="M100,53.5H87.3c-30.4,0-56.6,21.4-62.7,51.2h-4.5c-5.3,0-9.6,4.3-9.6,9.6v19.2c0,5.3,4.3,9.6,9.6,9.6h7
		c6.9,15.5,22.4,25.6,39.4,25.6h71.9c20.8,0.1,37.9-16.5,38.4-37.3c0.6-42.4-33.3-77.2-75.7-77.8C100.7,53.5,100.4,53.5,100,53.5
		L100,53.5z M100,53.5"/>
	<path class="st0" d="M69.3,56.1c-27.3-11-46-7.1-46,3.8c0,9.2,6.6,18.4,10.3,22.8C42,69.9,54.6,60.4,69.3,56.1L69.3,56.1z
		 M69.3,56.1"/>
	<g>
		<defs>
			<rect id="SVGID_1_" x="7.3" y="8.4" width="192" height="183.1"/>
		</defs>
		<clipPath id="SVGID_2_">
			<use xlink:href="#SVGID_1_"  style="overflow:visible;"/>
		</clipPath>
		<polyline class="st2" points="125.6,155.8 125.6,187.8 151.2,187.8 151.2,159 		"/>
		<path class="st3" d="M61.7,56.7c0,12,4.8,23.6,13.5,32h62.6c17.7-17.3,18-45.6,0.7-63.3c-17.3-17.7-45.6-18-63.3-0.7
			C66.5,33.1,61.7,44.7,61.7,56.7L61.7,56.7z M61.7,56.7"/>
	</g>
	<polyline class="st1" points="68.1,155.8 68.1,187.8 93.6,187.8 93.6,159 	"/>
	<g>
		<defs>
			<rect id="SVGID_3_" x="7.3" y="8.4" width="192" height="183.1"/>
		</defs>
		<clipPath id="SVGID_4_">
			<use xlink:href="#SVGID_3_"  style="overflow:visible;"/>
		</clipPath>
		<path class="st4" d="M138.4,56.7c0,17.7-14.3,32-32,32c-17.7,0-32-14.3-32-32s14.3-32,32-32C124.1,24.8,138.4,39.1,138.4,56.7
			L138.4,56.7z M138.4,56.7"/>
		<path class="st5" d="M191.2,101.5c-4.6,0.1-8.1,3.9-8,8.5c0,0.1,0,0.2,0,0.3v0.8h-5.5c-3.9-16-12.7-30.3-25.1-41.1
			c7.4-25.4-7.3-52-32.7-59.4c-25.4-7.4-52,7.3-59.4,32.7c-0.6,2-1,4-1.3,6c-14.8-4.1-27.3-3.8-34,1c-3.2,2.2-5.1,5.8-5,9.6
			c0,9,5.5,17.7,9.6,23c-3.5,5.8-6,12-7.7,18.5h-1.9c-7.1,0-12.8,5.7-12.8,12.8v19.2c0,7.1,5.7,12.8,12.8,12.8h4.9
			c5,10,13.5,17.8,23.8,22.1v13.1c0,1.8,1.4,3.2,3.2,3.2h12.8v3.2c0,1.8,1.4,3.2,3.2,3.2h25.6c1.8,0,3.2-1.4,3.2-3.2v-16h9.6v9.6
			c0,1.8,1.4,3.2,3.2,3.2h12.8v3.2c0,1.8,1.4,3.2,3.2,3.2h25.6c1.8,0,3.2-1.4,3.2-3.2v-19.2c15.2-6.2,25.2-20.9,25.6-37.3
			c0.1-4.6-0.3-9.3-1-13.9h4.2v6.4h6.4v-6.4h1.6c4.4,0,8-3.6,8-8C199.1,105.1,195.6,101.5,191.2,101.5L191.2,101.5z M106.4,15.2
			c22.9,0,41.6,18.6,41.6,41.5c0,10.7-4.1,21.1-11.6,28.8h-9.8c15.9-11.1,19.8-33.1,8.7-49c-11.1-15.9-33.1-19.8-49-8.7
			c-15.9,11.1-19.8,33.1-8.7,49c2.4,3.4,5.3,6.3,8.7,8.7h-9.8C60.6,69,61.1,42.7,77.6,26.8C85.4,19.3,95.7,15.2,106.4,15.2
			L106.4,15.2z M106.4,85.5c-15.9,0-28.8-12.9-28.8-28.8c0-15.9,12.9-28.8,28.8-28.8c15.9,0,28.8,12.9,28.8,28.8
			C135.2,72.6,122.3,85.5,106.4,85.5L106.4,85.5z M26.5,59.9c0-1.8,0.9-3.5,2.4-4.4c3.5-2.1,7.5-3,11.6-2.7c6.1,0.2,12.2,1.2,18,3
			c0,0.3,0,0.6,0,0.9v0.1c-9.9,4.7-18.5,11.7-25,20.5C29.5,72.3,27.1,66.3,26.5,59.9L26.5,59.9z M55.3,178.2v-7.8
			c3.1,0.8,6.4,1.2,9.6,1.3v6.5H55.3z M112.8,178.2v-6.4h9.6v6.4H112.8z M154.4,161.6V159H148v25.6h-19.2v-28.8h-6.4v9.6H96.8V159
			h-6.4v25.6H71.3v-28.8h-6.4v9.5c-15.2-0.6-28.7-9.8-34.9-23.6c-0.5-1.2-1.7-1.9-2.9-1.9h-7c-3.5,0-6.4-2.9-6.4-6.4v-19.2
			c0-3.5,2.9-6.4,6.4-6.4h4.5c1.5,0,2.8-1.1,3.1-2.6c1.5-7.4,4.4-14.4,8.4-20.7c0-0.1,0.1-0.1,0.1-0.1C42,75.7,49.8,68.6,59,63.7
			c1.1,7.9,4.3,15.4,9.1,21.8h-6.5v6.4h89.5v-6.4h-6.5c2.1-2.8,4-5.9,5.4-9.1c15.2,14.1,23.8,34.1,23.4,54.8
			C173.3,144.1,165.9,155.8,154.4,161.6L154.4,161.6z M191.2,111.1h-1.6v-0.8c0-1.2,0.4-2.4,1.6-2.4c0.9,0,1.6,0.7,1.6,1.6
			C192.8,110.4,192,111.1,191.2,111.1L191.2,111.1z M191.2,111.1"/>
	</g>
	<path d="M109.6,41.2v-3.7h-6.4v3.7c-4.8,1.5-7.5,6.6-6,11.4c0.7,2.4,2.4,4.3,4.6,5.4l6.2,3.1c1.3,0.7,1.9,2.3,1.2,3.7
		c-0.5,0.9-1.4,1.5-2.4,1.5H106c-1.5,0-2.7-1.2-2.7-2.7v-0.5h-6.4v0.5c0,4,2.6,7.5,6.4,8.7v3.7h6.4v-3.7c4.8-1.5,7.5-6.6,6-11.4
		c-0.7-2.4-2.4-4.3-4.6-5.4l-6.2-3.1c-1.3-0.7-1.9-2.3-1.2-3.7c0.5-0.9,1.4-1.5,2.4-1.5h0.9c1.5,0,2.7,1.2,2.7,2.7v0.5h6.4v-0.5
		C116,45.9,113.4,42.4,109.6,41.2L109.6,41.2z M109.6,41.2"/>
	<rect x="20.1" y="114.3" width="6.4" height="6.4"/>
	<rect x="84.1" y="53.5" width="6.4" height="6.4"/>
	<rect x="122.4" y="53.5" width="6.4" height="6.4"/>
	<rect x="42.5" y="91.9" width="6.4" height="6.4"/>
</g>
</svg>
