<?xml version="1.0" encoding="utf-8"?>
<!-- Generator: Adobe Illustrator 22.0.0, SVG Export Plug-In . SVG Version: 6.00 Build 0)  -->
<svg version="1.1" id="Capa_1" xmlns="http://www.w3.org/2000/svg" xmlns:xlink="http://www.w3.org/1999/xlink" x="0px" y="0px"
	 viewBox="0 0 472.6 472.6" style="enable-background:new 0 0 472.6 472.6;" xml:space="preserve">
<style type="text/css">
	.st0{fill:#7DB2C3;}
	.st1{fill:#267F9B;}
	.st2{fill:#F2F2F2;}
	.st3{fill:#5199AF;}
	.st4{fill:#FFFFFF;stroke:#000000;stroke-width:10;stroke-miterlimit:10;}
	.st5{stroke:#000000;stroke-width:3;stroke-miterlimit:10;}
</style>
<g>
	<rect x="158.9" y="89.2" class="st0" width="224.6" height="371.8"/>
	<polyline class="st1" points="158.9,89.2 89.1,11.7 89.1,383.5 158.9,460.9 	"/>
	<path class="st2" d="M197.6,378.2v-258l15.5,7.7l15.5-7.7l15.5,7.7l15.5-7.7l15.5,7.7l15.5-7.7l15.5,7.7l15.5-7.7l15.5,7.7
		l15.5-7.7v146.7L197.6,378.2z"/>
	<path class="st3" d="M189.8,460.9v-85.2l111.6-111.3c2.9-3.1,7-4.9,11.3-4.9h70.7v201.4L189.8,460.9L189.8,460.9z"/>
	<path d="M162.3,81.4L94.9,6.5C92.1,3.3,87.2,3.1,84,5.9c-1.6,1.5-2.6,3.6-2.6,5.8v371.8c0,1.9,0.7,3.8,2,5.2l69.7,77.5
		c0,0,0.1,0.1,0.2,0.1c0.6,0.6,1.3,1.2,2.1,1.6c0.2,0.1,0.3,0.2,0.5,0.3c1,0.4,2,0.6,3.1,0.6h224.6c4.3,0,7.7-3.5,7.7-7.7V89.2
		c0-4.3-3.5-7.7-7.7-7.7L162.3,81.4L162.3,81.4z M151.1,440.8l-54.2-60.2V31.9l54.2,60.2V440.8z M375.7,453.2H197.6V379l109.5-109.2
		c1.5-1.6,3.5-2.5,5.7-2.5h63v185.9H375.7z M205.3,349.4V132.7l4.3,2.1c2.2,1.1,4.7,1.1,6.9,0l12-6l12,6c2.2,1.1,4.7,1.1,6.9,0l12-6
		l12,6c2.2,1.1,4.7,1.1,6.9,0l12-6l12,6c2.2,1.1,4.7,1.1,6.9,0l12-6l12,6c2.2,1.1,4.7,1.1,6.9,0l4.3-2.1v119.1h-32
		c-6.3,0-12.4,2.6-16.8,7.2L205.3,349.4z M375.7,251.8h-15.5V120.1c0-4.3-3.5-7.7-7.7-7.7c-1.2,0-2.4,0.3-3.5,0.8l-12,6l-12-6
		c-2.2-1.1-4.7-1.1-6.9,0l-12,6l-12-6c-2.2-1.1-4.7-1.1-6.9,0l-12,6l-12-6c-2.2-1.1-4.7-1.1-6.9,0l-12,6l-12-6
		c-2.2-1.1-4.7-1.1-6.9,0l-12,6l-12-6c-3.8-1.9-8.5-0.4-10.4,3.5c-0.5,1.1-0.8,2.3-0.8,3.5v244.7l-5.5,5.4c-1.5,1.5-2.3,3.4-2.3,5.5
		v77.5h-15.5V96.9H376v154.9H375.7z"/>
	<path d="M299,151.1h-62.6c-8.6,0-15.6,3.5-15.6,7.7c0,4.3,7,7.7,15.6,7.7H299c8.6,0,15.6-3.5,15.6-7.7
		C314.7,154.6,307.7,151.1,299,151.1L299,151.1z"/>
	<path d="M286,182.1h-52.2c-7.2,0-13,3.5-13,7.7c0,4.3,5.8,7.7,13,7.7H286c7.2,0,13-3.5,13-7.7S293.2,182.1,286,182.1L286,182.1z"/>
	<path d="M286,213.1h-52.2c-7.2,0-13,3.5-13,7.7c0,4.3,5.8,7.7,13,7.7H286c7.2,0,13-3.5,13-7.7C299,216.5,293.2,213.1,286,213.1
		L286,213.1z"/>
	<path d="M259.5,244.1h-31c-4.3,0-7.7,3.5-7.7,7.7c0,4.3,3.5,7.7,7.7,7.7h31c4.3,0,7.7-3.5,7.7-7.7
		C267.3,247.5,263.8,244.1,259.5,244.1L259.5,244.1z"/>
	<path d="M244.1,275h-15.5c-4.3,0-7.7,3.5-7.7,7.7c0,4.3,3.5,7.7,7.7,7.7h15.5c4.3,0,7.7-3.5,7.7-7.7S248.3,275,244.1,275L244.1,275
		z"/>
</g>
<circle class="st4" cx="367.2" cy="360.2" r="76.7"/>
<g>
	<g id="Layer_2_19_">
		<g>
			<path class="st5" d="M422.2,339.7c-0.9-2.5-3.6-3.6-6.1-2.7c-2.5,0.9-3.6,3.6-2.7,6.1c4.5,11.9,4.3,25-0.8,36.7
				c-5.2,12-14.7,21.4-26.9,26.2c-12.1,4.8-25.5,4.7-37.6-0.4c-3.5-1.5-6.7-3.4-9.8-5.5c-7.3-5.4-13-12.7-16.4-21.4
				c-4.8-12.1-4.7-25.5,0.4-37.6s14.7-21.4,26.9-26.2c11.6-4.6,24.3-4.7,36-0.1l-3.4,5.6c-0.9,1.6-0.2,2.6,1.6,2.2l15.9-2.6
				c1.8-0.3,2.7-1.9,2.1-3.6l-5.4-15.1c-0.6-1.7-1.8-1.8-2.7-0.2l-3.3,5.4c-14.3-6-29.9-6.1-44.3-0.3c-14.5,5.8-25.9,16.9-32.1,31.3
				c-6.2,14.4-6.3,30.3-0.6,44.8c4.2,10.3,10.9,19,19.7,25.4c3.6,2.6,7.4,4.8,11.6,6.6c14.4,6.2,30.3,6.3,44.8,0.6
				c14.5-5.8,25.9-16.9,32.1-31.3C427.3,369.4,427.6,353.9,422.2,339.7z"/>
			<path class="st5" d="M365.4,322.8c-2.1,0-3.8,1.7-3.8,3.8v37.9l34.6,17.9c0.6,0.3,1.1,0.4,1.7,0.4c1.3,0,2.7-0.8,3.4-2
				c1-1.9,0.2-4.2-1.7-5.2L369,359.9v-33.3C369.2,324.5,367.5,322.8,365.4,322.8z"/>
		</g>
	</g>
</g>
</svg>
