<?xml version="1.0" encoding="utf-8"?>
<!-- Generator: Adobe Illustrator 22.0.0, SVG Export Plug-In . SVG Version: 6.00 Build 0)  -->
<svg version="1.1" id="Calque_1" xmlns="http://www.w3.org/2000/svg" xmlns:xlink="http://www.w3.org/1999/xlink" x="0px" y="0px"
	 viewBox="0 0 200 200" style="enable-background:new 0 0 200 200;" xml:space="preserve">
<style type="text/css">
	.st0{fill:#267F9B;}
	.st1{fill:#7DB2C3;}
</style>
<g>
	<path class="st0" d="M145.3,137.2h12.1c12.1,0,21.9-9.8,21.9-21.9c0-12.1-9.8-21.9-21.9-21.9h-10.7l-0.4-17l11.1,0.1
		c21.4,0,38.8,17.4,38.8,38.8c0,21.4-17.4,38.8-38.8,38.8l-13.8-0.1L145.3,137.2z M145.3,137.2"/>
	<path class="st1" d="M3.9,66.3h145v68.9c0,25.3-20.5,45.8-45.8,45.8H49.7c-25.3,0-45.8-20.5-45.8-45.8V66.3z M3.9,66.3"/>
	<rect x="44.3" y="181" class="st0" width="64.1" height="10.1"/>
	<path d="M157.3,73.1h-5.1v-6.7c0-1.9-1.5-3.4-3.4-3.4H3.9c-1.9,0-3.4,1.5-3.4,3.4v68.9c0,23.8,17.1,44.1,40.5,48.4v7.6
		c0,1.9,1.5,3.4,3.4,3.4h64.1c1.9,0,3.4-1.5,3.4-3.4v-7.6c15.2-2.8,28.1-12.4,35.1-26.2h10.4c23.3,0,42.2-18.9,42.2-42.2
		C199.5,91.9,180.6,73.1,157.3,73.1L157.3,73.1z M105.1,187.7H47.7v-3.4h57.3V187.7z M145.5,135.2c0,23.4-19,42.4-42.4,42.4H49.7
		c-23.4,0-42.4-19-42.4-42.4V69.7h138.3V135.2z M152.3,96.7h5.1c10.2,0,18.6,8.3,18.6,18.6c0,10.2-8.3,18.6-18.6,18.6h-5.1V96.7z
		 M157.3,150.6h-7.6c1.1-3.3,1.8-6.7,2.2-10.1h5.4c14,0,25.3-11.3,25.3-25.3c0-14-11.3-25.3-25.3-25.3h-5.1V79.8h5.1
		c19.6,0,35.4,15.9,35.4,35.4S176.9,150.6,157.3,150.6L157.3,150.6z M157.3,150.6"/>
	<path d="M39.8,41.3l-1.5,3.4c-0.8,1.7-0.1,3.7,1.6,4.5c1.7,0.8,3.7,0.1,4.5-1.6c0-0.1,0.1-0.1,0.1-0.2L46,44
		c2.4-5.8,2.2-12.3-0.3-17.9c-1.7-3.9-1.8-8.4-0.2-12.3l1.5-3.4c0.8-1.7,0.1-3.7-1.6-4.5c-1.7-0.8-3.7-0.1-4.5,1.6
		c0,0.1-0.1,0.1-0.1,0.2l-1.5,3.4C36.9,16.8,37,23.3,39.6,29C41.3,32.9,41.4,37.4,39.8,41.3L39.8,41.3z M39.8,41.3"/>
	<path d="M70.2,41.3l-1.5,3.4c-0.8,1.7-0.1,3.7,1.6,4.5c1.7,0.8,3.7,0.1,4.5-1.6c0-0.1,0.1-0.1,0.1-0.2l1.5-3.4
		c2.4-5.8,2.3-12.3-0.3-17.9c-1.7-3.9-1.8-8.4-0.2-12.3l1.5-3.4c0.8-1.7,0.1-3.7-1.6-4.5C74,5,72,5.8,71.2,7.4
		c0,0.1-0.1,0.1-0.1,0.2l-1.5,3.4C67.3,16.8,67.4,23.3,70,29C71.7,32.9,71.8,37.4,70.2,41.3L70.2,41.3z M70.2,41.3"/>
	<path d="M100.5,41.3l-1.5,3.4c-0.8,1.7-0.1,3.7,1.6,4.5c1.7,0.8,3.7,0.1,4.5-1.6c0-0.1,0.1-0.1,0.1-0.2l1.5-3.4
		c2.4-5.8,2.2-12.3-0.3-17.9c-1.7-3.9-1.8-8.4-0.2-12.3l1.5-3.4c0.8-1.7,0.1-3.7-1.6-4.5c-1.7-0.8-3.7-0.1-4.5,1.6
		c0,0.1-0.1,0.1-0.1,0.2l-1.5,3.4c-2.4,5.8-2.3,12.3,0.3,17.9C102.1,32.9,102.1,37.4,100.5,41.3L100.5,41.3z M100.5,41.3"/>
</g>
</svg>
