<?xml version="1.0" encoding="utf-8"?>
<!-- Generator: Adobe Illustrator 22.1.0, SVG Export Plug-In . SVG Version: 6.00 Build 0)  -->
<svg version="1.1" id="Calque_1" xmlns="http://www.w3.org/2000/svg" xmlns:xlink="http://www.w3.org/1999/xlink" x="0px" y="0px"
	 viewBox="0 0 200 200" style="enable-background:new 0 0 200 200;" xml:space="preserve">
<style type="text/css">
	.st0{fill:#7DB2C3;}
	.st1{fill:#267F9B;}
	.st2{fill:#FFFFFF;}
	.st3{fill:#5199AF;}
	.st4{fill:#1C5F74;}
</style>
<g>
	<polygon class="st0" points="36.1,150.6 16.1,33.7 100,4.7 183.9,33.7 163.9,150.6 100,195.3 	"/>
	<polygon class="st1" points="16.1,33.7 36.1,150.6 99.5,195 99.5,4.9 	"/>
	<g>
		<path class="st2" d="M153,131.8c-0.2,0-0.4,0-0.6-0.1c-2-0.3-3.3-2.2-3-4.2l5.6-32.8c0.3-2,2.2-3.3,4.2-3c2,0.3,3.3,2.2,3,4.2
			l-5.6,32.8C156.3,130.5,154.8,131.8,153,131.8z"/>
		<path class="st2" d="M163.9,68.2c-0.2,0-0.4,0-0.6-0.1c-2-0.3-3.3-2.2-3-4.2l3.1-18.2l-20.4-7c-1.9-0.7-2.9-2.7-2.2-4.6
			c0.7-1.9,2.7-2.9,4.6-2.2l23.2,8c1.7,0.6,2.7,2.3,2.4,4l-3.6,21.2C167.2,66.9,165.7,68.2,163.9,68.2z"/>
		<path class="st2" d="M134.7,35.6c-0.4,0-0.8-0.1-1.2-0.2l-15.4-5.3c-1.9-0.7-2.9-2.7-2.2-4.6c0.7-1.9,2.7-2.9,4.6-2.2l15.4,5.3
			c1.9,0.7,2.9,2.7,2.2,4.6C137.6,34.7,136.2,35.6,134.7,35.6z"/>
	</g>
	<path class="st3" d="M134.7,124.3c0-19.2-15.5-34.7-34.7-34.7c-19.2,0-34.7,15.5-34.7,34.7v19.3h69.4V124.3z"/>
	<path class="st4" d="M65.3,124.3v19.3H100v-54C80.8,89.6,65.3,105.1,65.3,124.3z"/>
	<circle class="st3" cx="100" cy="62.6" r="21.2"/>
	<path class="st4" d="M78.8,62.6c0,11.7,9.5,21.2,21.2,21.2V41.4C88.3,41.4,78.8,50.9,78.8,62.6z"/>
	<path d="M65.3,147.2h69.4c2,0,3.6-1.6,3.6-3.6v-19.3c0-18.9-13.8-34.6-31.8-37.7c10.5-2.9,18.3-12.5,18.3-23.9
		c0-13.7-11.1-24.8-24.8-24.8S75.2,49,75.2,62.6c0,11.4,7.8,21.1,18.3,23.9c-18,3.1-31.8,18.8-31.8,37.7v19.3
		C61.7,145.6,63.3,147.2,65.3,147.2z M82.4,62.6c0-9.7,7.9-17.6,17.6-17.6s17.6,7.9,17.6,17.6s-7.9,17.6-17.6,17.6
		S82.4,72.3,82.4,62.6z M68.9,124.3c0-17.1,13.9-31.1,31.1-31.1s31.1,13.9,31.1,31.1V140H68.9V124.3z"/>
	<path d="M14.9,30.3c-1.7,0.6-2.7,2.3-2.4,4l20,116.9c0.2,1,0.7,1.8,1.5,2.3l63.9,44.7c0.6,0.4,1.3,0.7,2.1,0.7
		c0.7,0,1.5-0.2,2.1-0.7l63.9-44.7c0.8-0.6,1.3-1.4,1.5-2.3l20-116.9c0.3-1.7-0.7-3.4-2.4-4l-83.9-29c-0.8-0.3-1.6-0.3-2.4,0
		L14.9,30.3z M179.8,36.1l-19.3,112.4L100,190.9l-60.5-42.4L20.2,36.1L100,8.5L179.8,36.1z"/>
</g>
</svg>
