<?xml version="1.0" encoding="utf-8"?>
<!-- Generator: Adobe Illustrator 22.0.0, SVG Export Plug-In . SVG Version: 6.00 Build 0)  -->
<svg version="1.1" id="Calque_1" xmlns="http://www.w3.org/2000/svg" xmlns:xlink="http://www.w3.org/1999/xlink" x="0px" y="0px"
	 viewBox="0 0 200 200" style="enable-background:new 0 0 200 200;" xml:space="preserve">
<style type="text/css">
	.st0{fill:#29485A;}
	.st1{fill:#267F9B;}
	.st2{fill:#BDCCD4;}
</style>
<g>
	<path class="st0" d="M43.8,123.6H4.1v9.9h39.7c1.8,0,3.3-1.5,3.3-3.3v-3.3C47.1,125.1,45.6,123.6,43.8,123.6L43.8,123.6z
		 M43.8,123.6"/>
	<path class="st1" d="M57,166.6V93.9h86v72.7l-3.1-1.3c-2-0.8-4.2-0.8-6.1,0c-2,0.8-4.2,0.8-6.1,0c-2-0.8-4.2-0.8-6.1,0
		c-2,0.8-4.2,0.8-6.1,0c-2-0.8-4.2-0.8-6.1,0c-2,0.8-4.2,0.8-6.1,0c-2-0.8-4.2-0.8-6.1,0c-2,0.8-4.2,0.8-6.1,0c-2-0.8-4.2-0.8-6.1,0
		c-2,0.8-4.2,0.8-6.1,0c-2-0.8-4.2-0.8-6.1,0c-2,0.8-4.2,0.8-6.1,0c-2-0.8-4.2-0.8-6.1,0L57,166.6z M57,166.6"/>
	<path class="st2" d="M66.9,67.4h13.2V74c0,3.7-3,6.6-6.6,6.6c-3.7,0-6.6-3-6.6-6.6V67.4z M66.9,67.4"/>
	<path class="st2" d="M119.8,67.4h13.2V74c0,3.7-3,6.6-6.6,6.6c-3.7,0-6.6-3-6.6-6.6V67.4z M119.8,67.4"/>
	<path class="st2" d="M76.9,87.3v-6.6c0-1.8-1.5-3.3-3.3-3.3c-1.8,0-3.3,1.5-3.3,3.3v6.6c-1.8,0-3.3,1.5-3.3,3.3
		c0,1.8,1.5,3.3,3.3,3.3h6.6c1.8,0,3.3-1.5,3.3-3.3C80.2,88.7,78.7,87.3,76.9,87.3L76.9,87.3z M76.9,87.3"/>
	<path class="st2" d="M129.8,87.3v-6.6c0-1.8-1.5-3.3-3.3-3.3c-1.8,0-3.3,1.5-3.3,3.3v6.6c-1.8,0-3.3,1.5-3.3,3.3
		c0,1.8,1.5,3.3,3.3,3.3h6.6c1.8,0,3.3-1.5,3.3-3.3C133.1,88.7,131.6,87.3,129.8,87.3L129.8,87.3z M129.8,87.3"/>
	<path class="st0" d="M156.2,126.9c1.8,0,3.3,1.5,3.3,3.3v3.3h33.1v-9.9h-36.4c-1.8,0-3.3,1.5-3.3,3.3v3.3
		C152.9,128.4,154.4,126.9,156.2,126.9L156.2,126.9z M156.2,126.9"/>
	<path class="st0" d="M156.2,133.6h3.3v-3.3c0-1.8-1.5-3.3-3.3-3.3c-1.8,0-3.3,1.5-3.3,3.3C152.9,132.1,154.4,133.6,156.2,133.6
		L156.2,133.6z M156.2,133.6"/>
	<path d="M143,90.6h-9.9c0-1.8-1.5-3.3-3.3-3.3v-3.9c3.9-1.4,6.6-5.1,6.6-9.3v-6.6c0-1.8-1.5-3.3-3.3-3.3h-13.2
		c-1.8,0-3.3,1.5-3.3,3.3V74c0,4.2,2.7,7.9,6.6,9.3v3.9c-1.8,0-3.3,1.5-3.3,3.3h-13.2c0-1.8-1.5-3.3-3.3-3.3V57.5h13.2
		c1.8,0,3.3-1.5,3.3-3.3V37.7c0-1.8-1.5-3.3-3.3-3.3s-3.3,1.5-3.3,3.3v13.2h-9.9V37.7c0-1.8-1.5-3.3-3.3-3.3c-1.8,0-3.3,1.5-3.3,3.3
		v13.2h-9.9V37.7c0-1.8-1.5-3.3-3.3-3.3s-3.3,1.5-3.3,3.3v16.5c0,1.8,1.5,3.3,3.3,3.3h13.2v29.8c-1.8,0-3.3,1.5-3.3,3.3H80.2
		c0-1.8-1.5-3.3-3.3-3.3v-3.9c3.9-1.4,6.6-5.1,6.6-9.3v-6.6c0-1.8-1.5-3.3-3.3-3.3H66.9c-1.8,0-3.3,1.5-3.3,3.3V74
		c0,4.2,2.7,7.9,6.6,9.3v3.9c-1.8,0-3.3,1.5-3.3,3.3H57c-1.8,0-3.3,1.5-3.3,3.3v72.7c0,1.8,1.5,3.3,3.3,3.3c0.4,0,0.9-0.1,1.3-0.3
		l2-0.9v11c0,1.8,1.5,3.3,3.3,3.3c1.8,0,3.3-1.5,3.3-3.3V169c2.3,0.5,4.6,0.3,6.7-0.6c1.1-0.5,2.4-0.5,3.6,0c2.8,1.2,5.9,1.2,8.7,0
		c1.1-0.5,2.4-0.5,3.6,0c2.8,1.2,5.9,1.2,8.7,0c1.1-0.5,2.4-0.5,3.6,0c2.8,1.2,5.9,1.2,8.7,0c1.1-0.5,2.4-0.5,3.6,0
		c2.8,1.2,5.9,1.2,8.7,0c1.1-0.5,2.4-0.5,3.6,0c2.1,0.9,4.5,1.1,6.7,0.6v10.9c0,1.8,1.5,3.3,3.3,3.3c1.8,0,3.3-1.5,3.3-3.3v-11
		l2,0.9c1.7,0.7,3.6-0.1,4.3-1.8c0.2-0.4,0.3-0.8,0.3-1.3V93.9C146.3,92,144.8,90.6,143,90.6L143,90.6z M123.1,70.7h6.6V74
		c0,1.8-1.5,3.3-3.3,3.3c-1.8,0-3.3-1.5-3.3-3.3V70.7z M70.2,70.7h6.6V74c0,1.8-1.5,3.3-3.3,3.3c-1.8,0-3.3-1.5-3.3-3.3V70.7z
		 M139.7,161.8c-2.4-0.6-4.9-0.4-7.2,0.5c-1.1,0.5-2.4,0.5-3.6,0c-2.8-1.2-5.9-1.2-8.7,0c-1.1,0.5-2.4,0.5-3.6,0
		c-2.8-1.2-5.9-1.2-8.7,0c-1.1,0.5-2.4,0.5-3.6,0c-2.8-1.2-5.9-1.2-8.7,0c-1.1,0.5-2.4,0.5-3.6,0c-2.8-1.2-5.9-1.2-8.7,0
		c-1.1,0.5-2.4,0.5-3.6,0c-2.8-1.2-5.9-1.2-8.7,0c-1.1,0.5-2.4,0.5-3.6,0c-2.3-1-4.8-1.1-7.2-0.5V97.2h79.4V161.8z M139.7,161.8"/>
	<path d="M43.8,120.3H7.4V67.4c0-1.8-1.5-3.3-3.3-3.3c-1.8,0-3.3,1.5-3.3,3.3v112.4c0,1.8,1.5,3.3,3.3,3.3c1.8,0,3.3-1.5,3.3-3.3
		v-6.6h33.1v6.6c0,1.8,1.5,3.3,3.3,3.3c1.8,0,3.3-1.5,3.3-3.3v-43.9c2-1.2,3.3-3.3,3.3-5.7v-3.3C50.4,123.3,47.4,120.3,43.8,120.3
		L43.8,120.3z M40.5,166.6H7.4v-29.8h33.1V166.6z M43.8,130.2H7.4v-3.3h36.4V130.2z M43.8,130.2"/>
	<path d="M195.9,64.1c-1.8,0-3.3,1.5-3.3,3.3v52.9h-36.4c-3.7,0-6.6,3-6.6,6.6v3.3c0,2.4,1.3,4.5,3.3,5.7v43.9
		c0,1.8,1.5,3.3,3.3,3.3c1.8,0,3.3-1.5,3.3-3.3v-6.6h33.1v6.6c0,1.8,1.5,3.3,3.3,3.3c1.8,0,3.3-1.5,3.3-3.3V67.4
		C199.2,65.6,197.7,64.1,195.9,64.1L195.9,64.1z M192.6,166.6h-33.1v-29.8h33.1V166.6z M192.6,130.2h-36.4v-3.3h36.4V130.2z
		 M192.6,130.2"/>
	<path d="M80.2,24.4v3.3c0,1.8,1.5,3.3,3.3,3.3s3.3-1.5,3.3-3.3v-3.3c0-1.8-1.5-3.3-3.3-3.3S80.2,22.6,80.2,24.4L80.2,24.4z
		 M80.2,24.4"/>
	<path d="M96.7,24.4v3.3c0,1.8,1.5,3.3,3.3,3.3c1.8,0,3.3-1.5,3.3-3.3v-3.3c0-1.8-1.5-3.3-3.3-3.3C98.2,21.1,96.7,22.6,96.7,24.4
		L96.7,24.4z M96.7,24.4"/>
	<path d="M113.2,24.4v3.3c0,1.8,1.5,3.3,3.3,3.3s3.3-1.5,3.3-3.3v-3.3c0-1.8-1.5-3.3-3.3-3.3S113.2,22.6,113.2,24.4L113.2,24.4z
		 M113.2,24.4"/>
</g>
</svg>
