<?xml version="1.0" encoding="iso-8859-1"?>
<!-- Generator: Adobe Illustrator 22.1.0, SVG Export Plug-In . SVG Version: 6.00 Build 0)  -->
<svg version="1.1" id="Calque_1" xmlns="http://www.w3.org/2000/svg" xmlns:xlink="http://www.w3.org/1999/xlink" x="0px" y="0px"
	 viewBox="0 0 200 200" style="enable-background:new 0 0 200 200;" xml:space="preserve">
<g>
	<path style="fill:#5199AF;" d="M179.761,4.867H20.433c-8.543,0-15.469,6.926-15.469,15.469s6.926,15.469,15.469,15.469h159.328
		c8.543,0,15.469-6.926,15.469-15.469S188.303,4.867,179.761,4.867z"/>
	<path style="fill:#7DB2C3;" d="M154.237,179.664c0,8.543-6.926,15.469-15.469,15.469s-15.469-6.926-15.469-15.469v-7.734H45.956
		c0-7.203,0-145.091,0-151.594h108.281C154.237,28.261,154.237,173.762,154.237,179.664z"/>
	<path style="fill:#1C5F74;" d="M138.769,195.133H38.222c-8.543,0-15.469-6.926-15.469-15.469v-7.734h23.203H123.3v7.734
		C123.3,188.207,130.226,195.133,138.769,195.133z"/>
	<path d="M130.938,39.672c-2.135,0-3.867,1.733-3.867,3.867s1.732,3.867,3.867,3.867s3.867-1.733,3.867-3.867
		S133.072,39.672,130.938,39.672z"/>
	<path d="M179.664,1H20.336C9.674,1,1,9.674,1,20.336s8.674,19.336,19.336,19.336h21.656v128.391H22.656
		c-2.136,0-3.867,1.732-3.867,3.867v7.734c0,10.662,8.674,19.336,19.336,19.336h100.547c10.662,0,19.336-8.674,19.336-19.336
		c0-2.216,0-133.711,0-139.992h21.656c10.662,0,19.336-8.674,19.336-19.336S190.326,1,179.664,1z M38.125,191.266
		c-6.397,0-11.602-5.204-11.602-11.602v-3.867h92.812v3.867c0,4.349,1.444,8.368,3.876,11.602H38.125z M150.273,179.664
		c0,6.397-5.204,11.602-11.602,11.602s-11.602-5.204-11.602-11.602v-7.734c0-2.135-1.731-3.867-3.867-3.867H49.727V24.203h100.547
		C150.273,31.516,150.273,172.793,150.273,179.664z M179.664,31.938h-21.656v-7.734h13.922c2.136,0,3.867-1.732,3.867-3.867
		s-1.731-3.867-3.867-3.867H28.07c-2.136,0-3.867,1.732-3.867,3.867s1.731,3.867,3.867,3.867h13.922v7.734H20.336
		c-6.397,0-11.602-5.204-11.602-11.602S13.939,8.734,20.336,8.734h159.328c6.397,0,11.602,5.204,11.602,11.602
		S186.061,31.938,179.664,31.938z"/>
	<path d="M69.062,47.406h46.406c2.136,0,3.867-1.732,3.867-3.867s-1.731-3.867-3.867-3.867H69.062c-2.136,0-3.867,1.732-3.867,3.867
		S66.927,47.406,69.062,47.406z"/>
	<path d="M130.938,62.875H69.062c-2.136,0-3.867,1.732-3.867,3.867s1.731,3.867,3.867,3.867h61.875c2.136,0,3.867-1.732,3.867-3.867
		S133.073,62.875,130.938,62.875z"/>
	<path d="M100.387,111.327c-2.132,0-3.867-1.735-3.867-3.867s1.735-3.867,3.867-3.867c1.37,0,2.816,0.699,4.183,2.021
		c1.535,1.485,3.983,1.445,5.468-0.09c1.485-1.535,1.445-3.983-0.09-5.469c-1.963-1.899-3.926-2.973-5.694-3.56v-4.505
		c0-2.135-1.731-3.867-3.867-3.867c-2.136,0-3.867,1.732-3.867,3.867v4.532c-4.501,1.596-7.734,5.895-7.734,10.936
		c0,6.397,5.204,11.602,11.602,11.602c2.132,0,3.867,1.735,3.867,3.867s-1.735,3.867-3.867,3.867c-1.652,0-3.436-1.039-5.022-2.925
		c-1.374-1.635-3.814-1.846-5.448-0.472c-1.635,1.374-1.846,3.814-0.471,5.448c2.067,2.46,4.498,4.173,7.075,5.037v4.513
		c0,2.135,1.731,3.867,3.867,3.867c2.136,0,3.867-1.732,3.867-3.867v-4.532c4.501-1.596,7.734-5.895,7.734-10.936
		C111.988,116.531,106.784,111.327,100.387,111.327z"/>
</g>
<g>
</g>
<g>
</g>
<g>
</g>
<g>
</g>
<g>
</g>
<g>
</g>
<g>
</g>
<g>
</g>
<g>
</g>
<g>
</g>
<g>
</g>
<g>
</g>
<g>
</g>
<g>
</g>
<g>
</g>
</svg>
