<?xml version="1.0" encoding="utf-8"?>
<!-- Generator: Adobe Illustrator 22.1.0, SVG Export Plug-In . SVG Version: 6.00 Build 0)  -->
<svg version="1.1" id="Calque_1" xmlns="http://www.w3.org/2000/svg" xmlns:xlink="http://www.w3.org/1999/xlink" x="0px" y="0px"
	 viewBox="0 0 200 200" style="enable-background:new 0 0 200 200;" xml:space="preserve">
<style type="text/css">
	.st0{fill:#267F9B;}
	.st1{fill:#1C5F74;}
	.st2{fill:#FFFFFF;}
	.st3{fill:#D4E5EB;}
	.st4{fill:#5199AF;}
	.st5{fill:#283D4C;}
	.st6{fill:#202121;}
</style>
<g>
	<path class="st0" d="M100.4,4.6c0,0-42,0.3-42,42.5v16.5c0,0,49.2-10.1,55.8-23.9c0,0,0.6,17.6,28.5,22.7
		C142.6,62.4,151.6,4.6,100.4,4.6L100.4,4.6z M100.4,4.6"/>
	<path class="st1" d="M67.6,47.1c0-34.6,28.4-41,38.5-42.2c-1.8-0.2-3.7-0.3-5.7-0.3c0,0-42,0.3-42,42.5v16.5c0,0,3.7-0.8,9.3-2.2
		C67.6,57.9,67.6,53.2,67.6,47.1L67.6,47.1z M67.6,47.1"/>
	<path class="st1" d="M53,140c0,0-0.1,0-0.1,0.1c-0.8,0.3-19.3,6.9-19.3,30.1v23.1h19.9v-24.2c0-1.2,1-2.1,2.1-2.1
		c1.2,0,2.1,1,2.1,2.1v27.2h29.7L69,133.3L53,140z M53,140"/>
	<path class="st1" d="M152.2,142.7c-2.9-1.9-5-2.6-5.1-2.6c0,0-0.1,0-0.1-0.1l-15.2-6.3L115,193.3h27.1v-24.2c0-1.2,1-2.1,2.1-2.1
		c1.2,0,2.1,1,2.1,2.1v24.2h19.9v-23.1C166.4,155.1,158.6,146.9,152.2,142.7L152.2,142.7z M152.2,142.7"/>
	<path class="st2" d="M114.6,44.6l-0.6-1.5l-1.1,1.2C99.6,58.2,79,60.9,70.7,61.4l-1,0.1v23.1c0,15.1,12.3,27.4,27.4,27.4h6.4
		c15.1,0,27.4-12.3,27.4-27.4V61l-0.7-0.2C121.8,57.8,117.1,50.4,114.6,44.6L114.6,44.6z M96.5,73.9c0-1.2,1-2.1,2.1-2.1
		c1.2,0,2.1,1,2.1,2.1v8.2h3.3c1.2,0,2.1,1,2.1,2.1c0,1.2-1,2.1-2.1,2.1h-5.4c-1.2,0-2.1-1-2.1-2.1L96.5,73.9L96.5,73.9z M96.5,73.9
		"/>
	<path class="st3" d="M74.9,84.6V61.5l1-0.1c7.7-0.5,26.4-2.9,39.7-14.7c-0.3-0.7-0.7-1.4-0.9-2l-0.6-1.5l-1.1,1.2
		C99.6,58.2,79,60.9,70.7,61.4l-1,0.1v23.1c0,15.1,12.3,27.4,27.4,27.4h5.1C87.2,112,74.9,99.7,74.9,84.6L74.9,84.6z M74.9,84.6"/>
	<path class="st2" d="M136.6,64.7l-1.3-0.2v19.4l1.3-0.2c4.6-0.9,7.9-4.8,7.9-9.5C144.4,69.5,141.1,65.5,136.6,64.7L136.6,64.7z
		 M136.6,64.7"/>
	<path class="st2" d="M112.9,114.9l-1.3,0.3c-2.6,0.7-5.3,1-8,1h-6.4c-2.7,0-5.4-0.3-8-1l-1.3-0.3v11.9c0,0.1,0,0.2,0,0.3l-0.1,0.5
		l12.5,12.2l12.6-13.1L112.9,114.9L112.9,114.9z M112.9,114.9"/>
	<path class="st3" d="M92.9,127.7l0.1-0.5c0-0.1,0-0.2,0-0.3V116c-1.3-0.2-2.5-0.4-3.8-0.7l-1.3-0.3v11.9c0,0.1,0,0.2,0,0.3
		l-0.1,0.5l12.5,12.2l2.5-2.6L92.9,127.7z M92.9,127.7"/>
	<path class="st2" d="M65.5,83.8V64.4l-1.3,0.2c-4.6,0.9-7.9,4.8-7.9,9.5c0,4.6,3.3,8.6,7.9,9.5L65.5,83.8z M65.5,83.8"/>
	<path class="st3" d="M117.8,159.2c-0.7,0-1.3-0.2-1.9-0.6l-3.6-2.6l-2.3,6l3,18.7l6.1-21.8c-0.2,0.1-0.4,0.2-0.6,0.2
		C118.3,159.1,118,159.2,117.8,159.2L117.8,159.2z M117.8,159.2"/>
	<path class="st3" d="M118.2,126.8c0,0.1,0,0.3,0,0.4c0.1,0.9-0.2,1.9-0.9,2.6L105,142.6l11.6,8.5l9.4-19.2L118.2,126.8L118.2,126.8
		z M118.2,126.8"/>
	<path class="st3" d="M90.8,162l-2.6-6.2l-3.7,2.7c-0.6,0.4-1.2,0.6-1.9,0.6c-0.3,0-0.5,0-0.8-0.1c0,0,0,0,0,0l6,21.5L90.8,162z
		 M90.8,162"/>
	<path class="st3" d="M74.4,131.9l9.4,19.3l11.7-8.6L83.5,131c-0.9-0.9-1.2-2.1-0.8-3.2c-0.1-0.3-0.1-0.6-0.1-1v-0.4L74.4,131.9z
		 M74.4,131.9"/>
	<path class="st4" d="M104.6,164.2h-8.3l-4.6,28.7h17.6L104.6,164.2z M104.6,164.2"/>
	<path class="st4" d="M105,159.1l2.8-7.3l-7.6-5.6l-7.5,5.5l3.1,7.4H105z M105,159.1"/>
	<path class="st5" d="M58,140.1c0.1,0,0.1,0,0.1-0.1l11.4-4.7l-0.5-1.9L53,140c0,0-0.1,0-0.1,0.1c-0.8,0.3-19.3,6.9-19.3,30.1v23.1
		h5.1v-23.1C38.7,147,57.2,140.3,58,140.1L58,140.1z M58,140.1"/>
	<path class="st5" d="M60.8,166.9c-1.2,0-2.1,1-2.1,2.1v24.2h4.3v-24.2C62.9,167.9,62,166.9,60.8,166.9L60.8,166.9z M60.8,166.9"/>
	<path class="st3" d="M96.2,164.2l-4.6,28.7h5.1l4.6-28.7H96.2z M96.2,164.2"/>
	<path class="st3" d="M102.7,148l-2.6-1.9l-7.5,5.5l3.1,7.4h5.1l-3.1-7.4L102.7,148z M102.7,148"/>
	<path class="st6" d="M155,138.3L155,138.3c-3.1-2-5.5-2.9-6.1-3.1l-17.8-7.4l-12.6-8.3c-0.1-0.1-0.2-0.1-0.4-0.2v-5.4
		c9.5-4.7,16.4-13.9,17.8-24.8c7.6-0.6,13.7-7,13.7-14.8c0-3.9-1.5-7.4-3.9-10V45.1c0-24-19.6-43.6-43.6-43.6h-3.4
		c-24,0-43.6,19.6-43.6,43.6v18.8c-2.5,2.7-4.1,6.3-4.1,10.2c0,7.8,6,14.2,13.7,14.8c1.5,10.9,8.4,20.1,17.8,24.8v5l-13.1,8.6
		c-0.2,0-0.4,0.1-0.5,0.2l-17.9,7.5c-0.9,0.3-6.2,2.3-11.4,7.3c-5.2,4.9-11.3,13.7-11.3,27.8v25.2c0,1.7,1.4,3.1,3.1,3.1h37
		c1.7,0,3.1-1.4,3.1-3.1c0-1.7-1.4-3.1-3.1-3.1h-9.6v-23.2c0-1.7-1.4-3.1-3.1-3.1c-1.7,0-3.1,1.4-3.1,3.1v23.2H34.6v-22.1
		c0-22.5,17.8-28.9,18.6-29.2c0.1,0,0.1,0,0.2-0.1l14.9-6.2l16.1,57.6h-6.2c-1.7,0-3.1,1.4-3.1,3.1s1.4,3.1,3.1,3.1h10.3
		c0,0,0,0,0,0s0,0,0,0h23.6c0,0,0,0,0,0c0,0,0,0,0,0h56.2c1.7,0,3.1-1.4,3.1-3.1v-25.2C171.6,151.8,161.2,142.3,155,138.3L155,138.3
		z M88.2,155.7l2.6,6.3l-3,18.9L81.6,159c0,0,0.1,0,0.1,0c0.2,0.1,0.5,0.1,0.7,0.1c0.7,0,1.3-0.2,1.9-0.6L88.2,155.7z M96.1,158.5
		l-2.8-6.6l6.8-5l6.9,5.1l-2.5,6.5L96.1,158.5L96.1,158.5L96.1,158.5z M109.9,161.9l2.3-6.1l3.7,2.7c0.5,0.4,1.2,0.6,1.9,0.6
		c0.3,0,0.5,0,0.7-0.1c0.3-0.1,0.5-0.2,0.7-0.3L113,181L109.9,161.9z M126,131.8l-9.4,19.4l-11.7-8.6l12.4-12.8
		c0.7-0.7,1-1.7,0.8-2.6c0-0.1,0-0.3,0-0.4v-0.2L126,131.8z M136.3,82.6v-17c4,0.7,7.1,4.3,7.1,8.5
		C143.4,78.4,140.3,81.9,136.3,82.6L136.3,82.6z M98.8,7.7h3.4c20.6,0,37.3,16.7,37.3,37.3v15c-1-0.3-2.1-0.6-3.2-0.7c0,0,0,0,0,0
		c0-0.1,0-0.1,0-0.2c0,0,0-0.1,0-0.1c0-0.1,0-0.1,0-0.2c0,0,0-0.1,0-0.1c0,0,0-0.1,0-0.1c0-0.1,0-0.1-0.1-0.2c0,0,0-0.1,0-0.1
		c0-0.1,0-0.1-0.1-0.2c0,0,0-0.1-0.1-0.1c0-0.1-0.1-0.1-0.1-0.2c0,0,0-0.1-0.1-0.1c0,0-0.1-0.1-0.1-0.1c0,0-0.1-0.1-0.1-0.1
		c0,0-0.1-0.1-0.1-0.1c0,0-0.1-0.1-0.1-0.1c0,0-0.1-0.1-0.1-0.1c0,0-0.1-0.1-0.1-0.1c0,0-0.1-0.1-0.1-0.1c0,0-0.1-0.1-0.1-0.1
		c0,0-0.1-0.1-0.1-0.1c0,0-0.1-0.1-0.1-0.1c0,0-0.1,0-0.1-0.1c0,0-0.1,0-0.1-0.1c-0.1,0-0.1,0-0.2-0.1c0,0-0.1,0-0.1,0
		c-0.1,0-0.1,0-0.2-0.1c0,0-0.1,0-0.1,0c-12.2-2.8-15.9-18.2-16-18.4c-0.3-1.2-1.2-2.1-2.4-2.4c-1.2-0.2-2.4,0.2-3.2,1.2
		C98.4,56.1,68.1,56.2,67.6,56.2h0c-0.1,0-0.2,0-0.3,0c0,0-0.1,0-0.1,0c-0.1,0-0.1,0-0.2,0c0,0-0.1,0-0.1,0c-0.1,0-0.1,0-0.2,0
		c-0.1,0-0.1,0-0.2,0.1c0,0-0.1,0-0.1,0.1c-0.1,0-0.1,0.1-0.2,0.1c0,0-0.1,0-0.1,0.1c-0.1,0-0.1,0.1-0.2,0.1c0,0-0.1,0-0.1,0.1
		c-0.1,0-0.1,0.1-0.1,0.1c0,0-0.1,0-0.1,0.1c0,0-0.1,0.1-0.1,0.1c0,0-0.1,0.1-0.1,0.1c0,0-0.1,0.1-0.1,0.1c0,0-0.1,0.1-0.1,0.1
		c0,0-0.1,0.1-0.1,0.1c0,0-0.1,0.1-0.1,0.1c0,0-0.1,0.1-0.1,0.1c0,0-0.1,0.1-0.1,0.1c0,0,0,0.1-0.1,0.1c0,0,0,0.1-0.1,0.1
		c0,0,0,0.1,0,0.1c0,0.1,0,0.1-0.1,0.2c0,0,0,0.1,0,0.1c0,0.1,0,0.1,0,0.2c0,0,0,0.1,0,0.1c0,0.1,0,0.1,0,0.2c0,0,0,0.1,0,0.1
		c0,0,0,0.1,0,0.1c-1,0.1-2.1,0.3-3,0.6V45.1C61.5,24.5,78.2,7.7,98.8,7.7L98.8,7.7z M57.4,74.1c0-4.2,3.1-7.8,7.1-8.5v17
		C60.5,81.9,57.4,78.4,57.4,74.1L57.4,74.1z M70.7,84.6V62.4c8-0.5,29.2-3.1,42.9-17.5c2.4,5.5,7.2,13.6,16.4,16.8v22.8
		c0,14.6-11.9,26.4-26.4,26.4h-6.4C82.6,111,70.7,99.1,70.7,84.6L70.7,84.6z M97.2,117.3h6.4c2.9,0,5.6-0.4,8.3-1.1v10.2l-11.6,12.1
		l-11.4-11.1c0-0.2,0-0.3,0-0.5v-10.6C91.5,116.9,94.3,117.3,97.2,117.3L97.2,117.3z M82.6,126.3v0.5c0,0.3,0.1,0.6,0.1,0.9
		c-0.3,1.1-0.1,2.3,0.8,3.2l11.9,11.6l-11.8,8.7l-9.4-19.4L82.6,126.3z M92.3,192.3l4.4-27.5h7.3l4.4,27.5H92.3z M165.4,192.3h-17.9
		v-23.2c0-1.7-1.4-3.1-3.1-3.1c-1.7,0-3.1,1.4-3.1,3.1v23.2h-24.8l16-57.3l14.2,5.9c0.1,0,0.1,0.1,0.2,0.1c0,0,2.1,0.7,4.8,2.5
		c0,0,0,0,0,0c6.3,4.1,13.7,12,13.7,26.7V192.3z M165.4,192.3"/>
	<path class="st6" d="M104.1,87.4c1.7,0,3.1-1.4,3.1-3.1c0-1.7-1.4-3.1-3.1-3.1h-2.3v-7.2c0-1.7-1.4-3.1-3.1-3.1
		c-1.7,0-3.1,1.4-3.1,3.1v10.4c0,1.7,1.4,3.1,3.1,3.1H104.1z M104.1,87.4"/>
</g>
</svg>
