<?xml version="1.0" encoding="utf-8"?>
<!-- Generator: Adobe Illustrator 22.1.0, SVG Export Plug-In . SVG Version: 6.00 Build 0)  -->
<svg version="1.1" id="Calque_1" xmlns="http://www.w3.org/2000/svg" xmlns:xlink="http://www.w3.org/1999/xlink" x="0px" y="0px"
	 viewBox="0 0 200 200" style="enable-background:new 0 0 200 200;" xml:space="preserve">
<style type="text/css">
	.st0{fill:#1C5F74;}
	.st1{fill:#FF1D25;}
	.st2{fill:#D4E5EB;}
	.st3{clip-path:url(#SVGID_2_);}
	.st4{opacity:0.6;fill:#1C5F74;}
</style>
<g>
	<path class="st0" d="M131.4,133.9c6.5-6.5,15-9.9,23.6-10.2c-15.4-17.1-37.7-27.8-62.4-27.8c-46.4,0-84,37.6-84,84h119.8
		C117.8,166.1,118.9,146.4,131.4,133.9L131.4,133.9z M131.4,133.9"/>
	<path class="st1" d="M180.9,133.9c-7.1-7.1-16.6-10.5-26-10.2c-8.6,0.3-17,3.7-23.6,10.2c-12.5,12.6-13.6,32.3-3.1,46
		c0.9,1.2,2,2.4,3.1,3.5c13.7,13.7,35.8,13.7,49.5,0C194.6,169.7,194.6,147.6,180.9,133.9L180.9,133.9z M180.9,133.9"/>
	<path class="st2" d="M137.4,51c0,24.8-20.1,44.9-44.9,44.9c-24.8,0-44.9-20.1-44.9-44.9C47.6,26.1,67.7,6,92.5,6
		C117.3,6,137.4,26.1,137.4,51L137.4,51z M137.4,51"/>
	<path d="M25,167.5c-0.3,0-0.6,0-0.9-0.1c-2.1-0.5-3.4-2.6-2.9-4.7c4.6-19,16.9-35.7,33.7-45.8c1.8-1.1,4.2-0.5,5.3,1.3
		c1.1,1.8,0.5,4.2-1.3,5.3c-15.1,9-26.1,23.9-30.2,40.9C28.4,166.3,26.8,167.5,25,167.5L25,167.5z M25,167.5"/>
	<g>
		<defs>
			<rect id="SVGID_1_" x="4.6" y="2" width="190.7" height="196"/>
		</defs>
		<clipPath id="SVGID_2_">
			<use xlink:href="#SVGID_1_"  style="overflow:visible;"/>
		</clipPath>
		<path class="st3" d="M76.4,116.2c-1.8,0-3.4-1.2-3.8-3c-0.5-2.1,0.8-4.2,2.9-4.7c5.5-1.3,11.3-2,17-2c2.1,0,3.9,1.7,3.9,3.9
			c0,2.2-1.7,3.9-3.9,3.9c-5.1,0-10.2,0.6-15.2,1.8C77,116.2,76.7,116.2,76.4,116.2L76.4,116.2z M76.4,116.2"/>
		<path class="st3" d="M183.7,131.1c-7.5-7.5-17.2-11.2-27-11.4c-0.6-0.7-1.3-1.4-2-2.1c-11.4-11.4-25.3-19.2-40.5-23.1
			c16-8,27.1-24.6,27.1-43.7c0-26.9-21.9-48.8-48.8-48.8C65.6,2.2,43.7,24,43.7,51c0,19.1,11.1,35.7,27.1,43.7
			c-15.2,3.8-29.1,11.7-40.5,23.1c-16.6,16.6-25.7,38.7-25.7,62.2c0,2.1,1.7,3.9,3.9,3.9h117.9c0.7,0.8,1.4,1.6,2.2,2.4
			c7.6,7.6,17.5,11.4,27.5,11.4c10,0,19.9-3.8,27.5-11.4C198.9,171,198.9,146.3,183.7,131.1L183.7,131.1z M51.5,51
			c0-22.6,18.4-41,41-41c22.6,0,41,18.4,41,41c0,22.6-18.4,41-41,41C69.9,92,51.5,73.6,51.5,51L51.5,51z M12.5,176
			c2-42.4,37.2-76.2,80-76.2c20.9,0,39.9,8,54.2,21.2c-6.6,1.6-12.9,5.1-18.1,10.2c-12.1,12.1-14.6,30.3-7.3,44.8H12.5z
			 M178.2,180.7c-12.1,12.1-31.9,12.1-44,0c-12.1-12.1-12.1-31.9,0-44c6.1-6.1,14-9.1,22-9.1c8,0,15.9,3,22,9.1
			C190.3,148.8,190.3,168.5,178.2,180.7L178.2,180.7z M178.2,180.7"/>
	</g>
	<path d="M169.8,145.1c-1.5-1.5-4-1.5-5.5,0l-8.6,8.6l-8.6-8.6c-1.5-1.5-4-1.5-5.5,0c-1.5,1.5-1.5,4,0,5.5l8.6,8.6l-8.6,8.6
		c-1.5,1.5-1.5,4,0,5.5c0.8,0.8,1.8,1.1,2.8,1.1c1,0,2-0.4,2.8-1.1l8.6-8.6l8.6,8.6c0.8,0.8,1.8,1.1,2.8,1.1c1,0,2-0.4,2.8-1.1
		c1.5-1.5,1.5-4,0-5.5l-8.6-8.6l8.6-8.6C171.3,149.1,171.3,146.7,169.8,145.1L169.8,145.1z M169.8,145.1"/>
	<path class="st4" d="M76.5,13.3C61.8,19.4,51.5,34,51.5,50.9c0,14.8,7.9,27.8,19.8,35C44.6,51.5,59.9,27.2,76.5,13.3z"/>
</g>
</svg>
